<?xml version="1.0" encoding="utf-8"?>
<svg version="1.1" id="Layer_1" xmlns="http://www.w3.org/2000/svg" x="0px" y="0px" width="100%" viewBox="0 0 600 600" enable-background="new 0 0 600 600">
  <path fill="#DBDBDB" opacity="1.000000" stroke="none" d=" M280.021759,546.055237 C265.328430,549.371338 256.761719,544.538208 256.064880,529.257751 C255.700943,521.277527 256.103943,513.265381 255.973236,505.270691 C255.653549,485.714905 251.589157,466.971039 243.708374,449.038177 C237.165909,434.150696 228.177246,421.110413 215.983917,410.229980 C200.688965,396.581848 185.182999,383.125732 170.568619,368.771698 C155.464981,353.937134 141.319229,338.187164 130.293640,319.837677 C119.934296,302.596985 113.037994,284.095703 111.390434,264.234955 C110.302345,251.118484 111.835449,237.736954 112.766533,224.514343 C113.651985,211.939835 118.390602,200.162445 124.361328,189.457748 C131.368942,176.894073 139.741959,164.856873 149.009247,153.841965 C164.140137,135.857727 182.884705,121.715935 202.739777,109.307487 C216.405090,100.767319 230.457291,92.692352 244.946518,85.667480 C259.561462,78.581665 274.897858,72.971107 289.978546,66.863251 C299.760681,62.901367 309.541718,58.885540 319.524811,55.485954 C328.816315,52.321896 338.516083,52.077641 347.833405,55.290394 C351.866394,56.681026 354.154968,60.514542 353.708893,65.624481 C352.924225,66.389641 352.447418,66.728264 351.655243,66.995148 C349.883270,63.807240 350.175659,59.644741 345.445557,58.622051 C336.562958,56.701553 327.937225,55.786568 319.076721,59.361156 C306.294189,64.517998 293.048096,68.548996 280.362915,73.918236 C262.782349,81.359520 244.995636,88.608871 228.308990,97.781128 C212.676346,106.374001 198.234161,117.180496 183.521667,127.378693 C176.460617,132.273178 169.279053,137.341171 163.404846,143.521362 C153.959946,153.458252 144.543762,163.712387 136.999878,175.082733 C129.808594,185.921616 123.771881,197.920670 119.480423,210.197205 C112.998840,228.738983 112.463455,248.285370 115.139862,267.743561 C117.283356,283.327332 121.907745,298.384918 129.481598,312.061707 C142.780853,336.077423 162.032349,355.463837 181.460770,374.474945 C192.518677,385.295349 204.697006,394.962219 215.984222,405.560242 C222.204529,411.400757 228.146790,417.695648 233.310486,424.474243 C250.380051,446.882080 257.761383,472.760773 258.993042,500.559326 C259.398346,509.706543 258.980896,518.887695 259.076904,528.051819 C259.180023,537.891663 263.120483,543.029053 272.026672,544.742554 C274.605011,545.238647 277.337952,544.931580 280.003082,545.258423 C280.011353,545.701050 280.016541,545.878113 280.021759,546.055237 z"/>
  <path fill="#DADADA" opacity="1.000000" stroke="none" d=" M280.416992,546.054810 C280.016541,545.878113 280.011353,545.701050 280.340607,545.096985 C290.575134,541.022400 300.733337,537.945801 310.322113,533.609741 C330.909119,524.300293 351.652496,515.172485 371.496887,504.428223 C393.960571,492.265900 414.409027,477.014069 433.832977,460.219299 C444.033783,451.399261 452.587006,441.397980 460.438354,430.864166 C473.780121,412.964111 482.842407,392.987305 485.145508,370.327637 C486.890137,353.162109 486.406830,336.179718 481.898743,319.504700 C474.687622,292.831726 459.619507,270.760345 440.585571,251.242966 C425.194000,235.460510 409.463013,220.008560 393.837616,204.455215 C391.253113,201.882660 387.975403,199.892120 385.810699,197.032562 C377.519257,186.079742 368.925690,175.277542 361.599457,163.689240 C348.532898,143.021179 345.501190,120.118912 348.715668,96.138588 C350.010864,86.476204 350.897888,76.759094 351.970642,67.066887 C352.447418,66.728264 352.924225,66.389641 353.707550,66.025200 C354.026062,70.683678 354.038025,75.367981 353.772156,80.731903 C353.343475,82.304329 353.192566,83.197136 353.041687,84.089943 C352.379395,88.111191 351.717072,92.132431 350.790039,96.750015 C350.375549,97.946167 350.225800,98.545982 350.076050,99.145798 C350.076416,108.076241 350.076843,117.006683 350.084961,126.778572 C350.741058,129.420197 351.389465,131.220367 352.037872,133.020554 C356.892792,146.720444 362.834229,159.846771 370.917419,172.034348 C379.840027,185.487564 390.617828,197.206589 402.218292,208.329742 C411.163055,216.906464 419.616089,225.994675 428.333405,234.810318 C435.302002,241.857559 442.481934,248.701096 449.313263,255.877609 C459.979889,267.083160 469.334290,279.472626 475.654663,293.514465 C480.623108,304.552673 484.308105,316.401520 486.822876,328.259369 C491.155853,348.690765 490.113892,369.213837 484.767914,389.529541 C481.571228,401.677704 475.707916,412.414307 469.648590,423.291290 C460.843109,439.097778 448.651459,452.012787 435.375519,463.584503 C421.887970,475.340698 406.825867,485.366425 391.999054,495.484406 C381.400513,502.716949 370.303314,509.323578 358.968323,515.342773 C347.498230,521.433655 335.606781,526.801636 323.632904,531.853516 C311.515625,536.965820 299.071381,541.302979 286.227966,545.757080 C285.116577,545.703979 284.547546,545.873535 283.978516,546.042969 C282.923096,546.046814 281.867676,546.050659 280.416992,546.054810 z"/>
  <path fill="#DBDBDB" opacity="1.000000" stroke="none" d=" M352.289825,132.777802 C351.389465,131.220367 350.741058,129.420197 350.082825,127.238182 C350.895935,128.749252 351.718842,130.642151 352.289825,132.777802 z"/>
  <path fill="#DBDBDB" opacity="1.000000" stroke="none" d=" M353.356079,84.015030 C353.192566,83.197136 353.343475,82.304329 353.763641,81.196838 C353.912109,81.968140 353.791260,82.954124 353.356079,84.015030 z"/>
  <path fill="#DBDBDB" opacity="1.000000" stroke="none" d=" M350.354919,99.070877 C350.225800,98.545982 350.375549,97.946167 350.783508,97.162376 C350.905762,97.650917 350.769745,98.323441 350.354919,99.070877 z"/>
  <path fill="#DBDBDB" opacity="1.000000" stroke="none" d=" M284.137299,546.254395 C284.547546,545.873535 285.116577,545.703979 285.836517,545.754395 C285.423676,546.138184 284.859863,546.301941 284.137299,546.254395 z"/>
  <path fill="#FBFBFB" opacity="1.000000" stroke="none" d=" M351.655273,66.995148 C350.897888,76.759094 350.010864,86.476204 348.715668,96.138588 C345.501190,120.118912 348.532898,143.021179 361.599457,163.689240 C368.925690,175.277542 377.519257,186.079742 385.810699,197.032562 C387.975403,199.892120 391.253113,201.882660 393.837616,204.455215 C409.463013,220.008560 425.194000,235.460510 440.585571,251.242966 C459.619507,270.760345 474.687622,292.831726 481.898743,319.504700 C486.406830,336.179718 486.890137,353.162109 485.145508,370.327637 C482.842407,392.987305 473.780121,412.964111 460.438354,430.864166 C452.587006,441.397980 444.033783,451.399261 433.832977,460.219299 C414.409027,477.014069 393.960571,492.265900 371.496887,504.428223 C351.652496,515.172485 330.909119,524.300293 310.322113,533.609741 C300.733337,537.945801 290.575134,541.022400 280.337524,544.831299 C277.337952,544.931580 274.605011,545.238647 272.026672,544.742554 C263.120483,543.029053 259.180023,537.891663 259.076904,528.051819 C258.980896,518.887695 259.398346,509.706543 258.993042,500.559326 C257.761383,472.760773 250.380051,446.882080 233.310486,424.474243 C228.146790,417.695648 222.204529,411.400757 215.984222,405.560242 C204.697006,394.962219 192.518677,385.295349 181.460770,374.474945 C162.032349,355.463837 142.780853,336.077423 129.481598,312.061707 C121.907745,298.384918 117.283356,283.327332 115.139862,267.743561 C112.463455,248.285370 112.998840,228.738983 119.480423,210.197205 C123.771881,197.920670 129.808594,185.921616 136.999878,175.082733 C144.543762,163.712387 153.959946,153.458252 163.404846,143.521362 C169.279053,137.341171 176.460617,132.273178 183.521667,127.378693 C198.234161,117.180496 212.676346,106.374001 228.308990,97.781128 C244.995636,88.608871 262.782349,81.359520 280.362915,73.918236 C293.048096,68.548996 306.294189,64.517998 319.076721,59.361156 C327.937225,55.786568 336.562958,56.701553 345.445557,58.622051 C350.175659,59.644741 349.883270,63.807240 351.655273,66.995148 M328.663147,508.185486 C347.266937,497.824402 366.379059,488.267426 384.350830,476.906525 C408.949677,461.356262 431.344391,442.937408 448.558716,419.025452 C477.583313,378.708099 478.456787,332.586304 451.245850,291.031952 C441.204926,275.698151 428.283508,262.971313 415.281555,250.281448 C396.569061,232.018097 377.316345,214.282410 361.285278,193.452011 C338.531952,163.886963 327.231842,131.134033 333.076172,93.554413 C334.285492,85.778488 335.976318,78.077446 337.508453,70.008759 C296.657684,84.313667 255.843857,98.249344 219.475204,122.240379 C195.899033,137.792679 173.225418,154.492111 155.789108,177.115997 C138.991699,198.910889 128.120071,223.099304 129.099457,251.251038 C129.951767,275.749939 138.374313,297.796906 152.788849,317.510864 C168.614380,339.154602 187.391220,357.978729 208.193466,374.856689 C223.895294,387.596405 238.824829,401.205994 249.858398,418.351288 C270.689575,450.721222 277.168213,486.543518 274.435516,524.436218 C274.297607,526.348755 274.083771,528.255859 273.803101,531.258911 C292.454346,523.433105 310.223267,515.977539 328.663147,508.185486 z"/>
  <path fill="#020202" opacity="1.000000" stroke="none" d=" M328.327637,508.353729 C310.223267,515.977539 292.454346,523.433105 273.803101,531.258911 C274.083771,528.255859 274.297607,526.348755 274.435516,524.436218 C277.168213,486.543518 270.689575,450.721222 249.858398,418.351288 C238.824829,401.205994 223.895294,387.596405 208.193466,374.856689 C187.391220,357.978729 168.614380,339.154602 152.788849,317.510864 C138.374313,297.796906 129.951767,275.749939 129.099457,251.251038 C128.120071,223.099304 138.991699,198.910889 155.789108,177.115997 C173.225418,154.492111 195.899033,137.792679 219.475204,122.240379 C255.843857,98.249344 296.657684,84.313667 337.508453,70.008759 C335.976318,78.077446 334.285492,85.778488 333.076172,93.554413 C327.231842,131.134033 338.531952,163.886963 361.285278,193.452011 C377.316345,214.282410 396.569061,232.018097 415.281555,250.281448 C428.283508,262.971313 441.204926,275.698151 451.245850,291.031952 C478.456787,332.586304 477.583313,378.708099 448.558716,419.025452 C431.344391,442.937408 408.949677,461.356262 384.350830,476.906525 C366.379059,488.267426 347.266937,497.824402 328.327637,508.353729 M346.103729,261.427948 C321.971680,250.207657 297.515289,239.626022 273.801147,227.582825 C251.259567,216.135117 229.505203,203.139191 207.380280,190.868011 C200.795425,187.215851 197.824432,187.804703 193.135147,193.507065 C189.645355,197.750793 186.117020,201.969757 182.798904,206.346130 C177.450455,213.400360 177.844055,215.488617 185.175262,220.216736 C212.912064,238.104950 241.783463,253.945786 271.656891,267.961121 C315.296844,288.435150 361.044769,303.363342 406.501099,319.046021 C411.266663,320.690186 416.257507,321.681396 421.426636,323.050476 C418.753693,309.593994 399.928375,285.217560 387.089020,279.206543 C373.837463,273.002533 360.234222,267.549713 346.103729,261.427948 M335.984924,337.555725 C278.568512,315.592987 223.494690,288.603455 168.904099,258.894836 C169.030975,260.656525 168.884201,261.528595 169.174820,262.215637 C173.248154,271.845337 176.842697,281.736450 181.738205,290.933441 C184.014801,295.210419 188.271652,299.225616 192.607040,301.492767 C239.647339,326.092133 287.126862,349.805237 337.239960,367.681793 C360.116791,375.842499 383.144989,383.582123 406.155884,391.360809 C410.061829,392.681183 414.516968,393.960083 417.364716,389.344513 C421.176910,383.165741 424.682556,376.797821 428.429718,370.321167 C397.461975,359.357941 367.083435,348.603333 335.984924,337.555725 M300.542267,399.962433 C295.646881,398.129639 290.751465,396.296844 284.492035,393.953369 C286.470459,398.110046 287.874481,400.861053 289.108246,403.686401 C294.488586,416.007812 300.249756,428.187622 305.013336,440.744812 C308.062134,448.781647 309.652283,457.376740 311.814911,465.742645 C312.819916,469.630341 314.920959,471.311646 318.691833,469.179718 C335.178192,459.858887 351.717651,450.623199 367.999878,440.955841 C372.425964,438.327881 376.021149,434.300537 380.613434,430.391296 C353.468079,420.059845 327.374878,410.128845 300.542267,399.962433 M297.115021,194.293823 C304.123901,197.733871 311.132812,201.173920 319.204132,205.135437 C318.340698,202.277374 318.097778,200.789764 317.467773,199.489761 C307.226990,178.357590 297.822754,156.927917 293.183960,133.720810 C292.413849,129.868057 289.776855,128.903290 286.424133,130.633362 C272.104523,138.022537 257.770050,145.388977 243.601715,153.060501 C240.421829,154.782257 237.889343,157.699661 233.860794,161.068436 C255.581619,172.496506 276.006287,183.242615 297.115021,194.293823 z"/>
  <path fill="#FCFCFC" opacity="1.000000" stroke="none" d=" M346.444275,261.598083 C360.234222,267.549713 373.837463,273.002533 387.089020,279.206543 C399.928375,285.217560 418.753693,309.593994 421.426636,323.050476 C416.257507,321.681396 411.266663,320.690186 406.501099,319.046021 C361.044769,303.363342 315.296844,288.435150 271.656891,267.961121 C241.783463,253.945786 212.912064,238.104950 185.175262,220.216736 C177.844055,215.488617 177.450455,213.400360 182.798904,206.346130 C186.117020,201.969757 189.645355,197.750793 193.135147,193.507065 C197.824432,187.804703 200.795425,187.215851 207.380280,190.868011 C229.505203,203.139191 251.259567,216.135117 273.801147,227.582825 C297.515289,239.626022 321.971680,250.207657 346.444275,261.598083 z"/>
  <path fill="#FBFBFB" opacity="1.000000" stroke="none" d=" M336.344910,337.702209 C367.083435,348.603333 397.461975,359.357941 428.429718,370.321167 C424.682556,376.797821 421.176910,383.165741 417.364716,389.344513 C414.516968,393.960083 410.061829,392.681183 406.155884,391.360809 C383.144989,383.582123 360.116791,375.842499 337.239960,367.681793 C287.126862,349.805237 239.647339,326.092133 192.607040,301.492767 C188.271652,299.225616 184.014801,295.210419 181.738205,290.933441 C176.842697,281.736450 173.248154,271.845337 169.174820,262.215637 C168.884201,261.528595 169.030975,260.656525 168.904099,258.894836 C223.494690,288.603455 278.568512,315.592987 336.344910,337.702209 z"/>
  <path fill="#FBFBFB" opacity="1.000000" stroke="none" d=" M300.911987,400.080139 C327.374878,410.128845 353.468079,420.059845 380.613434,430.391296 C376.021149,434.300537 372.425964,438.327881 367.999878,440.955841 C351.717651,450.623199 335.178192,459.858887 318.691833,469.179718 C314.920959,471.311646 312.819916,469.630341 311.814911,465.742645 C309.652283,457.376740 308.062134,448.781647 305.013336,440.744812 C300.249756,428.187622 294.488586,416.007812 289.108246,403.686401 C287.874481,400.861053 286.470459,398.110046 284.492035,393.953369 C290.751465,396.296844 295.646881,398.129639 300.911987,400.080139 z"/>
  <path fill="#FBFBFB" opacity="1.000000" stroke="none" d=" M296.772980,194.141266 C276.006287,183.242615 255.581619,172.496506 233.860794,161.068436 C237.889343,157.699661 240.421829,154.782257 243.601715,153.060501 C257.770050,145.388977 272.104523,138.022537 286.424133,130.633362 C289.776855,128.903290 292.413849,129.868057 293.183960,133.720810 C297.822754,156.927917 307.226990,178.357590 317.467773,199.489761 C318.097778,200.789764 318.340698,202.277374 319.204132,205.135437 C311.132812,201.173920 304.123901,197.733871 296.772980,194.141266 z"/>
</svg>