<?xml version='1.0' encoding='utf-8'?>
<svg xmlns="http://www.w3.org/2000/svg" version="1.1" width="336px" height="310px" viewBox="-0.3 0.2 335.85 309.55"><g><path fill="#727364" d="M204.55 165.95 L241.0 156.1 243.5 167.55 Q245.0 175.15 245.0 176.9 245.0 180.5 247.35 183.1 254.7 191.35 267.0 212.6 280.7 236.35 282.5 246.9 283.25 251.3 283.8 264.05 284.3 276.3 284.15 284.45 L276.6 297.45 273.6 298.15 253.85 298.45 Q252.2 297.65 247.25 296.25 L239.95 294.35 234.4 286.05 Q234.9 284.35 234.95 281.05 235.05 277.75 234.55 276.6 234.05 275.45 231.15 273.4 228.3 271.4 225.45 270.1 214.65 272.3 189.85 269.5 165.3 266.7 155.4 262.3 129.85 272.75 126.55 276.05 125.45 277.1 124.8 281.8 124.25 285.6 124.3 288.5 L113.5 292.5 95.45 293.6 81.5 284.8 Q81.3 283.85 80.1 281.85 78.9 279.9 78.2 279.3 78.3 276.05 80.3 263.7 82.25 251.4 83.25 247.8 84.05 244.75 98.2 228.85 107.95 217.9 116.7 208.75 114.95 201.35 112.55 183.3 115.6 188.55 124.25 195.0 132.85 201.4 136.65 201.4 140.4 201.4 151.65 193.0 162.9 184.6 171.85 175.1 176.3 173.65 204.55 165.95"/><path fill="#727364" d="M93.25 70.35 Q96.9 70.2 99.4 66.65 102.85 61.8 114.05 53.25 125.65 44.45 129.75 44.15 133.0 43.95 138.55 50.55 143.9 56.85 149.05 66.6 161.6 90.25 159.4 104.15 158.6 109.35 140.85 122.65 122.55 136.4 114.15 136.65 106.6 136.9 91.45 130.45 75.55 123.65 69.65 116.8 L68.3 118.2 Q67.6 119.15 66.2 118.95 64.9 118.75 64.0 117.75 49.0 100.9 52.9 79.4 53.7 81.95 55.65 85.5 57.9 89.55 60.1 91.8 62.0 86.45 72.65 78.9 84.3 70.65 93.25 70.35"/><path fill="#0f141b" d="M103.3 75.9 Q107.75 69.25 116.9 62.0 125.75 55.0 133.15 52.1 138.25 56.15 139.6 65.5 141.05 75.7 134.9 80.35 128.2 85.45 118.55 84.2 108.75 82.95 103.3 75.9"/><path fill="#d93339" d="M154.05 244.5 Q150.6 238.2 150.7 237.35 150.8 236.6 151.6 235.85 152.4 235.15 153.2 235.1 155.5 234.95 163.7 241.2 171.9 247.45 171.6 248.8 171.35 250.05 165.95 251.05 L158.7 251.4 Q157.55 251.0 154.05 244.5"/><path fill="#d93339" d="M109.75 68.3 Q112.2 65.85 117.1 62.0 121.75 58.35 124.8 56.4 130.95 64.75 128.45 74.05 127.4 78.05 124.95 80.4 122.35 82.9 119.15 82.75 115.05 82.6 112.1 77.6 109.35 72.95 109.75 68.3"/><path fill="#c0b9b5" d="M56.2 106.1 Q58.1 109.85 60.4 113.15 51.0 115.75 32.35 118.35 31.9 115.0 33.15 110.7 34.1 107.7 36.2 103.4 47.0 99.25 53.4 97.55 53.55 100.85 56.2 106.1"/><path fill="#d93339" d="M2.8 121.55 Q1.4 121.65 1.1 120.85 0.75 120.05 1.9 119.3 5.7 116.75 15.7 112.15 25.75 107.45 36.2 103.4 34.1 107.7 33.15 110.7 31.9 115.0 32.35 118.35 L2.8 121.55"/><path fill="#549b35" d="M168.8 26.15 Q178.1 34.0 187.1 44.25 209.65 70.0 212.05 89.05 219.5 90.55 225.65 95.55 231.5 100.3 234.85 107.1 238.2 113.95 238.15 121.1 238.05 128.65 234.0 134.9 235.0 137.15 237.5 145.0 L241.0 156.1 208.25 165.0 Q181.15 172.35 171.85 175.1 165.95 182.05 153.95 191.35 141.15 201.2 136.65 201.4 132.65 201.65 122.6 193.55 111.35 184.5 107.6 175.4 L98.45 184.2 Q91.9 190.05 89.0 191.9 82.4 196.15 77.4 191.75 72.55 187.4 75.15 181.1 76.65 177.55 82.1 165.9 L89.4 150.4 Q87.9 145.85 88.8 140.0 89.65 134.7 91.9 130.9 95.4 133.0 103.0 134.85 110.2 136.65 114.15 136.65 122.1 136.65 140.75 122.75 158.9 109.2 159.4 104.15 160.9 89.35 149.0 66.5 144.0 56.9 138.8 50.7 133.3 44.2 129.75 44.15 125.5 44.1 113.55 53.7 102.5 62.55 98.6 67.9 96.95 70.05 93.25 70.35 85.55 70.85 75.6 76.95 64.9 83.5 60.1 91.8 57.75 89.7 55.75 85.9 54.0 82.6 53.15 79.4 56.65 63.3 69.55 51.0 82.6 38.5 99.05 35.9 102.8 32.55 106.15 3.05 106.35 0.3 109.3 0.9 116.65 2.5 128.45 11.4 138.55 19.05 146.55 27.65 L150.55 18.4 Q151.2 17.05 151.95 16.6 L154.55 16.65 Q159.8 18.6 168.8 26.15"/><path fill="#727364" d="M246.4 181.65 Q255.4 181.15 267.85 177.05 277.35 173.9 285.9 169.8 L289.85 163.9 Q292.9 159.25 294.8 156.8 303.1 150.65 313.75 153.5 325.2 156.5 328.05 168.15 327.35 172.15 323.95 183.85 L318.05 202.8 Q315.1 211.45 301.3 228.8 288.6 244.85 282.55 249.3 280.4 236.05 268.15 214.45 258.1 196.6 246.4 181.65"/><path fill="#d93339" d="M330.25 118.0 Q332.2 116.65 333.4 117.25 334.7 117.9 334.55 120.5 333.75 135.1 332.15 146.75 330.65 157.75 327.9 169.8 326.55 158.5 316.1 154.55 305.45 150.5 294.3 157.6 301.25 147.9 313.0 134.9 324.95 121.7 330.25 118.0"/><path fill="#d93339" d="M54.15 184.75 Q54.75 184.0 56.45 184.3 L65.85 184.7 63.65 181.25 62.1 178.1 Q61.45 176.45 62.55 175.8 63.6 175.2 64.95 176.2 66.0 177.0 69.85 178.8 L75.15 181.1 Q73.6 186.1 76.35 190.45 79.35 195.25 85.2 193.65 82.9 195.85 80.1 201.55 78.1 205.65 76.95 209.1 76.5 210.4 75.35 210.5 74.15 210.55 73.55 209.1 72.05 205.45 70.6 198.9 69.4 197.55 66.9 196.05 L61.0 192.05 Q56.4 188.75 54.9 187.1 53.5 185.6 54.15 184.75"/><path fill="#d93339" d="M129.65 198.5 Q134.65 201.35 136.65 201.4 138.5 201.45 142.4 199.35 145.6 197.7 148.35 195.65 150.1 198.25 151.75 201.55 153.95 205.95 153.9 207.85 153.85 209.75 148.05 217.0 142.8 223.5 141.35 224.6 140.4 225.3 138.6 225.5 136.65 225.65 135.45 225.0 133.75 224.1 127.2 216.55 120.15 208.45 120.1 206.25 120.05 204.75 120.7 200.25 121.35 195.55 122.0 193.0 124.7 195.65 129.65 198.5"/><path fill="#d93339" d="M171.55 209.45 Q174.2 208.75 179.8 213.6 186.1 219.1 186.1 225.3 186.1 226.45 182.8 228.9 179.6 231.3 178.25 231.3 177.05 231.3 172.9 224.6 168.8 217.95 168.8 216.5 168.8 214.75 169.5 212.5 170.35 209.8 171.55 209.45"/><path fill="#d93339" d="M81.6 285.1 L85.7 282.6 Q88.15 281.35 89.1 281.35 90.0 281.35 92.75 285.6 95.3 289.5 95.9 291.15 96.4 292.4 95.65 293.2 95.0 293.95 93.4 294.15 L80.75 296.25 67.9 298.65 65.75 298.5 Q65.55 297.95 66.6 296.85 70.1 293.1 72.15 291.5 L65.8 291.65 59.5 292.1 Q58.0 292.3 57.65 291.55 57.3 290.85 58.0 290.35 60.75 288.15 67.85 284.1 76.0 279.5 78.0 279.65 79.05 279.75 80.2 281.65 81.15 283.3 81.6 285.1"/><path fill="#d93339" d="M120.55 294.35 Q113.55 292.75 113.25 291.9 112.75 290.6 115.55 287.55 118.3 284.55 119.75 284.6 121.3 284.65 125.15 289.7 128.95 294.7 128.25 295.35 127.6 295.95 120.55 294.35"/><path fill="#d93339" d="M237.85 295.05 L225.1 296.15 Q221.8 296.65 223.85 293.95 225.4 292.0 228.85 289.3 232.75 286.3 234.75 286.15 236.05 286.05 237.85 288.95 239.35 291.35 239.75 292.9 240.0 293.95 239.55 294.45 239.15 295.0 237.85 295.05"/><path fill="#d93339" d="M254.45 295.95 Q255.35 293.1 257.9 289.55 260.9 285.35 263.0 285.3 265.4 285.25 270.15 292.55 275.0 300.0 276.5 306.45 277.15 309.25 273.85 308.0 271.7 307.15 264.5 303.9 L255.95 300.0 Q254.8 299.4 254.4 298.25 254.0 297.15 254.45 295.95"/><path fill="#d93339" d="M276.7 296.9 Q276.45 295.9 276.95 294.1 277.45 292.1 279.95 288.55 282.75 284.45 284.55 284.45 286.3 284.4 293.2 291.2 300.1 298.0 301.85 301.55 302.55 302.95 301.9 303.55 301.2 304.15 299.65 303.35 298.0 302.5 289.7 300.6 281.7 298.75 278.9 298.45 277.05 298.3 276.7 296.9"/><path fill="#0f141b" d="M119.1 63.0 Q121.05 63.0 121.25 69.2 121.35 71.55 120.75 73.4 120.1 75.35 119.1 75.4 118.2 75.45 117.55 73.65 117.0 71.9 116.9 69.2 116.85 66.85 117.5 64.95 118.15 63.0 119.1 63.0"/><path fill="#ffffff" d="M113.6 65.65 Q114.85 65.6 115.75 66.5 116.7 67.45 116.65 68.85 116.6 70.35 115.85 71.25 115.1 72.1 113.95 72.1 112.7 72.1 111.85 71.2 110.9 70.2 110.9 68.75 110.9 67.65 111.75 66.65 112.6 65.7 113.6 65.65"/><path fill="#48872d" d="M147.65 29.45 Q153.25 35.1 158.35 44.35 163.8 54.25 166.5 64.45 173.2 90.05 159.45 102.4 159.55 100.0 158.55 94.25 157.65 88.9 156.7 85.85 160.1 77.05 157.3 58.7 154.45 39.9 147.65 29.45"/><path fill="#98928f" d="M58.0 109.15 L60.15 113.0 Q50.4 115.25 32.45 118.1 31.9 116.45 32.1 114.2 L58.0 109.15"/><path fill="#b7282e" d="M32.45 118.1 L11.35 120.9 Q1.6 121.85 0.85 120.85 9.8 118.75 32.1 114.2 31.9 116.45 32.45 118.1"/><path fill="#48872d" d="M168.05 73.55 Q165.2 48.85 146.05 27.65 L148.9 22.35 151.05 17.65 Q151.3 16.9 151.95 16.75 152.6 16.55 152.9 17.05 164.6 35.1 170.7 64.15 176.0 89.4 173.65 100.25 171.05 112.25 151.3 129.65 143.6 136.45 136.3 141.25 129.15 145.9 126.4 146.05 120.1 146.3 114.7 143.5 109.35 140.7 105.65 135.4 L111.0 136.45 115.65 136.3 Q124.6 134.15 138.35 124.55 151.35 115.45 156.65 108.35 159.4 104.75 159.4 102.75 164.55 99.75 166.9 91.9 169.25 83.95 168.05 73.55"/><path fill="#48872d" d="M190.9 144.6 Q186.15 161.15 164.95 182.25 156.25 190.9 148.4 196.35 140.4 201.9 136.85 201.6 128.45 200.95 117.0 188.25 105.1 175.1 103.25 162.9 106.5 170.75 118.3 182.3 130.65 194.5 136.4 194.05 143.7 193.45 161.9 175.2 179.5 157.5 187.5 143.6 188.25 144.0 190.9 144.6"/><path fill="#48872d" d="M94.95 160.2 Q89.45 153.5 88.55 145.35 89.9 149.1 94.5 151.75 98.95 154.35 101.75 153.35 101.75 155.5 102.45 159.55 103.2 163.7 104.15 166.7 99.85 166.1 94.95 160.2"/><path fill="#48872d" d="M204.75 147.3 Q197.35 148.35 193.55 144.8 196.8 144.9 201.1 143.05 205.75 141.05 207.15 138.55 212.0 137.6 216.15 132.85 220.85 127.6 220.65 121.3 224.15 127.4 222.0 134.3 220.1 140.4 215.3 143.55 210.85 146.45 204.75 147.3"/><path fill="#48872d" d="M222.55 129.15 Q227.6 128.3 231.75 121.95 236.4 114.85 234.65 107.1 239.05 114.05 237.95 123.15 237.05 130.6 233.65 135.05 230.7 138.9 225.25 141.7 219.25 144.7 215.3 143.55 219.2 140.5 220.95 137.15 222.75 133.65 222.55 129.15"/><path fill="#48872d" d="M82.3 193.8 Q78.75 193.55 76.9 190.85 L81.6 190.65 Q84.15 189.9 86.25 188.2 89.9 185.3 95.45 179.1 101.6 172.2 104.45 167.35 104.75 168.95 105.7 171.5 106.6 174.05 107.35 175.35 104.75 178.45 97.85 184.65 90.85 190.9 88.3 192.35 85.35 194.0 82.3 193.8"/><path fill="#b7282e" d="M62.65 175.85 Q63.35 177.75 65.55 180.45 67.85 183.25 69.85 184.45 L65.95 184.65 Q64.15 182.6 62.9 179.8 61.35 176.55 62.65 175.85"/><path fill="#b7282e" d="M54.25 184.35 Q55.4 186.0 61.65 190.15 67.05 193.75 70.15 195.3 L70.55 198.6 Q69.45 197.55 65.3 194.95 L60.05 191.55 Q52.75 186.15 54.25 184.35"/><path fill="#b7282e" d="M85.25 193.7 Q83.2 195.65 79.5 202.6 L77.35 207.75 Q76.2 210.5 75.35 210.5 73.2 210.5 72.05 204.0 73.1 206.6 74.2 206.45 75.25 206.3 76.0 204.05 76.8 201.75 78.35 198.7 79.8 195.85 81.05 193.95 L85.25 193.7"/><path fill="#595a4f" d="M324.0 160.1 Q326.75 163.8 328.0 168.65 322.4 194.75 317.4 204.55 313.55 212.1 303.6 225.55 291.2 242.35 282.65 248.65 281.55 242.4 277.25 232.0 273.05 221.95 270.15 218.15 278.8 211.75 291.1 198.8 304.35 184.85 307.15 178.15 L317.45 154.65 Q321.2 156.35 324.0 160.1"/><path fill="#b7282e" d="M334.6 120.65 Q334.7 127.85 332.8 141.4 331.0 154.55 328.0 168.65 326.75 163.8 324.0 160.1 321.2 156.35 317.45 154.65 331.6 122.15 332.9 116.9 334.55 117.25 334.6 120.65"/><path fill="#595a4f" d="M85.9 282.4 L81.55 284.9 Q80.55 282.15 78.5 279.1 80.15 264.05 80.9 259.65 89.4 263.8 105.15 254.7 120.35 245.9 125.4 235.4 120.95 224.15 117.35 211.4 127.9 233.35 158.15 242.75 171.05 246.8 184.5 247.25 197.65 247.7 207.85 244.6 206.65 256.05 211.1 261.8 214.95 266.8 225.85 270.25 210.5 271.5 191.05 269.65 169.05 267.5 155.65 262.35 148.45 264.8 138.85 269.3 128.7 274.05 126.4 276.35 124.25 278.4 124.25 288.35 L121.6 285.9 Q120.05 284.6 119.5 284.6 119.0 284.6 117.4 285.95 116.15 286.95 115.1 288.0 114.1 289.0 113.45 290.25 112.6 291.85 113.35 292.35 L95.6 293.4 Q96.6 292.45 95.4 289.8 94.45 287.65 92.55 284.85 90.15 281.35 88.9 281.3 88.2 281.25 85.9 282.4"/><path fill="#595a4f" d="M257.55 290.45 Q253.8 295.5 253.8 298.15 247.7 296.05 239.9 294.55 240.0 292.45 238.05 289.3 236.1 286.2 234.55 285.8 235.9 278.4 234.55 276.4 233.4 274.65 229.0 272.15 224.45 269.55 219.8 268.05 213.9 266.1 210.6 261.25 207.15 256.1 207.65 249.15 208.35 240.3 210.4 233.8 212.5 227.2 216.3 222.2 219.2 233.75 228.5 243.55 237.05 252.55 248.3 257.45 259.5 262.25 268.7 261.05 278.65 259.7 282.75 251.55 L284.0 268.7 Q284.55 279.3 284.35 284.4 282.3 284.6 279.25 289.8 276.25 294.9 276.65 297.05 L273.3 298.3 Q271.35 294.15 268.3 290.05 264.85 285.4 263.15 285.4 261.25 285.4 257.55 290.45"/><path fill="#595a4f" d="M100.95 97.95 L120.95 96.4 Q121.4 97.4 123.25 98.1 L127.35 99.15 Q118.45 99.05 103.8 101.5 89.95 103.85 85.65 105.8 83.2 106.9 78.8 111.45 75.0 115.3 72.25 119.0 L69.7 116.35 76.05 108.55 Q80.35 103.75 84.05 101.65 87.9 99.5 100.95 97.95"/><path fill="#595a4f" d="M122.55 133.9 Q117.8 135.9 114.05 136.4 L106.55 135.9 Q102.4 134.8 96.2 132.55 89.05 129.95 86.45 128.4 99.25 132.2 107.65 131.65 113.25 131.25 118.8 128.4 128.45 123.45 140.3 114.3 156.5 101.8 158.55 93.55 160.2 103.1 159.15 105.15 156.2 111.05 143.35 120.9 131.1 130.35 122.55 133.9"/><path fill="#595a4f" d="M59.0 110.35 Q61.45 113.3 66.7 112.4 72.0 111.5 77.65 107.05 L72.55 112.9 68.3 118.1 Q67.35 119.2 66.35 119.1 65.45 119.0 64.25 117.9 61.4 115.25 59.0 110.35"/><path fill="#b7282e" d="M81.85 284.85 L72.65 291.35 64.3 291.75 Q58.25 292.15 57.6 291.6 L68.2 287.45 Q76.55 284.4 81.1 283.65 L81.85 284.85"/><path fill="#b7282e" d="M93.85 294.0 L75.5 297.0 Q65.45 298.85 65.25 298.4 70.7 295.45 79.9 292.0 87.85 289.0 94.1 287.25 96.1 290.95 96.1 292.0 96.1 293.75 93.85 294.0"/><path fill="#b7282e" d="M115.4 287.85 Q124.4 292.0 128.25 295.5 L121.4 294.65 114.75 293.0 Q112.55 291.95 113.4 290.25 L114.25 289.15 115.4 287.85"/><path fill="#b7282e" d="M222.25 296.4 Q225.25 294.6 230.25 292.6 235.2 290.55 238.35 289.9 239.8 291.95 239.75 293.45 239.75 295.05 237.9 295.05 L229.85 295.55 222.25 296.4"/><path fill="#b7282e" d="M257.55 290.8 Q262.8 294.75 267.6 299.15 273.0 304.1 276.15 308.2 274.9 308.7 266.55 305.05 260.35 302.35 255.45 299.8 253.35 298.65 254.1 296.55 254.45 295.55 255.45 293.85 L257.55 290.8"/><path fill="#b7282e" d="M279.2 290.1 Q293.85 296.85 301.9 303.45 L299.6 303.25 296.4 302.35 Q294.65 301.65 288.4 300.2 281.7 298.6 279.85 298.6 278.05 298.6 277.25 297.55 276.55 296.55 276.9 295.1 277.4 293.2 279.2 290.1"/><path fill="#b7282e" d="M155.65 247.35 Q153.7 244.15 152.0 240.6 160.0 243.7 168.8 245.4 171.75 248.1 171.6 248.8 171.35 250.05 165.95 251.05 L158.7 251.4 Q157.9 251.15 155.65 247.35"/><path fill="#0f141b" d="M138.95 49.3 Q144.2 54.95 149.1 64.0 160.65 85.3 160.3 103.3 160.2 109.25 142.7 122.6 124.85 136.25 114.35 137.5 106.15 138.5 90.9 131.85 74.9 124.9 69.2 116.85 L70.15 115.6 Q75.75 123.0 91.9 130.0 107.15 136.55 114.2 135.8 124.1 134.7 141.55 121.15 158.35 108.15 158.45 103.2 158.75 86.0 147.2 64.8 142.5 56.15 137.6 50.55 132.65 44.95 129.75 44.95 126.6 44.95 114.9 54.0 103.4 62.9 99.45 68.1 98.15 69.75 97.05 70.4 95.85 71.15 93.85 71.3 84.3 72.05 74.0 78.75 64.2 85.2 60.7 92.2 L59.35 92.25 Q57.4 90.3 55.65 87.4 53.65 84.1 52.9 81.1 L53.9 78.0 Q54.2 80.95 56.2 85.05 58.05 88.9 59.9 90.85 64.35 83.1 73.55 76.9 83.55 70.15 93.75 69.35 95.3 69.25 96.2 68.7 L98.0 66.9 Q102.6 60.9 113.45 52.5 125.2 43.4 129.6 43.45 133.5 43.45 138.95 49.3"/><path fill="#0f141b" d="M101.7 77.05 Q106.65 68.9 116.2 61.35 125.4 54.1 133.85 51.2 135.25 50.75 135.5 51.35 135.7 51.95 134.3 52.45 126.9 55.05 117.3 62.8 107.7 70.55 102.7 77.95 102.0 79.0 101.5 78.6 101.0 78.2 101.7 77.05"/><path fill="#0f141b" d="M117.9 83.2 Q127.65 84.65 134.35 79.6 139.95 75.4 138.7 65.9 137.55 57.15 132.55 52.65 L133.95 51.95 Q139.35 56.6 140.55 65.9 141.9 76.15 135.4 81.05 128.7 86.1 119.0 85.1 108.75 84.1 103.05 76.8 L104.0 75.4 Q108.3 81.75 117.9 83.2"/><path fill="#0f141b" d="M167.65 91.8 Q165.0 100.8 159.2 104.05 L159.4 101.7 Q163.6 98.6 165.75 90.35 167.6 83.05 167.1 75.35 165.65 51.3 144.95 27.85 136.35 18.05 126.35 10.95 116.8 4.1 108.85 1.75 107.6 1.35 107.4 2.7 L105.0 17.8 Q103.15 28.55 102.3 31.5 L101.25 34.25 99.85 35.85 96.65 36.25 Q99.45 34.9 100.4 31.15 101.5 26.65 103.2 16.6 L105.45 2.3 Q105.65 0.7 106.55 0.2 L109.1 0.25 Q118.1 2.9 128.3 10.25 138.65 17.65 147.5 27.85 168.15 51.65 169.3 75.3 169.8 84.3 167.65 91.8"/><path fill="#0f141b" d="M72.05 95.1 Q72.95 94.2 73.7 94.9 74.45 95.6 73.6 96.35 72.05 97.6 69.05 100.7 68.35 101.45 68.0 101.0 67.6 100.5 68.25 99.7 70.9 96.25 72.05 95.1"/><path fill="#0f141b" d="M54.45 101.0 L53.7 98.2 Q55.6 100.95 57.05 102.05 57.55 102.4 57.4 102.85 L56.55 102.9 Q55.35 102.2 54.45 101.0"/><path fill="#0f141b" d="M53.55 98.65 Q44.25 100.85 25.4 108.7 6.5 116.6 2.05 120.2 1.4 120.75 2.25 120.75 12.1 120.6 33.0 117.3 51.5 114.35 59.85 112.2 L60.85 113.9 Q53.35 115.9 33.95 118.85 12.4 122.1 2.25 122.25 0.5 122.3 0.1 121.25 -0.3 120.15 1.1 119.05 5.8 115.25 24.65 107.15 43.6 99.05 53.15 96.8 L53.55 98.65"/><path fill="#0f141b" d="M31.7 118.25 Q30.45 115.75 32.2 110.75 33.75 106.5 36.15 103.4 L38.1 102.8 Q35.5 105.8 33.8 110.85 32.05 116.2 33.4 117.95 L31.7 118.25"/><path fill="#0f141b" d="M189.85 45.1 Q210.25 69.15 213.2 89.35 L210.95 89.1 Q207.95 70.0 187.1 45.7 178.5 35.65 169.3 27.85 160.25 20.2 153.85 17.4 152.35 16.75 151.6 18.7 L146.9 28.5 145.65 27.1 149.85 17.85 Q151.1 14.7 154.45 16.0 162.05 19.15 171.6 27.0 181.15 34.85 189.85 45.1"/><path fill="#0f141b" d="M153.2 16.4 Q155.3 19.0 156.95 22.25 157.45 23.3 157.0 23.6 156.5 23.85 155.95 22.9 154.35 20.05 151.65 16.85 L153.2 16.4"/><path fill="#0f141b" d="M174.3 97.85 Q174.25 99.05 173.65 99.05 173.05 99.05 173.05 97.9 173.35 82.25 169.75 64.25 166.1 45.85 159.65 31.45 159.2 30.5 159.7 30.25 160.2 29.95 160.7 30.9 168.2 45.15 171.9 64.7 175.25 82.5 174.3 97.85"/><path fill="#0f141b" d="M173.9 102.4 Q170.6 113.65 155.0 128.0 139.85 141.9 126.9 146.45 125.95 146.75 125.65 146.3 125.35 145.8 126.45 145.35 138.3 140.55 153.45 126.55 169.0 112.25 172.8 102.05 173.1 101.2 173.65 101.35 174.15 101.5 173.9 102.4"/><path fill="#0f141b" d="M106.9 135.65 Q110.65 140.3 114.6 142.75 115.55 143.35 115.25 143.8 114.9 144.25 114.05 143.8 108.3 140.9 104.1 135.5 L106.9 135.65"/><path fill="#0f141b" d="M192.45 144.55 Q187.25 162.15 165.2 183.1 156.4 191.5 148.25 197.0 140.2 202.45 136.7 202.45 133.65 202.5 127.15 198.45 119.3 193.55 113.15 186.1 95.5 164.6 102.4 134.65 L104.35 135.1 Q97.95 163.8 115.05 184.75 120.85 191.85 128.35 196.7 134.35 200.6 136.7 200.6 139.65 200.6 147.25 195.25 154.95 189.8 163.45 181.65 184.9 160.95 190.1 144.35 L192.45 144.55"/><path fill="#0f141b" d="M92.6 131.25 Q87.05 140.25 91.2 151.45 95.1 162.0 103.95 166.2 L104.6 168.65 Q93.2 164.15 88.9 152.6 84.5 140.85 90.85 130.45 L92.6 131.25"/><path fill="#0f141b" d="M78.25 191.15 Q82.65 194.95 88.05 191.45 92.2 188.8 98.35 183.25 104.75 177.5 106.75 174.4 L108.15 176.5 Q105.05 180.7 98.7 185.9 93.9 189.8 88.9 193.0 85.7 195.05 82.35 194.9 79.15 194.75 76.85 192.65 71.45 187.85 74.95 179.35 84.3 156.8 88.9 147.8 L89.95 151.15 83.3 165.3 76.65 180.2 Q73.7 187.25 78.25 191.15"/><path fill="#0f141b" d="M75.0 182.15 L69.15 179.6 Q66.15 178.1 64.45 176.85 63.55 176.2 63.05 176.5 62.5 176.8 62.9 177.75 63.4 179.2 64.7 181.3 65.95 183.3 67.15 184.7 L64.95 184.8 Q62.55 181.8 61.25 178.25 60.3 175.75 61.7 174.85 63.1 173.95 65.3 175.45 67.1 176.65 69.95 178.05 73.0 179.55 75.45 180.35 L75.0 182.15"/><path fill="#0f141b" d="M55.85 186.85 Q57.65 188.6 61.15 191.1 L67.2 195.15 Q69.5 196.55 70.7 197.9 L71.05 200.9 Q70.6 199.9 69.15 198.6 67.85 197.4 66.45 196.6 63.5 194.95 60.3 192.7 56.6 190.15 54.6 188.15 52.1 185.75 52.9 184.2 53.65 182.8 56.3 183.2 L62.55 183.95 70.1 184.15 Q71.35 184.1 71.4 184.6 71.45 185.15 70.25 185.3 L62.5 185.55 56.1 185.05 Q53.65 184.65 55.85 186.85"/><path fill="#0f141b" d="M70.8 195.9 Q71.2 198.9 72.35 202.95 73.45 206.9 74.4 208.8 74.8 209.7 75.35 209.6 75.95 209.55 76.3 208.45 80.15 197.95 84.4 193.8 L87.2 193.2 Q84.0 195.4 81.2 201.0 79.75 203.85 77.85 209.05 77.0 211.5 75.4 211.6 73.85 211.65 72.9 209.65 72.0 207.75 71.0 203.55 70.1 199.65 69.7 196.2 69.6 195.3 70.1 195.15 70.65 195.0 70.8 195.9"/><path fill="#0f141b" d="M211.7 146.6 Q206.35 148.75 200.8 148.35 194.95 147.95 190.85 144.85 L193.9 144.2 Q197.95 146.45 202.9 146.35 207.6 146.25 211.9 144.1 221.55 139.2 221.35 129.8 221.1 120.1 213.75 114.7 206.15 109.1 196.2 112.3 L195.3 110.5 Q206.1 106.85 214.9 112.95 223.55 118.95 223.8 129.85 223.95 135.6 220.4 140.15 217.15 144.35 211.7 146.6"/><path fill="#0f141b" d="M225.75 94.2 Q237.0 102.7 239.15 114.9 241.6 129.2 232.55 138.25 224.3 146.55 213.45 144.9 L215.05 143.15 Q224.15 143.35 230.85 136.4 238.7 128.25 236.4 115.2 234.35 103.85 224.2 96.05 214.65 88.65 207.1 90.55 203.7 91.4 199.4 97.4 194.95 103.55 194.2 108.95 L192.8 106.55 Q194.05 101.1 198.3 95.3 202.7 89.3 206.6 88.3 215.1 86.1 225.75 94.2"/><path fill="#0f141b" d="M235.1 133.4 Q237.4 139.85 241.3 154.35 245.65 170.8 246.35 177.35 246.5 179.25 246.8 180.1 L248.4 182.55 Q260.55 196.65 271.9 218.1 282.75 238.6 284.0 248.6 284.8 255.25 285.15 267.15 285.45 277.25 285.25 284.35 L283.4 284.45 Q283.55 278.8 282.85 267.4 282.2 256.55 281.35 248.9 280.3 240.1 269.4 219.35 258.0 197.7 246.6 183.9 245.25 182.3 244.8 181.15 244.35 180.0 244.1 177.65 243.55 171.55 239.4 156.45 236.05 144.2 233.1 135.5 L235.1 133.4"/><path fill="#0f141b" d="M278.95 288.2 Q282.1 283.45 284.35 283.4 286.85 283.35 293.3 289.65 299.75 295.95 302.25 300.9 303.6 303.6 302.35 304.4 L299.35 304.3 Q296.1 302.95 289.6 301.45 283.75 300.05 278.2 299.2 276.65 299.0 275.95 297.75 275.25 296.55 275.65 294.8 276.2 292.35 278.95 288.2 M277.75 295.25 Q277.2 297.15 278.7 297.35 283.95 298.2 290.15 299.75 296.5 301.35 299.95 302.75 L301.2 302.85 Q301.5 302.55 301.05 301.7 298.6 297.4 292.2 291.3 286.05 285.55 284.35 285.4 283.2 285.35 280.65 289.4 278.25 293.2 277.75 295.25"/><path fill="#0f141b" d="M271.9 293.25 Q276.35 300.95 277.3 306.0 277.75 308.4 277.05 309.05 276.3 309.75 273.9 308.85 L263.9 304.7 254.7 300.4 Q253.55 299.85 253.05 298.85 252.6 297.85 252.85 296.75 253.65 293.55 257.2 289.0 260.9 284.2 263.0 284.3 266.75 284.45 271.9 293.25 M262.95 286.45 Q261.7 286.4 258.75 290.35 255.8 294.35 255.05 297.25 254.8 298.25 255.7 298.7 L264.7 303.15 Q271.1 306.15 274.45 307.4 L275.65 307.55 Q275.9 307.35 275.7 306.35 274.75 301.8 270.3 294.4 265.55 286.55 262.95 286.45"/><path fill="#0f141b" d="M272.95 297.25 L276.55 296.45 277.2 298.25 273.65 299.0 272.95 297.25"/><path fill="#0f141b" d="M222.35 294.75 Q224.2 292.0 227.95 288.9 232.25 285.3 234.9 285.15 236.45 285.05 238.7 288.4 240.85 291.55 241.05 293.6 241.15 294.8 240.45 295.5 239.8 296.1 238.8 296.1 L231.85 296.35 224.1 296.9 221.9 296.75 Q221.35 296.25 222.35 294.75 M231.9 294.6 L238.5 294.2 238.85 294.1 239.0 293.7 Q238.9 292.35 237.3 289.7 235.65 287.1 234.95 287.05 233.35 286.9 229.15 290.15 225.25 293.15 223.95 295.05 L223.9 295.35 Q224.0 295.5 224.2 295.45 L231.9 294.6"/><path fill="#0f141b" d="M240.05 293.6 Q243.4 293.95 247.6 295.2 251.6 296.4 254.05 297.7 L255.0 300.25 Q253.1 299.05 247.9 297.5 243.25 296.1 239.6 295.45 L240.05 293.6"/><path fill="#0f141b" d="M210.25 237.65 Q208.45 245.8 209.25 254.45 210.05 263.3 221.2 267.35 225.9 269.05 229.85 271.4 233.8 273.75 235.1 275.6 236.1 276.95 236.1 280.3 236.1 283.35 235.4 285.85 L233.0 285.85 Q233.85 283.35 234.0 280.35 234.1 277.5 233.45 276.65 232.15 274.95 228.4 272.8 224.55 270.65 220.4 269.35 214.2 267.45 210.65 263.6 207.25 259.85 206.75 254.8 205.85 245.45 208.4 236.5 210.75 228.1 215.3 222.7 216.2 221.65 216.6 221.9 216.95 222.2 216.2 223.35 212.1 229.6 210.25 237.65"/><path fill="#0f141b" d="M172.15 174.05 Q182.55 170.95 206.45 164.3 L240.2 155.15 240.85 157.55 204.3 167.25 Q177.75 174.4 170.0 176.8 L172.15 174.05"/><path fill="#0f141b" d="M245.85 180.15 Q254.35 180.0 268.9 175.6 283.25 171.25 288.75 167.25 289.9 166.4 290.25 166.75 290.65 167.1 289.55 168.05 284.6 172.5 270.45 177.4 256.25 182.35 247.1 182.7 L245.85 180.15"/><path fill="#0f141b" d="M335.25 119.55 Q335.55 136.05 330.2 163.75 324.8 191.7 318.65 204.75 313.95 214.7 302.15 230.1 289.8 246.15 282.95 250.5 L282.55 247.3 Q289.15 242.85 300.75 227.7 311.9 213.05 316.35 203.6 322.35 190.85 328.1 162.55 333.75 134.9 333.75 119.55 333.75 118.25 332.95 117.95 332.1 117.6 330.45 118.7 325.05 122.3 310.95 138.95 297.65 154.65 287.45 169.0 L283.25 171.2 Q294.1 155.25 307.85 139.2 321.95 122.75 329.6 117.45 332.05 115.75 333.6 116.25 335.2 116.8 335.25 119.55"/><path fill="#0f141b" d="M327.1 171.15 Q326.7 165.1 323.15 160.65 319.85 156.5 314.6 154.75 309.4 153.0 303.9 154.1 298.1 155.25 293.55 159.3 L296.45 155.6 Q305.8 149.35 316.0 152.95 326.65 156.75 328.2 168.35 L327.1 171.15"/><path fill="#0f141b" d="M113.9 184.65 Q115.3 198.1 118.85 212.6 123.1 229.7 128.6 240.0 129.15 241.05 128.7 241.3 128.3 241.6 127.7 240.7 121.7 231.6 116.55 211.85 112.0 194.45 111.05 181.75 L113.9 184.65"/><path fill="#0f141b" d="M133.1 246.85 Q144.5 260.85 175.7 266.5 199.65 270.85 223.4 269.15 L227.65 271.65 Q203.6 273.65 178.35 269.5 143.0 263.7 132.3 247.6 131.75 246.8 132.1 246.45 132.45 246.1 133.1 246.85"/><path fill="#0f141b" d="M94.3 295.1 Q76.1 297.6 66.8 299.55 64.6 300.0 64.3 299.0 64.0 298.05 65.25 296.65 69.2 292.5 78.0 286.35 86.8 280.25 88.95 280.15 90.5 280.1 93.3 284.3 95.65 287.85 96.75 290.7 97.35 292.45 96.75 293.6 96.15 294.85 94.3 295.1 M88.8 282.2 Q87.4 282.25 79.2 287.8 70.65 293.6 66.85 297.4 L66.7 297.8 67.05 297.85 Q72.15 296.7 81.35 295.1 L93.95 293.05 Q95.4 292.85 94.7 291.25 93.95 289.15 91.7 285.7 89.45 282.2 88.8 282.2"/><path fill="#0f141b" d="M116.65 287.6 Q114.85 289.45 114.05 290.95 113.85 291.3 114.0 291.6 L114.55 292.05 121.2 293.7 126.8 294.9 127.4 294.75 Q127.55 294.55 127.3 294.1 126.3 292.1 123.35 288.85 120.4 285.65 119.55 285.6 118.6 285.55 116.65 287.6 M115.35 286.25 Q118.05 283.45 119.75 283.45 121.15 283.45 124.7 287.6 127.8 291.25 128.9 293.35 130.95 297.2 126.45 296.5 L120.5 295.35 113.5 293.7 Q112.4 293.35 112.1 292.25 111.75 291.15 112.35 290.0 113.2 288.45 115.35 286.25"/><path fill="#0f141b" d="M113.65 293.45 L103.25 293.9 94.1 294.85 95.7 292.8 112.6 291.5 113.65 293.45"/><path fill="#0f141b" d="M157.0 262.9 Q150.05 265.4 139.85 270.15 129.7 274.9 127.6 276.6 126.5 277.55 125.9 281.0 125.2 284.7 125.4 289.55 L123.25 287.55 Q122.95 276.95 125.65 274.7 127.8 272.9 137.8 268.5 147.3 264.35 154.55 261.85 L157.0 262.9"/><path fill="#0f141b" d="M58.85 291.35 L74.25 290.35 71.95 292.2 58.5 292.8 Q56.75 292.8 56.45 292.0 56.15 291.2 57.55 289.95 60.4 287.3 68.0 282.95 75.85 278.45 78.0 278.4 79.05 278.35 80.65 280.65 82.1 282.8 82.65 284.8 L80.75 285.7 79.4 282.4 Q78.45 280.5 77.9 280.35 76.65 280.1 68.95 284.4 61.5 288.6 58.75 290.85 58.45 291.1 58.5 291.25 58.5 291.4 58.85 291.35"/><path fill="#0f141b" d="M97.8 231.15 Q85.95 244.75 84.45 248.3 82.5 253.1 79.25 279.95 L77.25 279.25 Q79.95 252.2 82.0 247.25 83.75 243.1 96.1 229.15 107.95 215.75 116.75 207.65 L117.4 209.9 Q108.6 218.75 97.8 231.15"/><path fill="#0f141b" d="M148.75 195.0 Q150.65 197.4 152.75 201.7 154.9 206.2 154.85 207.8 154.8 209.9 149.4 216.9 144.2 223.6 141.65 225.4 140.65 226.1 138.35 226.2 136.1 226.3 135.2 225.65 132.4 223.75 126.0 216.7 118.75 208.7 118.6 206.05 118.55 204.55 121.05 192.6 L122.6 194.05 Q121.95 197.15 121.4 201.0 120.75 205.05 120.8 206.0 120.9 208.05 127.4 215.5 133.4 222.35 135.95 224.15 L138.25 224.45 Q140.15 224.4 140.8 223.95 142.95 222.55 147.9 215.9 152.8 209.3 152.85 207.75 152.9 206.45 151.0 202.35 149.1 198.2 147.4 196.05 L148.75 195.0"/><path fill="#0f141b" d="M170.9 208.75 Q174.8 207.1 180.8 213.1 186.9 219.15 186.75 224.95 186.7 227.05 183.45 229.75 180.4 232.3 178.45 232.35 176.45 232.4 172.4 225.85 168.55 219.65 168.2 216.95 167.9 215.15 168.8 212.25 169.7 209.25 170.9 208.75 M169.85 216.8 Q170.1 218.75 173.65 224.25 177.2 229.75 178.5 230.05 179.65 230.3 182.4 228.2 185.15 226.1 185.2 224.85 185.3 220.05 179.5 214.5 174.0 209.25 171.65 210.25 171.1 210.6 170.4 212.85 169.65 215.3 169.85 216.8"/><path fill="#0f141b" d="M153.3 233.75 Q155.55 233.9 164.1 240.2 172.9 246.75 172.6 248.9 172.3 251.25 165.9 252.3 159.7 253.3 157.85 251.85 156.4 250.7 152.85 244.6 149.2 238.35 149.55 237.3 149.85 236.4 151.0 235.15 152.3 233.7 153.3 233.75 M154.35 243.8 Q157.7 249.3 159.05 250.4 160.15 251.3 165.4 250.45 170.6 249.55 170.7 248.6 170.8 247.35 162.75 241.55 154.8 235.8 153.15 235.7 152.85 235.65 152.1 236.4 151.35 237.1 151.25 237.5 151.05 238.3 154.35 243.8"/><path fill="#0f141b" d="M106.6 17.95 Q107.2 18.0 107.1 20.2 106.95 26.8 106.0 31.9 105.55 34.3 104.55 35.4 103.5 36.65 101.5 36.8 82.05 38.4 67.25 55.0 52.45 71.65 53.15 91.15 53.35 97.6 57.0 105.25 60.35 112.5 65.2 117.7 65.75 118.25 66.45 118.25 67.15 118.25 67.7 117.6 74.55 109.3 77.55 105.95 81.4 101.7 83.05 100.95 87.6 98.75 100.7 97.0 112.7 95.4 120.7 95.5 L120.9 97.15 Q113.75 97.05 101.35 98.9 88.2 100.8 84.05 102.85 80.65 104.5 68.95 118.6 67.8 120.0 66.5 120.05 65.25 120.1 64.05 118.95 59.15 114.3 55.35 106.3 51.4 98.0 51.15 91.25 50.45 71.65 64.15 54.85 78.95 36.75 101.35 34.95 102.5 34.9 103.1 34.1 103.7 33.4 104.1 31.6 L105.15 26.0 105.8 20.05 Q106.0 17.9 106.6 17.95"/><path fill="#0f141b" d="M119.6 82.2 Q126.25 82.3 127.9 72.65 129.55 63.15 124.4 56.9 L125.45 56.1 Q131.25 63.15 129.4 73.2 127.5 83.35 119.75 83.65 115.5 83.8 112.1 78.95 108.7 74.1 109.4 69.15 L110.65 68.0 Q109.75 72.85 112.95 77.6 116.0 82.1 119.6 82.2"/><path fill="#c0b9b5" d="M190.5 66.9 L193.05 66.3 Q204.2 67.25 214.5 69.3 227.5 71.85 236.75 75.8 213.3 84.4 193.8 90.05 169.85 96.95 154.85 98.5 135.95 100.5 126.95 99.15 120.7 98.2 120.65 96.1 120.5 91.95 147.4 81.2 172.25 71.3 190.5 66.9"/><path fill="#d93339" d="M282.45 57.3 Q278.25 59.45 266.2 64.4 252.2 70.15 236.75 75.8 227.5 71.85 214.5 69.3 204.2 67.25 193.05 66.3 214.6 61.25 233.65 58.05 262.7 53.2 280.25 53.65 283.5 53.75 283.95 55.1 284.4 56.35 282.45 57.3"/><path fill="#d93339" d="M183.1 98.75 Q183.1 95.85 185.0 95.3 186.85 94.75 187.85 97.05 189.55 100.85 192.8 106.4 196.1 112.0 198.25 114.7 199.8 116.55 201.9 116.85 203.85 117.05 206.45 116.0 209.6 114.65 217.15 110.6 219.4 109.4 220.25 110.8 221.0 112.0 220.25 113.9 L214.8 125.25 Q210.4 133.95 208.3 137.35 205.4 142.05 197.6 143.95 189.95 145.8 185.95 143.2 L177.75 138.8 169.3 134.75 Q167.0 133.7 167.35 132.35 167.6 131.2 169.15 130.5 170.35 129.9 174.0 129.2 L180.7 128.2 Q182.25 125.65 183.0 122.15 183.65 119.05 183.45 116.55 183.1 111.3 183.1 98.75"/><path fill="#98928f" d="M229.2 72.85 L237.8 75.5 Q209.5 85.8 185.0 92.15 157.6 99.2 140.15 99.85 121.75 100.5 120.4 95.55 130.55 97.6 164.6 90.0 192.5 83.75 229.2 72.85"/><path fill="#b7282e" d="M283.15 56.5 Q282.3 57.45 280.9 58.05 260.65 67.2 237.8 75.5 L229.2 72.85 Q248.15 67.2 263.4 62.15 278.35 57.15 283.9 54.65 284.1 55.5 283.15 56.5"/><path fill="#b7282e" d="M208.35 137.0 Q204.85 142.35 196.9 143.95 189.9 145.4 186.35 143.3 184.05 141.95 177.85 138.9 L169.75 135.05 Q168.25 134.45 167.8 133.75 167.2 132.8 167.95 131.35 168.6 132.55 172.35 133.75 L180.55 136.25 Q186.9 138.2 189.05 139.2 191.85 140.5 197.25 138.7 202.55 137.0 204.95 134.25 208.9 129.7 213.7 122.55 219.0 114.6 220.3 110.65 221.6 111.45 216.35 122.3 211.75 131.8 208.35 137.0"/><path fill="#0f141b" d="M281.0 54.65 Q246.4 54.4 197.3 66.5 147.25 78.85 122.9 94.2 119.75 96.2 123.25 97.35 126.2 98.3 131.45 98.7 136.4 99.1 141.15 98.85 169.85 97.35 214.0 82.8 244.5 72.8 281.45 56.8 282.9 56.15 282.75 55.4 282.55 54.65 281.0 54.65 M282.1 58.4 Q192.1 98.3 141.3 100.7 129.3 101.25 122.7 98.85 119.75 97.75 119.6 96.15 119.4 94.5 122.0 92.75 145.45 77.15 192.9 65.05 241.4 52.65 281.0 52.85 284.8 52.85 284.95 55.0 285.1 57.1 282.1 58.4"/><path fill="#0f141b" d="M195.25 65.9 Q204.45 66.4 217.2 69.1 229.05 71.65 238.3 74.8 L235.15 75.65 Q226.7 73.0 213.35 70.3 198.95 67.4 191.75 67.2 L195.25 65.9"/><path fill="#0f141b" d="M183.75 98.35 Q183.55 103.7 184.2 117.4 184.55 122.8 181.75 127.65 L183.9 127.6 183.95 127.6 Q185.15 127.6 185.15 128.15 185.15 128.7 183.95 128.75 L176.1 129.65 170.2 130.85 Q168.35 131.4 168.3 132.55 168.25 133.65 169.7 134.25 173.4 135.75 178.1 137.95 182.8 140.25 185.7 141.95 190.55 144.75 197.55 142.9 204.0 141.2 206.35 137.65 208.0 135.15 213.25 125.65 218.8 115.6 219.55 113.5 220.15 111.7 219.45 111.1 218.8 110.55 217.4 111.3 210.1 115.45 206.25 117.3 203.9 118.4 201.55 118.0 199.35 117.65 197.6 116.0 194.25 112.8 187.2 97.35 186.55 95.8 185.2 96.05 183.85 96.35 183.75 98.35 M188.6 96.75 Q189.7 99.3 193.0 104.95 197.2 112.2 199.55 114.45 201.05 115.85 202.3 116.05 203.6 116.2 205.65 115.2 L216.85 109.7 Q219.65 108.2 220.95 109.45 222.3 110.75 221.1 114.1 220.3 116.35 215.0 126.7 209.8 136.9 208.6 138.7 205.55 143.4 198.2 145.15 190.4 147.05 184.75 143.45 179.5 140.15 168.75 135.9 165.95 134.8 166.25 132.35 166.55 129.9 169.6 129.0 172.85 128.0 179.3 127.75 181.75 123.1 181.8 117.45 L182.2 98.3 Q182.4 94.6 184.85 94.2 187.3 93.75 188.6 96.75"/></g></svg>