<?xml version='1.0' encoding='utf-8'?>
<svg xmlns="http://www.w3.org/2000/svg" version="1.1" width="141px" height="192px" viewBox="-0.85 -3.95 141.15 192.25"><g><path fill="#9ed8f5" d="M6.8 92.35 Q4.75 87.4 6.1 85.4 8.9 81.3 23.05 86.45 36.25 91.3 45.2 98.3 46.65 109.55 54.2 116.95 61.6 124.1 71.5 124.5 81.1 124.9 88.25 119.6 95.15 114.45 97.8 105.5 100.2 108.95 104.35 111.8 108.05 114.25 110.35 114.6 112.4 137.45 100.1 150.45 87.55 163.75 65.05 161.15 43.8 158.75 34.9 144.7 31.1 138.75 30.65 131.95 30.25 125.3 33.1 119.6 23.1 115.75 13.05 102.6 8.75 97.0 6.8 92.35"/><path fill="#9ed8f5" d="M136.8 95.4 Q135.75 99.45 132.7 104.0 124.8 115.9 110.5 121.65 L110.35 114.6 113.7 94.05 Q120.05 90.95 126.7 89.55 134.4 88.0 136.55 90.3 137.75 91.6 136.8 95.4"/><path fill="#36a0da" d="M110.9 9.75 Q124.4 18.6 131.45 34.55 137.65 48.6 132.75 65.4 127.45 83.35 112.1 93.05 119.1 97.65 120.8 103.05 122.55 108.7 117.4 112.65 112.6 116.4 106.65 113.5 101.85 111.15 97.8 105.5 94.95 115.15 87.1 120.35 79.55 125.3 70.2 124.4 60.7 123.5 54.05 116.9 47.05 110.0 45.15 98.6 41.95 95.85 36.85 93.15 39.55 91.2 43.25 90.65 34.7 83.75 30.1 71.45 26.85 62.85 26.2 54.0 25.7 47.45 28.05 39.45 30.55 30.85 35.7 23.35 48.4 4.8 70.05 1.8 93.8 -1.45 110.9 9.75"/><path fill="#ffffff" d="M94.1 68.3 L114.85 53.9 Q114.2 35.35 118.15 28.0 121.25 22.15 126.4 24.2 138.05 41.35 133.5 62.05 129.3 80.85 115.5 90.65 98.95 102.4 78.9 99.0 60.7 95.85 49.6 82.8 42.15 74.0 40.85 60.15 39.35 44.45 49.15 37.6 61.25 29.15 76.0 41.9 88.4 52.6 94.1 68.3"/><path fill="#ffffff" d="M66.95 123.9 L76.25 124.25 Q81.85 123.65 84.55 121.9 88.25 125.5 87.35 132.0 86.3 139.2 79.45 140.7 71.1 142.55 67.3 136.25 63.7 130.35 66.95 123.9"/><path fill="#ffffff" d="M110.2 116.0 Q110.85 120.15 110.6 125.45 110.3 131.3 108.95 135.25 104.55 131.65 105.2 125.25 105.8 119.15 110.2 116.0"/><path fill="#9ed8f5" d="M116.5 31.6 Q114.9 36.1 114.4 43.3 114.0 50.0 114.7 54.45 L93.9 68.2 Q91.55 61.95 87.25 55.05 83.1 48.4 78.8 43.85 L85.8 44.15 92.55 44.7 95.15 36.4 Q96.95 30.6 97.85 28.5 L103.85 33.45 Q108.05 37.15 110.15 39.45 L116.5 31.6"/><path fill="#36a0da" d="M21.45 111.85 Q28.05 117.5 33.1 119.6 30.75 124.35 30.65 131.7 19.45 130.0 14.45 127.0 9.4 123.95 9.8 119.1 4.6 114.9 2.2 109.5 0.2 105.0 1.25 103.5 L5.1 103.35 Q7.95 104.15 11.4 106.1 9.8 102.7 10.2 98.8 13.9 105.35 21.45 111.85"/><path fill="#fcd25b" d="M118.5 64.25 Q117.4 59.8 113.35 59.6 110.35 59.45 106.35 61.5 103.1 63.15 101.0 66.1 98.65 69.35 96.5 75.65 92.4 67.95 96.25 59.65 99.85 51.75 106.4 50.8 112.4 49.95 116.25 54.55 119.95 59.0 118.5 64.25"/><path fill="#fcd25b" d="M117.75 73.5 Q115.55 83.0 107.15 82.4 103.65 82.1 100.5 80.05 97.4 78.0 96.25 75.35 L97.15 73.8 Q103.8 80.2 111.05 78.55 113.95 77.9 115.9 76.1 117.25 74.85 117.75 73.5"/><path fill="#fcd25b" d="M38.25 181.45 Q36.05 177.4 35.15 171.2 33.25 157.2 38.5 149.1 41.25 152.15 46.3 155.0 50.05 157.1 53.9 158.5 54.65 165.15 52.55 174.7 49.85 186.85 44.1 186.2 40.7 185.8 38.25 181.45"/><path fill="#fcd25b" d="M93.75 155.6 Q98.95 161.55 100.25 170.35 101.55 179.4 96.8 181.0 92.0 182.6 85.7 175.4 79.55 168.4 78.4 160.8 81.75 160.5 86.65 158.75 91.15 157.2 93.75 155.6"/><path fill="#ed8599" d="M97.0 73.8 Q100.45 69.5 107.8 67.6 115.95 65.45 117.65 71.1 118.5 74.0 116.45 76.1 114.55 78.05 110.95 78.6 102.35 79.95 97.0 73.8"/><path fill="#d9b64f" d="M96.95 58.5 Q97.65 60.7 99.55 62.2 101.35 63.6 103.4 63.85 97.5 68.8 97.05 76.2 94.95 73.85 94.75 68.75 94.5 63.2 96.95 58.5"/><path fill="#d9b64f" d="M97.2 74.05 Q101.25 77.7 106.25 78.65 113.1 79.95 117.5 74.5 116.8 77.55 114.25 79.85 111.45 82.4 107.85 82.35 103.7 82.25 100.6 80.15 97.2 77.8 97.2 74.05"/><path fill="#922f00" d="M97.2 73.25 Q99.35 65.0 107.8 60.7 111.2 59.0 114.05 59.6 117.6 60.25 118.6 64.3 L116.55 69.1 Q108.8 63.75 97.2 73.25"/><path fill="#ce7486" d="M116.25 68.8 Q111.55 68.7 107.2 70.9 102.55 73.15 101.15 76.65 98.8 75.6 97.0 73.85 100.4 69.8 106.1 68.05 112.25 66.15 116.25 68.8"/><path fill="#2e8bbe" d="M55.3 117.85 Q45.3 109.55 45.3 96.45 47.35 103.65 52.85 109.2 58.4 114.85 65.7 117.0 83.05 122.05 97.45 106.0 96.45 113.25 88.8 118.95 81.4 124.4 73.25 124.65 63.85 124.95 55.3 117.85"/><path fill="#2e8bbe" d="M98.05 105.5 Q103.5 110.65 110.8 109.4 118.5 108.0 119.5 100.2 122.45 105.05 120.35 109.5 118.4 113.55 114.0 114.3 109.75 115.05 105.55 112.85 101.0 110.5 98.05 105.5"/><path fill="#2e8bbe" d="M1.1 103.65 Q3.3 107.6 5.8 110.2 8.1 112.6 11.3 114.45 10.15 116.95 9.9 118.8 7.0 117.7 3.65 112.1 0.2 106.4 1.1 103.65"/><path fill="#2e8bbe" d="M11.0 114.9 Q11.2 120.15 15.8 123.7 20.8 127.55 30.55 129.15 L30.55 131.65 Q19.6 129.9 15.25 127.45 7.6 123.2 11.0 114.9"/><path fill="#88bbd5" d="M16.45 106.55 Q3.5 92.9 6.3 84.95 9.25 93.65 18.4 102.6 28.2 112.2 40.0 116.8 42.75 117.85 42.35 120.35 41.9 122.85 38.95 122.05 28.75 119.45 16.45 106.55"/><path fill="#88bbd5" d="M136.3 90.45 Q138.25 92.45 136.45 97.15 134.8 101.5 130.55 106.7 120.6 118.85 110.5 121.35 L110.4 117.7 110.0 114.45 Q114.5 115.15 117.9 112.4 120.65 110.15 121.4 107.05 125.95 104.6 129.8 100.4 133.8 95.95 136.3 90.45"/><path fill="#88bbd5" d="M32.45 120.7 Q31.85 134.1 41.4 143.5 50.35 152.3 64.55 154.4 89.95 158.1 107.95 137.6 103.65 149.05 94.5 155.2 83.8 162.35 68.0 161.1 49.45 159.7 38.65 149.2 26.6 137.45 32.45 120.7"/><path fill="#d9b64f" d="M35.4 155.8 Q36.6 152.25 38.65 149.35 40.9 151.6 46.0 154.55 50.85 157.35 53.75 158.3 54.15 161.4 53.9 165.3 53.65 169.45 52.85 171.65 50.3 164.45 45.05 160.05 40.35 156.15 35.4 155.8"/><path fill="#d9b64f" d="M96.15 159.45 Q92.2 160.25 88.3 163.75 84.15 167.45 82.8 171.95 79.2 167.25 78.3 160.85 88.5 158.9 93.7 155.6 95.0 157.25 96.15 159.45"/><path fill="#0d131a" d="M124.9 39.1 Q126.85 39.0 128.15 42.35 129.5 45.8 129.8 51.9 130.1 57.65 128.8 61.55 127.6 65.05 125.95 65.1 124.2 65.15 122.8 61.8 121.3 58.3 120.85 52.65 120.4 46.6 121.9 42.6 123.2 39.2 124.9 39.1"/><path fill="#ffffff" d="M127.25 45.0 Q127.4 47.2 126.85 48.55 126.35 49.85 125.4 49.85 124.55 49.9 123.95 48.7 123.25 47.4 123.2 45.25 123.15 43.35 123.75 42.1 124.25 40.95 125.05 40.85 125.85 40.8 126.5 42.0 127.15 43.2 127.25 45.0"/><path fill="#0d131a" d="M63.55 52.45 Q67.0 51.25 70.65 54.35 74.3 57.5 76.35 63.5 78.25 69.0 77.25 74.05 76.25 79.0 73.15 80.15 70.1 81.35 66.2 78.35 62.05 75.2 60.05 69.55 57.9 63.4 59.1 58.35 60.25 53.6 63.55 52.45"/><path fill="#ffffff" d="M64.15 53.95 Q65.8 53.35 67.5 54.75 69.15 56.05 69.9 58.35 70.65 60.55 70.1 62.6 69.55 64.65 68.0 65.15 66.45 65.65 64.75 64.45 63.1 63.2 62.35 61.15 61.4 58.65 62.05 56.5 62.65 54.5 64.15 53.95"/><path fill="#0d131a" d="M11.65 115.15 Q10.4 117.95 10.75 120.5 11.05 123.1 12.8 124.65 15.05 126.6 20.5 128.55 26.2 130.6 31.0 130.9 L30.95 132.4 Q25.8 132.3 20.05 130.5 14.3 128.65 11.6 126.3 9.4 124.4 9.0 121.2 8.5 117.65 10.65 114.7 11.35 113.8 11.7 113.95 12.1 114.1 11.65 115.15"/><path fill="#0d131a" d="M10.85 100.45 Q10.7 102.9 12.0 105.55 12.4 106.3 12.05 106.7 L11.0 106.65 Q7.4 104.7 4.7 104.0 L1.7 104.1 Q0.95 105.35 3.05 109.45 5.5 114.2 10.15 118.35 L10.2 120.85 Q4.95 116.85 1.9 110.55 -0.85 105.0 0.25 103.15 1.0 101.85 3.75 102.35 6.45 102.85 10.25 104.85 9.1 102.55 9.4 98.2 L10.85 100.45"/><path fill="#0d131a" d="M94.3 67.75 L94.5 72.9 Q88.8 55.2 76.1 43.55 61.35 30.0 49.25 38.9 42.3 44.05 41.55 54.95 40.75 65.75 46.35 76.75 53.75 91.3 71.9 96.6 88.9 101.55 104.35 95.9 122.5 89.25 130.0 70.2 137.3 51.8 130.15 34.15 123.1 16.7 105.15 7.8 85.9 -1.8 64.7 4.55 45.45 10.3 35.35 25.85 25.2 41.35 28.15 60.4 29.9 71.9 36.25 81.1 42.7 90.55 52.55 95.5 53.75 96.1 53.55 96.5 L52.1 96.45 Q41.55 92.55 34.4 82.45 27.65 72.95 25.8 60.85 22.75 41.1 33.15 24.75 43.8 8.0 63.95 2.35 86.6 -3.95 106.65 6.1 125.25 15.4 132.5 33.45 140.3 52.7 131.7 72.0 123.25 90.9 104.9 97.55 88.7 103.5 70.85 98.3 51.85 92.75 44.25 77.8 38.4 66.35 39.4 54.75 40.35 42.85 48.0 37.25 59.85 28.6 74.3 39.3 87.55 49.15 94.3 67.75"/><path fill="#0d131a" d="M125.4 23.55 L126.6 25.8 Q125.75 25.0 124.4 24.9 L122.15 25.15 Q118.6 26.65 116.6 35.1 114.55 43.65 115.5 53.6 115.55 54.2 114.7 53.6 113.9 53.0 113.9 52.55 113.0 41.85 114.85 33.95 116.8 25.8 121.05 23.55 121.9 23.1 123.35 23.1 124.75 23.1 125.4 23.55"/><path fill="#0d131a" d="M84.65 43.1 L92.0 44.0 94.45 35.45 Q96.05 30.1 96.75 28.5 97.55 26.6 99.15 27.9 104.3 32.0 110.05 38.35 L116.75 29.9 116.05 33.35 Q113.0 36.75 110.85 39.8 110.15 40.9 109.25 39.95 105.25 35.7 98.25 29.65 L95.9 36.9 93.35 45.0 92.9 45.65 92.1 45.7 79.35 44.75 77.4 42.5 84.65 43.1"/><path fill="#0d131a" d="M116.0 55.75 Q114.35 53.4 111.65 52.3 109.0 51.2 106.05 51.7 100.45 52.6 97.3 59.55 93.95 66.95 97.15 74.25 98.45 77.25 101.3 79.35 103.95 81.35 106.7 81.6 109.65 81.95 112.65 80.1 115.55 78.35 115.95 76.25 L118.45 72.55 Q118.25 77.35 115.05 80.25 111.7 83.3 106.45 82.95 103.05 82.7 99.95 80.65 96.75 78.5 95.35 75.25 91.95 67.45 95.7 59.3 99.35 51.4 106.0 50.25 109.4 49.65 112.5 50.85 115.6 52.1 117.45 54.75 119.6 57.8 119.6 61.6 119.65 65.7 117.1 69.35 L115.9 68.55 Q117.8 65.2 117.85 61.8 117.85 58.4 116.0 55.75"/><path fill="#0d131a" d="M116.95 73.05 Q117.35 70.8 115.75 69.4 112.95 66.95 107.3 68.45 101.9 69.9 97.95 73.7 101.05 76.55 105.35 77.6 109.65 78.6 112.85 77.25 116.45 75.75 116.95 73.05 M116.2 61.65 Q114.65 60.25 112.2 60.45 108.4 60.7 104.25 63.95 100.25 67.1 98.6 71.5 102.9 67.8 108.25 66.75 113.9 65.7 116.75 68.2 118.95 70.15 118.4 73.25 117.75 76.85 113.25 78.75 109.7 80.25 105.05 79.2 100.35 78.1 97.05 74.95 96.4 74.3 96.55 73.5 97.9 67.25 103.1 62.95 107.6 59.2 112.2 58.8 114.7 58.6 116.5 59.8 118.1 60.9 118.55 62.7 L117.75 65.3 Q117.7 63.0 116.2 61.65"/><path fill="#0d131a" d="M30.1 90.55 Q17.55 84.35 10.1 84.6 5.05 84.75 7.1 90.5 9.95 98.65 17.75 107.0 27.4 117.3 39.35 121.2 40.65 121.6 40.5 122.05 L39.0 122.2 Q27.0 119.4 17.25 109.55 8.75 100.9 5.6 91.05 4.3 87.0 5.35 85.1 6.35 83.35 9.65 83.0 17.5 82.2 29.2 87.7 37.25 91.45 45.05 97.1 L45.6 99.85 Q39.4 95.15 30.1 90.55"/><path fill="#0d131a" d="M14.85 106.0 L15.9 106.85 15.05 108.7 Q14.85 109.2 14.4 109.05 13.95 108.9 14.05 108.4 14.25 107.2 14.85 106.0"/><path fill="#0d131a" d="M111.55 93.65 L112.95 92.8 Q119.55 96.55 121.55 102.3 123.45 107.8 120.25 111.6 116.0 116.65 109.4 115.3 102.65 113.9 98.1 106.75 95.65 114.8 89.8 119.6 83.85 124.5 75.0 125.4 63.25 126.6 54.1 118.3 44.65 109.75 44.75 96.7 44.75 95.6 45.25 95.55 45.75 95.55 45.8 96.65 46.3 107.75 54.55 115.9 63.25 124.45 74.75 123.3 83.45 122.4 88.9 118.0 94.1 113.75 96.85 105.9 97.7 103.65 98.95 105.65 103.15 111.85 109.15 113.3 115.2 114.75 118.8 110.25 121.7 106.75 119.1 101.35 116.6 96.25 111.55 93.65"/><path fill="#0d131a" d="M114.5 94.8 L113.4 93.1 Q122.2 88.4 131.65 88.25 136.3 88.15 137.7 90.2 139.15 92.35 137.3 97.25 134.7 104.2 129.2 110.35 121.65 118.7 110.6 122.9 L110.45 120.6 Q120.2 116.85 127.6 108.9 133.2 102.85 135.75 96.6 137.2 93.05 136.2 91.45 135.2 89.85 131.6 89.9 124.3 90.05 114.5 94.8"/><path fill="#0d131a" d="M76.55 141.75 Q71.45 141.85 68.1 138.55 64.65 135.25 64.7 130.1 64.8 126.2 66.8 123.75 L68.0 124.2 Q66.35 126.85 66.35 129.95 66.35 134.3 69.35 137.4 72.35 140.45 76.55 140.45 80.75 140.45 83.75 137.4 86.7 134.3 86.7 129.95 86.7 125.6 83.65 122.45 L84.85 121.65 Q86.5 123.05 87.35 125.4 88.2 127.55 88.2 130.0 88.2 134.9 85.0 138.25 81.75 141.7 76.55 141.75"/><path fill="#0d131a" d="M110.2 117.0 Q108.75 118.05 107.6 120.2 106.25 122.65 105.95 125.4 105.75 127.9 106.35 130.15 107.1 132.9 108.85 134.4 L108.5 135.75 Q106.1 134.55 105.0 131.05 104.1 128.15 104.35 125.25 104.65 121.9 106.4 119.05 108.0 116.35 110.2 115.2 L110.2 117.0"/><path fill="#0d131a" d="M31.55 140.8 Q29.3 135.9 29.75 128.95 30.2 122.35 32.5 119.2 L33.95 119.9 Q32.05 122.45 31.65 128.7 31.25 135.45 33.25 139.95 37.35 148.95 47.2 154.4 56.95 159.75 69.5 160.15 89.45 160.75 100.25 149.0 105.95 142.75 108.3 133.65 110.65 124.7 109.35 114.2 L110.9 114.5 Q113.6 137.5 101.7 150.45 96.15 156.55 87.75 159.65 79.45 162.65 69.5 162.35 56.7 161.95 46.25 156.05 35.75 150.1 31.55 140.8"/><path fill="#0d131a" d="M36.35 179.35 Q33.55 171.7 33.7 163.4 33.9 153.8 38.3 148.45 L39.3 149.4 Q35.65 154.15 35.4 163.05 35.15 171.3 37.7 178.25 39.45 182.95 42.25 184.6 44.75 186.1 46.65 184.45 49.7 181.85 51.5 175.0 53.55 167.35 52.9 158.0 L54.65 158.55 Q55.45 168.3 53.15 176.3 51.15 183.15 47.85 186.05 45.25 188.3 41.95 186.7 38.4 184.95 36.35 179.35"/><path fill="#0d131a" d="M42.3 185.6 L40.65 184.6 Q42.35 181.4 42.85 174.55 42.95 173.35 43.45 173.4 43.95 173.4 43.95 174.6 43.95 182.4 42.3 185.6"/><path fill="#0d131a" d="M48.1 184.3 L45.9 185.7 Q47.35 182.7 48.05 175.6 48.15 174.5 48.6 174.5 49.05 174.55 49.1 175.65 49.3 180.5 48.1 184.3"/><path fill="#0d131a" d="M77.45 161.0 L79.05 160.75 Q79.95 166.65 84.05 172.15 87.7 177.15 92.0 179.4 94.8 180.85 96.55 180.1 98.2 179.35 98.95 176.4 99.75 173.05 99.0 169.05 97.8 162.75 92.95 156.2 L94.3 155.25 Q99.75 162.05 101.05 169.2 101.8 173.65 100.9 177.4 100.05 180.8 97.35 182.05 94.6 183.3 91.35 181.6 86.65 179.1 82.95 174.15 78.6 168.3 77.45 161.0"/><path fill="#0d131a" d="M94.55 180.9 L92.65 180.6 Q92.0 175.4 89.65 169.85 89.25 168.9 89.7 168.7 90.15 168.5 90.65 169.45 93.9 175.25 94.55 180.9"/><path fill="#0d131a" d="M99.6 177.8 L98.15 179.95 Q97.9 177.5 96.95 174.4 95.95 171.15 94.6 168.5 94.1 167.55 94.5 167.35 94.9 167.15 95.55 168.0 96.9 169.8 98.05 172.7 99.15 175.45 99.6 177.8"/><path fill="#0d131a" d="M37.9 93.25 L36.4 92.35 Q39.4 90.7 43.0 90.15 L44.4 91.35 Q41.15 91.5 37.9 93.25"/></g></svg>