<?xml version='1.0' encoding='utf-8'?>
<svg xmlns="http://www.w3.org/2000/svg" version="1.1" width="514px" height="514px" viewBox="-1.3 -0.45 513.85 514.15"><g><path fill="#0d131a" d="M140.75 79.0 Q141.75 78.3 142.75 79.0 144.9 80.7 142.35 93.2 140.5 102.05 137.55 111.6 131.55 131.0 128.05 131.3 L112.8 130.85 Q107.35 130.0 106.8 128.9 106.4 128.05 109.9 121.35 113.45 114.5 118.7 106.3 132.4 84.65 140.75 79.0"/><path fill="#e85377" d="M141.5 89.95 Q139.9 99.4 136.2 111.15 133.35 120.3 130.85 125.55 128.85 129.8 127.95 129.9 119.9 130.45 113.45 129.7 108.35 129.1 108.15 128.55 107.25 126.1 120.6 105.6 134.5 84.25 141.45 80.2 L141.85 80.05 Q143.05 81.05 141.5 89.95"/><path fill="#0d131a" d="M139.75 84.65 L141.5 84.7 Q143.65 86.45 139.05 102.1 136.8 109.95 134.0 117.6 131.55 124.25 130.3 126.45 129.55 127.7 128.95 127.7 L120.6 127.45 112.1 126.85 Q111.4 125.15 122.1 107.25 133.45 88.25 139.75 84.65"/><path fill="#008c46" d="M141.0 86.7 Q140.75 92.65 135.4 109.0 130.35 124.4 128.75 126.15 L121.1 126.2 113.65 125.9 Q113.15 124.6 123.95 106.85 135.35 88.1 140.6 85.1 L140.8 85.0 Q141.0 85.2 141.0 86.3 L141.0 86.7"/><path fill="#0d131a" d="M423.3 252.05 L423.85 252.05 424.0 252.55 Q426.15 259.5 419.35 299.55 415.9 319.8 411.6 340.6 L409.95 342.15 Q400.0 334.3 394.6 330.95 390.05 328.1 388.3 324.6 387.05 322.05 387.55 319.8 L396.2 267.85 Q396.95 263.35 398.25 261.1 399.5 259.0 401.9 257.85 405.0 256.4 413.3 254.2 421.3 252.05 423.3 252.05"/><path fill="#e85377" d="M423.15 257.8 Q423.15 269.5 417.45 302.3 414.2 321.25 410.5 339.2 401.4 332.15 396.2 328.85 390.15 325.1 390.15 320.6 L390.3 319.3 396.55 280.45 398.55 267.65 Q399.55 261.9 403.05 259.9 404.7 258.9 412.45 256.4 420.25 253.9 422.75 253.55 423.15 255.25 423.15 257.8"/><path fill="#0d131a" d="M406.05 262.85 Q407.25 261.95 413.5 260.25 419.7 258.55 422.25 258.45 L411.95 332.8 Q403.0 326.95 399.95 325.25 397.55 323.95 396.5 320.85 395.55 318.15 396.2 316.15 396.6 314.95 403.05 270.2 403.6 267.15 404.2 265.6 404.9 263.75 406.05 262.85"/><path fill="#009f50" d="M421.55 260.85 L411.8 331.0 Q404.05 325.7 401.5 324.3 399.9 323.4 399.0 321.45 398.2 319.75 398.2 318.1 L404.75 270.5 Q405.25 267.75 405.8 266.55 406.25 265.45 407.1 264.8 407.95 264.15 413.2 262.7 418.55 261.2 421.55 260.85"/><path fill="#0d131a" d="M482.55 263.75 L482.85 263.3 483.35 263.45 Q485.05 263.9 492.95 269.75 L501.7 276.55 Q505.85 280.65 505.35 286.15 L503.7 311.1 Q501.7 337.2 500.1 343.05 499.35 345.85 496.8 348.35 493.85 351.2 489.4 352.6 L478.85 356.1 472.8 358.25 471.8 357.6 Q473.05 334.9 474.95 313.1 478.75 269.9 482.55 263.75"/><path fill="#c94768" d="M476.55 311.05 Q480.05 271.8 483.5 265.0 485.6 266.15 492.4 271.75 L500.6 278.8 Q503.05 281.25 503.05 285.8 L502.6 292.9 Q500.1 332.45 497.6 341.65 496.85 344.5 495.35 346.25 493.35 348.55 489.5 349.75 483.7 351.55 473.25 356.5 474.5 333.8 476.55 311.05"/><path fill="#0d131a" d="M482.55 271.1 L483.35 271.35 Q485.85 272.15 491.6 276.8 497.1 281.25 498.05 282.95 499.2 285.0 494.15 335.4 493.6 339.2 492.4 341.05 490.9 343.35 487.35 344.85 L479.35 347.8 473.75 349.7 472.7 350.1 482.55 271.1"/><path fill="#008c46" d="M474.35 348.0 L483.5 274.05 Q486.15 275.4 491.0 279.85 495.9 284.25 496.05 285.45 496.25 286.55 494.5 309.9 L492.4 335.4 Q491.9 338.6 490.5 340.35 489.05 342.1 485.65 343.6 L474.35 348.0"/><path fill="#0d131a" d="M391.9 167.2 L396.55 150.7 397.35 151.9 Q404.05 161.75 408.9 169.95 417.55 184.6 416.35 187.65 412.9 196.45 409.45 196.65 406.7 196.75 403.75 191.15 L402.25 187.95 Q394.35 170.75 392.1 167.5 L391.9 167.2"/><path fill="#c94768" d="M397.05 153.95 Q403.8 163.9 408.95 172.85 415.15 183.65 415.15 186.55 L415.05 187.15 Q411.9 195.15 409.4 195.25 407.6 195.35 405.0 190.5 L403.5 187.35 Q396.3 171.4 393.4 167.0 L397.05 153.95"/><path fill="#0d131a" d="M448.35 111.65 Q450.8 113.75 462.5 136.0 473.8 157.55 474.8 161.1 475.05 161.95 474.85 163.0 L474.4 164.35 Q473.4 165.5 469.6 165.05 L462.8 164.0 458.3 163.75 457.8 163.85 427.0 108.7 428.2 108.7 437.65 109.1 Q446.25 109.85 448.35 111.65"/><path fill="#c94768" d="M460.55 136.05 Q471.5 157.35 472.6 161.15 L472.65 161.65 472.45 162.25 462.95 162.6 458.5 162.35 429.4 110.1 439.5 110.7 Q445.9 111.4 447.45 112.7 449.4 114.35 460.55 136.05"/><path fill="#0d131a" d="M428.15 112.6 L429.35 112.6 436.6 112.95 Q443.25 113.55 445.05 115.05 448.0 117.45 465.25 151.05 466.7 154.05 467.05 155.65 467.35 157.15 466.75 158.0 466.05 158.9 464.3 158.85 L459.55 158.2 454.45 157.35 428.15 112.6"/><path fill="#008c46" d="M444.2 116.1 Q445.85 117.5 454.45 133.45 461.7 146.8 464.0 151.65 465.75 155.4 465.75 156.65 L465.65 157.15 459.8 156.8 455.3 156.1 430.55 114.0 Q441.95 114.3 444.2 116.1"/><path fill="#0d131a" d="M324.6 79.8 L324.45 81.45 Q324.05 83.05 322.7 82.9 320.6 82.65 314.25 80.4 L302.95 76.4 Q291.35 72.5 287.55 71.7 285.45 71.2 285.6 70.3 285.9 68.55 299.6 68.35 310.1 68.2 314.15 68.55 315.95 68.75 320.15 73.05 324.6 77.5 324.6 79.8"/><path fill="#c94768" d="M314.0 69.95 Q315.2 70.1 318.9 74.2 322.7 78.45 322.55 80.1 322.5 80.45 321.45 80.4 319.25 80.15 313.9 78.5 L303.4 75.1 Q291.75 71.2 288.45 70.45 L301.5 69.75 Q310.65 69.6 314.0 69.95"/><path fill="#0d131a" d="M147.25 70.4 Q149.95 70.4 153.65 72.0 158.4 74.0 160.25 77.2 161.35 79.15 161.35 81.65 161.35 86.6 159.65 91.05 157.75 96.0 145.15 118.2 133.5 138.75 126.85 149.4 119.95 160.45 117.5 160.9 114.25 161.5 116.95 145.65 118.9 134.1 124.45 114.2 131.2 90.25 136.9 78.65 138.45 75.5 141.75 72.9 144.95 70.45 147.25 70.4"/><path fill="#009f50" d="M158.05 89.9 Q153.6 101.55 136.65 130.4 119.75 159.05 117.9 158.3 115.15 157.2 123.35 125.6 131.65 93.65 138.6 79.5 140.1 76.55 142.85 74.15 145.55 71.85 147.25 71.8 149.65 71.8 153.05 73.25 157.4 75.05 159.05 77.9 161.2 81.55 158.05 89.9"/><path fill="#008c46" d="M157.05 75.6 Q158.35 76.65 159.05 77.9 161.2 81.55 158.05 89.9 154.25 99.95 139.9 124.85 125.9 149.1 119.95 156.45 127.45 135.0 136.65 114.45 147.6 89.85 157.05 75.6"/><path fill="#0d131a" d="M153.55 88.3 Q154.2 87.8 154.75 88.1 155.35 88.35 155.35 89.45 155.35 98.4 151.3 120.8 146.9 144.95 143.75 147.2 143.15 147.65 142.5 147.4 139.9 146.5 135.65 140.7 131.05 134.45 132.05 131.2 135.15 121.25 142.95 105.75 150.65 90.5 153.55 88.3"/><path fill="#009f50" d="M142.45 111.15 Q151.3 92.75 153.95 89.85 153.85 99.9 149.55 122.3 145.2 145.05 142.9 146.05 141.2 145.35 137.75 140.1 134.15 134.6 133.45 131.05 134.0 128.6 142.45 111.15"/><path fill="#0d131a" d="M154.6 86.8 Q155.8 86.75 156.85 87.45 158.0 88.25 157.95 89.25 156.0 113.0 150.6 134.35 146.0 152.45 144.0 152.85 143.0 153.05 138.35 147.7 133.35 141.95 130.3 136.4 129.5 135.0 129.55 133.5 129.55 131.8 130.75 130.95 132.25 129.95 133.65 130.45 135.0 130.95 135.9 132.85 139.0 138.25 140.8 140.85 L142.1 142.35 Q142.45 142.2 144.95 130.5 147.75 117.35 149.25 106.95 L151.8 90.05 Q152.3 86.95 154.6 86.8"/><path fill="#e85377" d="M156.6 89.6 Q154.15 113.9 149.0 134.55 144.85 150.95 143.6 151.2 143.1 151.3 139.5 147.1 135.15 142.0 131.45 135.95 129.85 133.35 131.65 131.95 133.45 130.6 134.6 133.0 138.25 139.15 140.6 142.2 142.2 144.3 142.5 144.2 143.1 144.0 145.95 131.5 149.05 117.95 150.65 107.15 L153.2 90.25 Q153.55 88.0 155.15 88.05 156.75 88.15 156.6 89.6"/><path fill="#0d131a" d="M163.1 72.6 Q164.6 76.05 163.35 78.55 162.4 80.55 159.75 81.5 154.6 83.25 151.95 81.95 150.35 81.15 149.1 79.7 147.8 78.25 147.25 76.6 146.85 75.3 147.05 73.55 147.25 71.95 147.85 70.8 149.1 68.2 152.45 67.2 155.8 66.25 158.7 67.65 161.65 69.1 163.1 72.6"/><path fill="#0d131a" d="M152.8 79.75 Q150.0 78.4 148.95 75.4 148.25 73.05 149.1 71.4 150.1 69.3 152.9 68.5 155.7 67.75 158.1 68.9 160.55 70.1 161.85 73.0 163.1 75.95 162.1 77.95 161.35 79.5 159.3 80.15 L156.0 80.55 Q154.2 80.45 152.8 79.75"/><path fill="#0d131a" d="M244.2 16.7 Q248.25 16.45 250.65 20.25 254.55 26.25 254.3 38.2 254.05 49.7 250.5 55.95 L247.95 59.65 Q246.4 61.25 244.9 61.2 227.35 60.35 203.3 66.05 180.3 71.5 164.4 79.7 161.75 81.05 158.9 80.9 155.95 80.7 153.65 78.95 151.2 77.0 150.3 73.7 149.4 70.6 150.2 67.45 151.8 61.0 159.5 52.95 167.55 44.6 179.75 37.15 209.2 19.15 244.2 16.7"/><path fill="#009f50" d="M252.9 37.7 Q252.8 49.05 249.25 55.25 247.25 58.85 244.6 58.7 226.75 57.8 202.4 64.15 180.35 69.9 163.75 78.45 161.55 79.6 159.3 79.35 157.0 79.15 155.05 77.6 152.85 75.85 151.85 73.1 150.9 70.35 151.55 67.8 153.15 61.6 160.85 53.9 168.75 46.0 180.95 38.8 209.8 21.75 244.35 18.1 247.45 17.8 249.5 21.05 253.0 26.35 252.9 37.7"/><path fill="#008c46" d="M244.35 18.1 Q247.45 17.8 249.5 21.05 L234.9 22.25 Q216.7 23.85 203.55 27.95 223.5 20.3 244.35 18.1"/><path fill="#008c46" d="M249.25 55.25 Q251.1 55.75 248.6 57.3 246.15 58.8 244.6 58.7 226.75 57.8 202.4 64.15 180.35 69.9 163.75 78.45 160.5 80.15 157.3 78.85 174.85 68.95 197.5 61.95 216.2 56.15 231.15 54.3 236.6 53.75 241.6 54.1 245.95 54.4 249.25 55.25"/><path fill="#0d131a" d="M200.05 53.65 Q198.05 55.9 199.25 59.7 200.35 63.25 202.85 64.85 L188.65 69.1 188.45 68.85 Q185.6 65.0 180.2 64.2 175.1 63.4 171.6 65.7 169.2 67.35 168.85 69.85 168.5 72.4 170.45 75.65 L163.55 79.25 Q160.8 80.85 159.15 80.9 157.3 80.95 155.15 79.25 L157.55 77.8 Q160.5 76.1 163.05 74.9 161.75 70.1 162.7 66.25 163.9 61.7 168.2 59.35 173.15 56.6 179.5 57.6 185.8 58.55 189.4 62.55 L193.35 61.15 Q191.8 56.45 193.2 52.55 194.6 48.5 198.75 46.45 205.0 43.35 213.85 45.4 222.6 47.45 226.35 52.75 L232.4 52.45 238.15 52.7 238.85 56.55 Q239.2 60.35 237.3 60.35 L223.85 60.6 Q223.85 59.3 221.15 56.95 218.35 54.55 214.65 52.85 204.8 48.3 200.05 53.65"/><path fill="#ffec60" d="M194.85 62.05 Q193.2 57.15 194.3 53.5 195.4 49.75 199.25 47.8 205.15 44.85 213.85 47.0 222.5 49.05 225.85 54.1 L228.75 53.85 Q232.8 53.55 238.4 53.6 L239.05 56.3 Q239.25 59.05 237.3 59.0 L224.7 59.7 Q224.2 57.8 221.2 55.35 218.05 52.8 214.1 51.25 209.55 49.45 205.5 49.9 201.2 50.35 198.6 53.2 196.5 55.5 197.8 59.65 198.95 63.15 200.9 64.65 L189.15 68.05 Q185.95 64.1 180.05 63.15 174.4 62.2 170.7 64.65 167.5 66.75 167.65 70.55 167.75 72.8 169.4 75.75 L163.75 78.45 Q162.05 79.25 160.3 79.45 L157.4 79.2 164.2 75.5 Q163.25 72.3 163.55 68.95 164.15 63.15 168.85 60.75 173.75 58.25 179.75 59.15 185.8 60.1 189.1 63.95 L194.85 62.05"/><path fill="#ddcc54" d="M164.2 75.5 L164.15 75.4 Q165.85 74.45 168.25 73.3 L169.4 75.75 163.75 78.45 Q162.05 79.25 160.3 79.45 L157.4 79.2 164.2 75.5"/><path fill="#ddcc54" d="M189.15 68.05 Q187.95 66.6 186.35 65.55 192.35 63.35 198.6 61.5 199.7 63.7 200.9 64.65 L189.15 68.05"/><path fill="#ddcc54" d="M239.35 54.4 L240.5 57.55 Q239.05 59.05 237.3 59.0 L224.7 59.7 Q224.25 58.1 222.0 56.05 231.15 54.55 239.35 54.4"/><path fill="#009f50" d="M325.85 13.9 Q326.75 15.3 326.6 17.8 L325.8 22.5 Q324.7 27.05 325.15 28.75 L325.45 29.85 266.3 16.25 266.75 15.45 270.1 10.3 Q274.0 5.1 277.65 3.25 282.05 1.05 303.25 6.05 324.05 10.9 325.85 13.9"/><path fill="#008c46" d="M324.4 22.2 Q323.6 25.9 323.6 27.4 L323.7 28.0 268.4 15.3 Q270.1 12.4 272.15 9.9 275.35 5.95 278.25 4.5 282.15 2.55 302.9 7.4 323.2 12.15 324.7 14.6 325.2 15.55 325.2 17.0 325.2 18.6 324.4 22.2"/><path fill="#0d131a" d="M327.5 11.45 Q329.7 12.95 329.95 18.0 330.1 20.3 329.55 28.8 L329.15 32.1 Q329.15 33.65 327.55 33.8 326.15 33.95 324.2 32.9 322.15 31.8 321.9 30.65 321.45 28.6 322.05 23.9 L322.4 19.15 Q322.35 16.7 321.4 15.65 319.7 13.75 302.6 9.65 285.5 5.55 282.2 6.25 278.85 7.0 273.9 15.05 L271.95 18.05 Q270.85 19.35 268.65 19.4 266.5 19.4 265.1 18.35 263.3 16.9 264.65 15.1 L266.55 12.4 Q271.1 6.0 273.05 3.75 276.1 0.25 278.25 0.05 282.65 -0.45 299.65 2.65 319.9 6.35 327.5 11.45"/><path fill="#c94768" d="M324.85 31.7 Q323.35 30.85 323.25 30.35 322.85 28.55 323.45 24.05 L323.8 18.8 Q323.65 16.1 322.45 14.75 320.35 12.4 302.5 8.25 284.9 4.2 281.45 4.95 279.15 5.45 276.6 8.55 275.2 10.3 272.75 14.3 L270.85 17.15 Q270.15 18.0 268.5 18.0 266.95 18.0 265.95 17.25 265.2 16.7 265.75 15.95 L267.7 13.2 Q275.1 2.7 278.05 1.85 280.95 1.15 297.4 3.95 317.3 7.3 326.65 13.1 328.2 14.05 328.2 21.15 L327.95 28.65 327.75 32.1 327.4 32.45 Q326.4 32.55 324.85 31.7"/><path fill="#009f50" d="M243.9 62.25 L244.1 62.15 244.3 62.15 267.4 63.65 Q290.7 66.15 298.25 71.25 298.9 71.65 298.9 72.4 298.9 73.65 296.35 75.8 L289.8 80.45 286.75 82.5 Q283.95 84.65 262.6 81.4 240.9 78.1 237.6 74.35 236.15 72.75 236.45 70.7 236.85 68.0 240.35 64.9 242.1 63.35 243.9 62.25"/><path fill="#009f50" d="M267.55 65.1 Q290.3 67.55 297.45 72.4 L297.5 72.4 Q297.5 73.75 289.0 79.25 L285.9 81.4 Q283.6 83.15 262.8 79.95 241.55 76.75 238.6 73.4 237.8 72.55 237.8 71.4 L237.8 70.9 Q238.15 68.75 241.05 66.15 L244.5 63.55 267.55 65.1"/><path fill="#0d131a" d="M245.05 59.25 Q246.6 59.6 247.25 61.65 247.6 62.75 246.65 64.25 L244.4 67.1 242.5 69.45 Q241.6 70.8 241.7 71.5 L242.25 72.25 Q245.05 74.15 262.35 77.2 279.95 80.35 284.65 79.6 287.1 79.2 290.25 76.35 293.05 73.8 295.35 70.4 295.95 69.45 298.2 69.3 300.3 69.1 301.6 69.8 L303.0 71.0 Q303.7 71.9 303.4 72.5 302.35 75.25 296.25 80.75 290.1 86.35 287.15 87.05 281.9 88.3 258.55 83.4 236.85 78.85 233.95 77.25 L232.8 76.3 232.3 74.85 Q231.9 72.35 235.2 67.9 236.15 66.65 240.65 61.55 242.95 58.85 245.05 59.25"/><path fill="#e85377" d="M243.35 66.2 L241.15 69.0 Q240.2 70.5 240.35 71.65 240.5 72.75 241.5 73.4 244.45 75.4 262.0 78.55 279.9 81.8 284.9 80.95 287.75 80.5 291.25 77.35 294.1 74.75 296.5 71.2 296.75 70.8 298.35 70.65 300.05 70.55 300.95 71.0 301.35 71.2 301.25 71.6 300.25 74.2 294.65 79.3 289.05 84.4 286.6 85.0 281.75 86.15 260.05 81.6 239.85 77.4 236.9 75.8 235.8 75.2 235.55 74.0 235.25 72.15 236.85 69.15 238.45 66.1 241.7 62.45 243.55 60.35 244.75 60.6 245.45 60.75 245.9 62.05 246.1 62.65 245.2 63.9 L243.35 66.2"/><path fill="#0d131a" d="M249.4 15.75 Q258.95 15.75 265.9 22.95 272.85 30.15 272.85 39.95 272.85 49.8 266.1 56.8 259.35 63.8 249.8 63.8 240.25 63.8 233.45 56.8 226.7 49.8 226.7 39.95 226.7 29.95 233.35 22.85 240.0 15.75 249.4 15.75"/><path fill="#0d131a" d="M271.5 39.95 Q271.5 49.25 265.15 55.85 258.75 62.4 249.8 62.4 240.8 62.4 234.45 55.85 228.1 49.25 228.1 39.95 228.1 30.5 234.35 23.85 240.6 17.15 249.4 17.15 258.35 17.15 264.95 23.9 271.5 30.7 271.5 39.95"/><path fill="#0d131a" d="M334.0 53.7 Q331.6 63.95 324.75 70.2 316.8 77.35 306.15 75.55 L295.65 73.25 Q262.2 65.25 245.35 64.4 237.1 64.0 232.65 56.35 228.8 49.7 229.1 40.6 229.45 29.75 235.4 22.25 242.2 13.7 253.6 13.85 L257.15 13.8 Q272.6 13.4 280.15 14.05 299.05 15.65 319.45 22.6 329.25 25.95 333.0 35.45 336.35 43.85 334.0 53.7"/><path fill="#009f50" d="M332.65 53.4 Q330.4 63.0 323.75 68.85 316.15 75.5 306.05 73.8 L296.6 71.65 272.3 66.15 Q256.2 62.9 245.65 62.4 238.05 62.05 233.9 55.15 230.2 49.05 230.5 40.65 230.8 30.35 236.4 23.25 242.8 15.1 253.55 15.25 L257.2 15.2 280.15 15.9 Q298.75 17.8 319.05 23.95 328.3 26.75 331.8 35.9 334.9 43.95 332.65 53.4"/><path fill="#008c46" d="M272.3 66.15 Q256.2 62.9 245.65 62.4 241.05 62.2 237.6 59.45 234.55 57.0 232.65 52.75 233.35 53.7 240.65 54.15 L258.9 55.65 Q270.55 57.05 282.7 60.45 292.85 63.3 294.75 63.2 299.0 64.6 305.6 67.95 L316.25 73.15 Q311.45 74.75 306.05 73.8 L296.6 71.65 272.3 66.15"/><path fill="#008c46" d="M328.55 30.2 Q331.85 34.25 333.0 40.05 331.35 39.9 328.6 37.45 325.65 34.8 324.15 34.5 315.05 26.3 308.45 24.6 299.75 22.35 291.65 29.55 280.9 27.45 264.65 25.45 L237.4 22.05 Q243.75 15.1 253.55 15.25 L257.2 15.2 280.15 15.9 Q298.75 17.8 319.05 23.95 324.9 25.7 328.55 30.2"/><path fill="#0d131a" d="M290.25 31.2 L290.25 32.15 289.35 31.9 Q281.0 29.6 261.95 26.7 L244.25 24.15 243.9 24.1 242.4 21.45 Q239.4 16.25 238.55 13.75 237.1 9.5 239.15 7.8 241.0 6.35 258.2 8.85 276.05 11.5 279.2 14.85 290.25 26.85 290.25 31.2"/><path fill="#008c46" d="M243.6 20.75 L240.8 15.55 Q239.35 12.4 239.35 10.65 239.35 9.45 240.05 8.9 242.15 7.85 258.35 10.25 275.4 12.75 278.2 15.8 287.6 25.95 288.7 30.3 280.4 28.15 263.2 25.7 L245.2 23.35 243.6 20.75"/><path fill="#0d131a" d="M286.7 18.5 Q291.75 24.9 294.05 30.05 L294.45 31.45 Q294.45 32.15 293.8 32.65 292.05 33.95 289.1 33.25 286.45 32.55 285.9 31.45 283.7 27.35 280.8 23.25 277.1 17.9 274.75 16.4 272.3 14.8 258.05 13.05 L242.5 11.8 Q242.0 11.9 244.9 17.7 L248.2 24.15 Q249.05 26.3 245.05 25.75 241.05 25.2 240.35 23.4 235.5 13.3 235.0 10.4 234.45 7.2 236.5 6.75 243.2 5.15 260.1 7.3 274.1 9.1 277.95 10.45 281.2 11.6 286.7 18.5"/><path fill="#e85377" d="M287.25 30.7 L281.7 22.8 Q276.65 16.05 275.5 15.2 273.95 14.05 259.45 12.05 244.3 9.9 241.3 11.2 240.2 11.65 242.7 16.65 L246.75 24.4 Q247.15 25.2 245.0 24.85 242.8 24.5 241.65 22.85 L241.6 22.8 Q239.95 19.45 238.65 16.0 235.85 8.95 237.1 8.5 241.75 6.75 258.25 8.7 272.95 10.45 277.85 12.2 280.4 13.1 286.45 21.1 291.95 28.4 292.75 30.65 293.35 32.25 290.65 32.1 287.95 32.0 287.25 30.7"/><path fill="#0d131a" d="M328.55 29.15 Q331.7 31.9 333.7 35.8 336.15 40.6 336.55 46.2 336.95 51.8 335.2 57.15 333.45 62.65 329.9 67.0 326.4 71.3 321.75 73.7 314.15 77.6 306.25 75.15 296.85 72.1 292.2 62.8 287.55 53.5 290.5 43.7 294.2 31.65 303.7 26.7 307.85 24.5 312.5 24.15 317.1 23.75 321.6 25.2 325.45 26.45 328.55 29.15"/><path fill="#0d131a" d="M335.15 46.3 Q335.55 51.6 333.9 56.75 332.2 62.0 328.85 66.1 325.5 70.2 321.1 72.45 313.85 76.15 306.65 73.8 297.85 70.95 293.45 62.15 289.05 53.3 291.85 44.1 295.3 32.65 304.35 27.9 308.25 25.9 312.6 25.5 316.95 25.15 321.15 26.5 328.6 28.9 332.45 36.45 334.8 41.0 335.15 46.3"/><path fill="#0d131a" d="M325.75 27.15 Q343.65 32.65 357.75 39.85 382.1 52.35 399.65 71.2 406.6 78.6 404.1 87.15 401.85 94.95 393.1 101.55 385.2 107.5 376.1 109.75 370.2 111.2 365.45 110.45 360.7 109.75 357.9 107.0 340.65 90.2 327.3 81.75 318.3 76.05 309.5 73.45 L305.85 72.35 Q297.45 69.3 294.6 60.45 292.0 52.4 294.9 43.8 298.05 34.35 305.7 29.4 314.5 23.75 325.75 27.15"/><path fill="#009f50" d="M357.9 42.85 Q382.55 55.4 398.65 72.15 405.1 78.9 402.75 86.75 400.65 94.0 392.25 100.35 384.55 106.25 375.75 108.4 370.35 109.7 366.05 109.05 361.75 108.45 359.4 105.95 342.7 88.45 328.15 79.9 319.95 75.05 309.85 72.15 L306.35 71.05 Q298.5 68.2 295.9 59.9 293.55 52.4 296.25 44.25 299.05 35.7 305.95 31.4 314.15 26.25 325.35 29.65 341.95 34.7 357.9 42.85"/><path fill="#008c46" d="M325.35 29.65 Q341.95 34.7 357.9 42.85 382.55 55.4 398.65 72.15 402.5 76.15 403.15 80.5 387.45 63.25 358.65 46.55 332.05 31.1 316.65 28.3 320.65 28.25 325.35 29.65"/><path fill="#008c46" d="M343.95 85.35 Q354.1 92.15 358.1 95.8 367.1 102.6 373.85 108.75 369.1 109.65 365.35 108.95 361.55 108.2 359.4 105.95 342.7 88.45 328.15 79.9 319.95 75.05 309.85 72.15 L306.35 71.05 Q299.45 68.5 296.55 61.6 301.05 62.65 307.55 65.25 314.6 68.05 321.4 71.7 332.3 77.55 343.95 85.35"/><path fill="#0d131a" d="M344.7 67.95 Q348.1 68.7 351.25 71.3 355.15 74.5 356.85 80.55 357.7 83.7 358.2 89.7 358.4 92.75 358.75 93.05 361.05 95.35 364.25 97.5 L370.15 101.0 Q377.1 104.95 380.05 107.55 L380.75 108.1 379.9 108.4 Q372.95 110.85 367.25 110.45 361.6 110.0 358.5 106.8 L355.2 103.15 351.15 98.9 350.95 98.7 351.0 98.45 Q351.8 93.0 351.05 88.4 350.3 83.7 348.1 80.7 345.75 77.6 342.95 77.4 338.85 77.05 338.45 81.25 338.15 84.35 339.65 88.1 L338.85 88.7 Q332.85 84.05 330.1 82.1 326.1 79.35 322.7 77.75 L322.4 77.2 Q322.45 73.15 321.0 69.2 318.2 61.45 311.15 60.3 308.25 59.8 308.25 64.85 308.25 69.7 310.5 72.6 L309.55 73.3 305.9 72.2 Q300.1 70.05 296.9 64.9 L301.95 66.35 Q301.0 62.4 301.4 59.6 301.95 55.8 304.9 53.6 308.2 51.3 312.1 51.6 319.35 52.1 324.05 60.75 327.45 67.1 328.0 73.3 328.75 74.2 332.85 76.65 333.4 73.75 334.85 71.55 336.4 69.25 338.55 68.4 341.45 67.25 344.7 67.95"/><path fill="#ffec60" d="M350.5 72.95 Q354.2 75.95 355.8 81.4 356.75 84.55 357.15 89.8 357.45 93.25 358.0 93.8 360.35 96.15 363.65 98.3 L369.65 101.9 Q375.35 105.15 378.55 107.7 372.2 109.75 367.1 109.35 362.0 108.95 359.25 106.05 L356.0 102.45 352.05 98.3 352.4 93.3 Q352.4 89.2 351.45 85.65 350.5 82.05 348.75 79.65 346.75 77.05 343.75 76.0 340.2 74.8 338.35 77.4 336.15 80.5 338.1 86.8 L330.3 81.0 Q326.65 78.5 323.45 76.95 L323.5 76.1 Q323.5 71.45 321.15 66.65 317.8 59.75 311.35 58.85 308.95 58.55 307.75 61.1 306.9 62.9 306.9 65.05 306.9 68.75 308.9 72.0 L306.3 71.2 Q302.05 69.65 299.2 66.25 L303.0 67.95 Q302.35 65.85 302.3 63.15 302.2 57.85 305.25 55.2 307.55 53.15 311.6 53.45 318.55 53.95 323.3 62.55 326.8 68.9 327.2 74.15 L333.6 78.4 Q334.0 75.45 335.35 73.15 336.85 70.7 338.9 69.9 L344.5 69.7 Q347.5 70.5 350.5 72.95"/><path fill="#ddcc54" d="M337.2 81.0 Q337.05 83.2 338.1 86.8 L330.3 81.0 Q326.65 78.5 323.45 76.95 L323.5 76.1 323.1 72.55 337.2 81.0"/><path fill="#ddcc54" d="M303.0 67.95 Q302.4 65.9 302.3 63.35 L306.9 65.0 306.9 65.05 Q306.9 68.75 308.9 72.0 L306.3 71.2 Q302.05 69.65 299.2 66.25 L303.0 67.95"/><path fill="#ddcc54" d="M352.05 98.3 L352.4 93.3 352.3 91.0 360.5 96.05 Q363.3 98.3 369.65 101.9 L375.0 105.15 Q376.95 106.45 378.55 107.7 372.2 109.75 367.1 109.35 362.0 108.95 359.25 106.05 L356.0 102.45 352.05 98.3"/><path fill="#0d131a" d="M353.75 91.15 Q355.6 80.3 364.4 72.4 369.2 68.15 374.95 66.05 380.65 63.95 386.35 64.35 390.75 64.7 394.5 66.55 398.25 68.45 400.9 71.6 407.15 79.15 405.35 90.05 403.5 100.95 394.7 108.85 389.9 113.1 384.15 115.2 378.4 117.3 372.75 116.9 368.35 116.55 364.6 114.7 360.8 112.8 358.2 109.6 351.95 102.05 353.75 91.15"/><path fill="#0d131a" d="M403.95 89.95 Q402.2 100.3 393.8 107.8 389.2 111.85 383.75 113.9 378.25 115.9 372.85 115.5 364.4 114.9 359.25 108.7 353.35 101.6 355.15 91.3 356.9 80.95 365.3 73.45 369.85 69.35 375.35 67.35 380.85 65.35 386.25 65.75 390.35 66.05 393.9 67.8 397.35 69.55 399.85 72.5 405.75 79.65 403.95 89.95"/><path fill="#0d131a" d="M366.2 75.1 Q375.05 67.0 386.55 66.65 400.35 66.3 412.85 78.15 422.4 87.15 438.25 110.6 454.2 134.2 462.1 151.15 467.45 162.55 461.3 174.1 456.0 184.0 445.5 189.45 433.35 195.7 421.8 195.1 408.55 194.4 402.9 184.35 L400.85 180.95 385.05 153.0 Q371.8 130.6 361.1 117.25 353.15 107.35 355.4 94.7 357.4 83.25 366.2 75.1"/><path fill="#009f50" d="M386.65 68.1 Q399.9 67.75 411.9 79.15 420.8 87.6 436.9 112.65 452.3 136.7 460.35 153.95 465.4 164.7 459.75 174.65 455.0 182.95 444.85 188.2 433.5 194.05 422.2 192.95 409.7 191.75 404.3 182.15 L403.5 180.7 Q378.7 137.05 362.2 116.4 354.6 106.95 356.75 94.85 358.7 83.9 367.15 76.15 375.65 68.35 386.65 68.1"/><path fill="#008c46" d="M404.3 182.15 L403.5 180.7 Q390.5 157.65 379.5 140.7 405.2 168.8 423.2 193.0 417.05 192.6 412.3 190.05 407.2 187.25 404.3 182.15"/><path fill="#008c46" d="M460.35 153.95 Q464.6 163.05 461.15 171.65 458.25 178.95 450.5 184.7 447.15 166.3 441.4 149.4 449.4 141.4 429.4 112.3 412.0 87.15 390.85 68.3 401.8 69.6 411.9 79.15 420.8 87.6 436.9 112.65 452.3 136.7 460.35 153.95"/><path fill="#0d131a" d="M417.75 148.15 Q422.95 144.65 429.0 143.35 441.7 140.7 451.45 146.2 461.2 151.7 463.5 162.85 465.9 174.2 458.7 184.65 451.45 195.1 439.5 197.6 427.1 200.2 417.25 194.45 407.4 188.7 405.05 177.55 403.95 172.3 405.05 166.95 406.1 161.55 409.2 156.8 412.6 151.65 417.75 148.15"/><path fill="#0d131a" d="M406.4 177.25 Q405.35 172.3 406.4 167.2 407.45 162.15 410.4 157.6 413.6 152.7 418.55 149.3 423.45 145.95 429.25 144.75 441.35 142.2 450.65 147.4 459.95 152.6 462.15 163.1 464.4 173.95 457.5 183.9 450.65 193.85 439.2 196.2 427.4 198.7 418.0 193.25 408.6 187.85 406.4 177.25"/><path fill="#0d131a" d="M409.5 183.45 Q407.7 175.95 407.7 173.7 407.7 167.2 411.55 161.1 415.5 154.9 422.35 150.75 430.85 145.7 440.25 146.35 451.55 147.05 459.9 156.3 468.85 166.2 476.65 189.05 485.75 215.65 485.75 241.3 485.75 248.25 481.6 254.6 478.05 259.95 473.2 262.8 463.9 268.15 451.35 268.55 438.8 268.95 431.0 264.1 427.8 262.15 425.05 256.45 422.7 251.65 422.7 249.7 422.7 232.45 417.6 210.65 414.1 195.85 409.5 183.45"/><path fill="#009f50" d="M423.05 151.95 Q431.4 147.0 440.3 147.65 450.9 148.4 458.85 157.25 466.15 165.3 474.25 191.7 483.05 220.25 483.8 243.45 484.15 254.8 472.5 261.6 463.45 266.8 451.35 267.2 439.3 267.6 431.7 262.95 424.55 258.5 425.0 251.05 426.05 233.8 420.25 211.0 417.1 198.55 411.1 182.45 L410.2 179.95 Q407.4 172.2 411.65 163.95 415.45 156.55 423.05 151.95"/><path fill="#008c46" d="M458.85 157.25 Q466.15 165.3 474.25 191.7 483.05 220.25 483.8 243.45 484.15 254.8 472.5 261.6 468.1 264.15 462.55 265.6 457.15 267.0 451.5 267.2 452.5 262.0 451.4 253.5 450.05 242.9 450.1 239.45 455.15 231.85 451.05 196.6 447.05 162.3 440.3 147.6 450.95 148.45 458.85 157.25"/><path fill="#0d131a" d="M413.95 171.8 Q415.9 171.15 418.3 172.7 421.85 175.1 423.75 180.15 425.45 184.75 425.45 190.7 425.45 197.3 422.35 205.05 L422.5 205.65 Q423.2 209.05 424.0 210.5 426.1 209.2 428.35 209.1 430.6 209.0 432.2 210.2 436.2 213.2 437.4 222.85 438.45 231.35 436.95 235.75 435.05 241.5 432.0 247.3 428.95 253.0 427.0 259.25 L426.7 260.25 426.1 259.4 Q423.5 255.75 423.8 250.95 L423.9 248.6 424.0 248.45 Q428.25 242.95 429.35 233.75 430.6 223.8 426.6 218.4 425.8 217.35 424.75 217.65 423.8 217.85 423.35 218.4 422.7 219.2 422.3 221.1 L421.25 221.1 Q419.55 212.4 416.9 203.4 L416.85 203.25 416.9 203.05 Q418.95 198.45 419.05 193.35 419.2 188.3 417.45 184.95 416.3 182.85 414.75 182.55 412.25 182.15 411.7 184.8 L411.35 186.65 409.05 180.35 Q408.1 177.7 407.95 175.05 L407.95 174.25 408.7 174.5 409.85 176.2 410.0 176.5 Q410.65 174.75 411.75 173.45 412.85 172.2 413.95 171.8"/><path fill="#ffec60" d="M415.15 180.7 Q412.25 180.15 411.15 183.0 L410.0 180.0 409.3 177.45 410.0 178.2 410.45 178.25 410.65 177.8 Q411.9 173.75 413.85 173.05 415.3 172.5 417.25 173.85 422.7 177.55 423.7 187.35 424.7 196.6 421.3 204.85 L421.25 205.0 421.45 205.9 Q422.45 210.4 423.35 211.55 L423.65 211.95 424.05 211.65 Q427.85 209.05 430.75 211.15 433.6 213.3 435.2 219.4 436.55 224.6 436.55 230.2 436.55 233.75 435.95 235.4 434.1 241.1 431.05 246.8 428.3 252.1 426.4 257.75 424.8 254.85 424.8 251.85 L424.9 248.95 Q428.15 244.75 429.9 239.5 431.6 234.45 431.6 229.4 431.6 221.85 427.95 216.95 426.8 215.4 425.05 215.8 423.05 216.25 421.85 219.0 420.25 211.35 417.95 203.3 420.25 197.85 420.25 191.8 420.25 186.8 418.6 183.65 417.3 181.1 415.15 180.7"/><path fill="#0d131a" d="M454.45 232.15 Q468.05 232.15 477.65 240.05 487.3 248.0 487.3 259.15 487.3 270.3 477.65 278.2 468.0 286.15 454.45 286.15 440.9 286.15 431.25 278.2 421.6 270.3 421.6 259.15 421.6 248.0 431.25 240.05 440.85 232.15 454.45 232.15"/><path fill="#0d131a" d="M476.7 241.0 Q485.9 248.55 485.9 259.15 485.9 269.75 476.7 277.25 467.45 284.75 454.45 284.75 441.45 284.75 432.2 277.25 423.0 269.75 423.0 259.15 423.0 248.55 432.2 241.0 441.45 233.5 454.45 233.5 467.45 233.5 476.7 241.0"/><path fill="#0d131a" d="M460.95 235.8 Q473.35 237.6 481.7 244.85 491.15 253.1 489.95 264.5 489.5 268.85 488.8 279.45 L487.6 296.95 Q483.2 347.85 479.85 357.85 477.2 365.7 458.95 368.3 441.45 370.8 425.9 366.7 417.1 364.4 410.25 355.55 408.1 352.75 406.4 349.7 L405.15 347.15 411.5 304.6 417.95 261.45 Q420.35 248.05 434.0 240.65 446.65 233.8 460.95 235.8"/><path fill="#009f50" d="M479.7 246.25 Q488.1 253.6 486.95 264.4 485.85 275.0 484.2 294.65 L480.7 332.85 Q478.6 352.3 477.0 357.1 474.55 364.4 457.45 366.85 441.0 369.2 426.25 365.35 418.25 363.25 413.5 359.6 406.7 354.35 408.2 346.8 L414.65 303.0 420.9 260.45 Q423.15 247.8 435.4 241.7 446.5 236.15 460.45 238.15 472.25 239.8 479.7 246.25"/><path fill="#008c46" d="M460.45 238.15 Q472.15 239.8 480.1 247.0 488.85 255.0 487.7 265.8 L484.95 296.05 Q483.2 316.8 481.05 333.55 478.75 351.9 477.0 357.1 474.55 364.4 457.45 366.85 441.0 369.2 426.25 365.35 422.25 364.35 418.85 362.75 428.1 355.8 437.15 297.25 L442.85 257.3 Q445.4 239.1 446.35 238.25 453.4 237.1 460.45 238.15"/><path fill="#0d131a" d="M465.7 243.85 Q481.05 237.8 482.75 238.95 483.15 239.2 483.15 239.7 483.15 244.15 482.15 269.05 480.95 297.8 480.05 303.75 479.2 309.4 472.1 316.7 468.1 320.85 460.3 326.95 L457.05 329.55 457.45 327.65 Q458.15 324.3 461.75 285.4 465.25 247.25 465.25 244.5 L465.25 244.05 465.7 243.85"/><path fill="#009f50" d="M481.75 240.1 L480.7 269.95 Q479.55 297.8 478.7 303.55 477.95 308.65 468.75 317.8 L459.65 326.0 Q460.7 317.75 463.85 283.25 L467.2 244.6 Q471.9 242.7 476.2 241.4 480.4 240.1 481.75 240.1"/><path fill="#0d131a" d="M481.25 233.85 Q484.15 232.9 485.9 234.7 487.05 235.85 487.35 237.4 487.8 239.5 486.15 270.0 L484.4 300.7 Q484.4 304.1 483.9 307.6 483.15 313.1 481.45 315.05 L473.45 323.8 Q465.05 332.7 463.0 333.25 461.35 333.7 459.4 332.65 457.5 331.65 456.6 330.05 455.05 327.1 455.65 325.2 456.1 323.75 458.45 321.65 L465.15 316.45 Q472.25 310.4 474.35 306.3 475.4 303.8 478.95 243.55 478.25 243.15 467.1 248.1 L464.5 248.0 Q463.5 247.15 463.15 245.35 462.35 240.8 465.7 239.4 469.55 237.75 481.25 233.85"/><path fill="#e85377" d="M481.6 235.2 Q484.65 234.7 485.55 239.15 L484.1 270.05 482.45 300.55 Q482.45 302.95 481.55 307.1 480.45 312.1 478.95 313.8 L471.8 321.7 Q464.25 329.75 462.2 330.3 460.55 330.75 458.7 328.45 456.7 326.05 459.1 323.9 L466.5 317.9 Q474.35 311.0 476.55 306.75 477.9 304.1 480.75 242.8 480.75 241.95 480.1 241.55 479.3 241.0 473.15 243.4 L467.1 245.9 Q464.85 246.8 464.7 244.2 464.55 241.55 466.25 240.7 468.3 239.8 473.85 237.8 L481.6 235.2"/><path fill="#0d131a" d="M456.6 330.7 Q462.8 334.4 466.85 340.0 470.85 345.45 472.4 351.75 473.95 358.05 472.9 364.45 471.9 370.85 468.5 376.3 465.1 381.75 459.75 385.6 449.0 393.4 435.45 390.8 421.95 388.2 413.6 376.7 404.85 364.6 405.85 351.85 406.85 339.05 417.15 331.6 422.6 327.65 429.3 326.15 436.0 324.7 443.15 325.8 450.4 326.95 456.6 330.7"/><path fill="#0d131a" d="M465.75 340.8 Q469.55 346.05 471.05 352.1 472.55 358.15 471.55 364.25 470.6 370.3 467.3 375.55 464.05 380.75 458.95 384.45 448.65 391.95 435.65 389.45 422.7 386.95 414.75 375.9 406.3 364.3 407.2 352.05 408.15 339.85 417.95 332.75 423.15 328.95 429.6 327.5 436.1 326.1 442.9 327.2 449.9 328.35 455.9 331.9 461.85 335.45 465.75 340.8"/><path fill="#0d131a" d="M405.7 72.25 Q413.5 69.7 418.0 70.3 423.4 71.05 437.1 90.9 450.55 110.4 450.15 115.55 449.8 120.1 448.05 125.6 446.25 131.1 443.35 136.6 L442.65 138.0 442.1 136.55 Q439.2 128.6 398.15 76.15 L397.6 75.45 398.4 75.05 405.7 72.25"/><path fill="#009f50" d="M435.75 91.65 Q448.75 110.55 448.75 115.3 L448.75 115.45 Q448.15 123.75 443.25 133.6 440.35 127.8 429.9 113.8 417.95 97.7 399.8 75.95 411.75 70.85 417.85 71.7 422.5 72.35 435.75 91.65"/><path fill="#0d131a" d="M406.4 69.0 Q412.2 66.95 414.8 66.5 418.95 65.85 420.85 67.6 425.7 72.05 436.7 85.95 451.15 104.2 453.2 112.9 453.9 115.45 453.9 116.5 453.9 120.7 451.15 128.15 448.75 134.7 446.55 138.0 445.85 139.1 444.7 139.4 443.55 139.65 442.25 138.95 440.95 138.3 440.2 137.05 439.4 135.8 439.85 134.7 442.2 129.0 443.35 125.35 445.2 119.35 445.15 115.65 445.1 112.1 432.45 94.75 420.0 77.7 416.3 75.45 415.7 75.1 408.65 77.35 L401.75 79.65 399.2 79.5 Q397.5 79.05 396.75 78.3 395.85 77.4 395.5 76.15 395.15 74.95 395.5 73.85 396.1 71.85 398.7 71.3 401.2 70.85 406.4 69.0"/><path fill="#e85377" d="M412.95 73.55 Q410.4 74.2 404.25 76.4 L399.85 77.95 Q398.75 78.3 397.75 77.3 397.1 76.7 396.85 75.85 396.6 74.95 396.85 74.25 397.25 73.0 398.95 72.7 401.25 72.25 406.85 70.3 412.15 68.45 414.5 68.0 418.4 67.25 419.9 68.6 424.0 72.3 435.4 87.5 449.55 106.3 451.55 114.65 452.3 117.75 449.9 126.0 447.65 133.8 445.4 137.25 444.5 138.65 442.9 137.7 442.05 137.25 441.5 136.45 440.95 135.7 441.15 135.2 L445.1 124.6 Q446.85 118.95 446.8 115.25 446.75 111.15 433.3 92.95 420.35 75.4 416.85 73.3 L412.95 73.55"/><path fill="#0d131a" d="M360.0 110.3 L360.45 109.25 361.15 110.15 379.25 134.15 Q396.9 158.65 400.15 168.0 400.55 169.1 399.6 169.75 397.55 171.25 389.0 169.7 380.6 168.15 377.9 166.0 375.0 163.8 364.2 146.7 352.85 128.8 353.8 125.85 355.05 122.05 357.65 115.85 L360.0 110.3"/><path fill="#009f50" d="M360.8 111.95 Q366.35 119.05 378.9 137.6 394.05 160.0 397.95 168.35 L398.9 168.55 397.25 168.75 Q394.3 169.45 387.65 168.05 381.0 166.65 378.75 164.9 375.8 162.6 365.55 146.2 355.1 129.5 355.1 126.55 L355.15 126.3 Q356.7 121.45 360.8 111.95"/><path fill="#0d131a" d="M364.35 111.65 L360.8 118.75 Q357.55 126.4 359.15 129.0 L369.0 145.1 Q379.2 161.4 381.1 162.45 383.05 163.5 388.0 163.8 L399.1 164.4 Q402.9 164.7 403.5 168.7 404.15 172.65 400.8 173.05 397.25 174.2 389.05 173.25 380.4 172.2 377.85 169.8 371.4 163.75 361.05 147.3 351.75 132.6 350.55 128.6 349.0 123.5 353.45 113.95 L358.25 105.45 Q359.05 103.7 360.35 103.8 364.05 104.1 364.85 107.25 365.45 109.7 364.35 111.65"/><path fill="#e85377" d="M360.45 105.2 Q361.85 105.5 362.85 107.4 363.85 109.2 363.3 110.15 L359.2 117.7 Q355.5 126.0 357.6 130.05 L365.0 142.4 373.8 156.8 Q377.8 162.7 380.1 164.0 385.25 166.8 399.2 165.8 399.55 165.8 400.1 166.7 400.8 167.7 401.05 169.05 401.45 171.4 400.35 171.75 397.15 172.8 389.3 171.85 381.05 170.9 378.8 168.75 372.5 162.85 362.4 146.1 353.45 131.4 352.2 127.2 351.35 124.35 352.95 119.85 353.95 117.0 357.0 111.1 L358.6 108.1 Q360.25 105.15 360.45 105.2"/><path fill="#0d131a" d="M76.45 346.75 Q76.85 343.95 79.9 337.7 83.6 330.05 88.7 323.55 103.25 304.75 120.7 305.25 130.35 305.5 136.5 307.1 146.25 309.65 152.55 316.15 156.6 320.3 155.65 331.3 154.75 341.85 150.15 350.85 145.75 359.4 140.4 363.9 131.65 371.2 119.55 369.4 97.45 366.1 86.15 359.95 75.45 354.05 76.45 346.75"/><path fill="#008c46" d="M152.7 332.25 Q152.6 341.5 148.3 349.9 144.65 357.0 138.9 361.0 130.65 366.8 119.2 365.1 76.9 358.85 78.55 347.05 78.8 345.15 81.4 339.65 84.85 332.55 89.4 326.5 103.1 308.5 120.3 308.95 128.65 309.2 134.7 311.1 143.25 313.75 149.3 319.95 152.8 323.55 152.7 332.25"/><path fill="#0d131a" d="M77.0 326.85 Q74.4 321.75 75.25 316.9 76.7 308.5 84.0 302.8 92.9 295.8 107.1 296.35 112.5 296.55 119.5 300.85 125.85 304.8 128.35 308.65 131.2 313.0 127.85 322.5 124.55 331.85 119.15 335.55 113.05 339.75 97.4 336.75 L87.25 334.2 83.0 332.85 Q79.5 331.7 77.0 326.85"/><path fill="#009f50" d="M79.05 317.35 Q80.35 310.0 87.05 305.45 95.05 300.0 108.5 300.5 113.75 300.7 119.5 303.9 124.6 306.75 126.6 309.75 127.45 311.05 127.45 313.25 127.45 317.6 124.6 323.05 121.6 328.7 117.65 331.4 111.85 335.4 100.5 333.7 94.35 332.8 84.65 329.65 L83.45 329.25 Q80.85 328.4 79.6 324.95 78.3 321.5 79.05 317.35"/><path fill="#008c46" d="M80.15 326.15 Q78.9 323.8 78.8 320.6 92.05 320.45 100.5 316.45 110.75 311.5 112.9 301.2 117.25 302.35 121.35 305.0 125.1 307.45 126.6 309.75 127.45 311.05 127.45 313.25 127.45 317.6 124.6 323.05 121.6 328.7 117.65 331.4 111.85 335.4 100.5 333.7 94.35 332.8 84.65 329.65 L83.45 329.25 Q81.4 328.6 80.15 326.15"/><path fill="#0d131a" d="M71.35 374.8 Q65.5 375.55 60.35 372.95 56.55 371.1 54.25 368.2 52.05 365.55 51.4 360.75 50.85 356.8 51.5 353.85 54.95 338.6 77.1 329.75 80.35 328.45 83.8 329.25 87.25 330.05 90.2 332.8 94.2 336.45 96.15 341.1 98.2 346.05 97.0 349.95 94.6 357.8 87.5 365.3 79.5 373.85 71.35 374.8"/><path fill="#009f50" d="M77.9 331.7 Q83.4 329.5 88.8 334.35 92.15 337.4 93.7 341.95 95.25 346.45 94.2 349.9 92.35 355.95 83.5 363.05 75.25 369.65 71.35 369.7 62.25 369.85 57.95 364.55 56.0 362.2 55.45 359.15 54.95 356.65 55.45 354.3 57.35 345.65 65.1 339.2 70.45 334.7 77.9 331.7"/><path fill="#008c46" d="M69.45 336.0 Q73.35 333.5 77.9 331.7 83.4 329.5 88.8 334.35 92.15 337.4 93.7 341.95 95.25 346.45 94.2 349.9 92.35 355.95 83.5 363.05 75.25 369.65 71.35 369.7 L66.55 369.3 Q71.35 361.0 72.3 352.95 73.3 344.05 69.45 336.0"/><path fill="#0d131a" d="M68.45 353.65 Q71.55 353.4 74.65 354.55 76.95 355.45 80.3 357.55 83.5 359.5 91.4 362.85 96.65 365.0 96.4 366.35 96.2 367.2 92.55 368.8 89.5 370.2 82.6 371.7 74.0 373.55 69.35 372.85 65.3 372.2 62.85 369.2 60.65 366.4 60.65 362.85 60.6 359.6 62.75 356.85 65.1 353.9 68.45 353.65"/><path fill="#eeeeef" d="M70.2 370.9 Q66.75 370.6 64.8 368.05 63.1 365.75 63.1 362.5 63.05 359.7 64.4 357.6 65.9 355.2 68.55 355.0 71.25 354.8 74.6 356.35 76.6 357.25 80.3 359.6 L87.8 363.4 Q92.9 366.1 91.25 366.8 86.65 368.8 80.9 370.0 74.7 371.25 70.2 370.9"/><path fill="#c8c9ca" d="M80.9 370.0 Q74.7 371.25 70.2 370.9 67.0 370.65 65.05 368.35 63.35 366.3 63.1 363.3 73.35 367.35 87.95 363.5 92.9 366.1 91.25 366.8 86.65 368.8 80.9 370.0"/><path fill="#0d131a" d="M120.05 354.1 Q122.95 352.5 126.05 352.3 129.4 352.1 132.15 354.7 134.65 357.1 135.1 360.3 135.6 363.8 133.8 366.85 131.85 370.2 127.9 371.45 123.4 372.8 114.6 372.2 107.6 371.7 104.35 370.75 100.5 369.65 100.25 368.9 99.75 367.6 104.65 364.7 112.45 359.95 114.9 357.85 117.9 355.3 120.05 354.1"/><path fill="#eeeeef" d="M116.05 370.25 Q110.25 369.9 105.35 368.6 103.65 368.15 108.3 364.75 L115.15 359.9 Q118.45 357.05 120.35 355.85 123.45 353.85 126.1 353.7 128.8 353.55 130.65 355.65 132.25 357.5 132.65 360.3 133.05 363.55 131.7 366.05 130.15 368.9 126.75 369.65 L116.05 370.25"/><path fill="#0d131a" d="M63.55 341.1 Q64.45 336.15 66.95 330.5 70.15 323.25 74.8 317.9 77.4 314.95 81.9 314.75 85.1 314.6 87.85 315.65 90.9 316.8 93.2 319.65 95.55 322.5 95.75 325.3 95.9 327.2 94.65 329.0 93.5 330.6 91.5 331.75 87.55 334.05 79.25 340.7 L71.75 346.9 Q66.45 351.15 65.0 350.3 63.7 349.5 63.3 347.3 62.85 344.85 63.55 341.1"/><path fill="#eeeeef" d="M76.45 320.15 Q81.55 315.35 87.2 317.6 89.8 318.6 91.65 320.85 93.45 323.05 93.65 325.4 93.85 328.75 90.8 330.55 84.35 334.3 70.65 345.35 68.0 347.5 66.95 346.5 65.75 345.4 66.4 339.85 66.85 335.65 69.55 330.0 72.55 323.75 76.45 320.15"/><path fill="#c8c9ca" d="M70.65 345.35 L70.45 345.5 Q77.9 331.45 91.1 320.25 93.4 322.65 93.65 325.4 93.85 328.75 90.8 330.55 84.35 334.3 70.65 345.35"/><path fill="#0d131a" d="M366.75 201.25 L368.2 201.4 Q370.85 206.55 381.05 243.95 L390.7 280.3 Q392.3 286.2 391.45 292.2 390.75 297.1 388.0 303.9 L375.6 329.75 374.0 330.05 333.5 235.25 366.75 201.25"/><path fill="#c94768" d="M379.15 245.05 L388.75 279.85 Q389.55 282.6 389.55 285.9 389.55 289.45 388.5 293.65 387.75 296.65 386.2 301.0 L386.15 301.2 Q384.9 304.65 380.3 314.2 L374.1 326.75 335.15 235.55 366.35 203.6 Q369.0 209.15 379.15 245.05"/><path fill="#0d131a" d="M336.85 236.0 L362.8 213.1 368.55 231.45 383.7 281.2 Q386.45 290.45 382.6 298.75 L372.9 320.1 336.85 236.0"/><path fill="#008c46" d="M360.7 215.6 Q362.65 220.45 368.05 237.2 374.85 258.35 382.0 283.2 382.45 284.8 382.35 288.5 382.2 293.65 380.6 297.35 373.85 312.5 371.85 316.15 L338.55 236.35 360.7 215.6"/><path fill="#0d131a" d="M377.6 330.95 Q385.1 340.05 391.95 343.8 397.15 346.65 401.55 346.25 404.4 346.0 406.65 344.45 408.35 343.3 409.1 341.95 410.0 340.3 413.05 337.5 417.05 333.85 421.75 331.5 435.65 324.55 449.4 331.55 458.1 336.0 463.35 343.75 467.35 349.6 469.1 357.0 471.0 365.15 469.9 373.3 468.75 381.45 465.0 386.55 447.5 410.4 419.2 419.0 391.25 427.5 366.45 417.05 344.4 407.7 330.0 390.7 318.35 376.95 316.05 364.65 314.25 354.95 316.6 348.4 319.35 340.9 328.1 335.7 340.4 328.4 357.15 327.05 373.3 325.8 377.6 330.95"/><path fill="#009f50" d="M391.5 345.15 Q396.95 348.05 401.7 347.6 404.95 347.3 407.5 345.5 409.45 344.15 410.3 342.6 411.15 341.1 414.1 338.45 417.95 335.05 422.5 332.8 435.8 326.2 448.75 332.8 457.15 337.05 462.2 344.55 466.05 350.15 467.75 357.3 469.6 365.05 468.5 373.0 467.45 380.9 463.9 385.75 446.55 409.35 420.0 416.75 393.5 424.1 366.45 412.9 345.5 404.2 331.4 387.35 322.25 376.45 317.35 364.15 313.65 354.85 317.95 347.2 321.2 341.35 328.8 336.9 340.55 329.95 356.8 328.5 372.6 327.05 376.55 331.85 384.3 341.25 391.5 345.15"/><path fill="#008c46" d="M376.55 331.85 Q384.3 341.25 391.5 345.15 396.95 348.05 401.7 347.6 403.7 347.45 405.75 346.5 410.3 352.6 414.75 351.45 427.45 347.65 432.35 329.75 440.8 328.75 448.75 332.8 457.15 337.05 462.2 344.55 466.05 350.15 467.75 357.3 469.6 365.05 468.5 373.0 467.45 380.9 463.9 385.75 447.2 408.45 421.85 416.2 396.6 423.9 370.4 414.4 357.65 405.6 349.45 385.4 344.75 373.95 333.75 334.35 345.65 329.0 359.5 328.3 373.05 327.6 376.55 331.85"/><path fill="#0d131a" d="M348.25 328.3 L348.85 328.2 349.05 328.75 Q351.45 334.6 358.2 344.7 365.1 354.9 366.9 355.1 370.75 350.7 376.55 349.5 382.1 348.3 387.8 350.45 395.25 353.3 399.45 360.95 403.65 368.6 403.65 379.35 L403.6 380.2 Q404.9 381.05 412.2 381.35 L420.9 380.85 420.35 377.9 Q418.5 369.0 418.5 363.45 418.5 357.85 420.5 354.15 422.7 350.15 427.9 347.0 432.65 343.9 439.0 345.3 443.65 346.35 447.6 349.25 L448.95 350.2 Q449.75 349.2 451.2 344.05 452.6 338.8 453.1 335.0 L453.25 333.85 454.2 334.5 Q457.8 337.1 460.4 340.0 L460.6 340.2 460.6 340.5 Q460.4 344.25 459.25 349.6 457.9 355.75 456.3 358.1 457.9 365.6 457.9 372.15 457.9 384.85 451.65 391.85 447.75 396.2 442.3 397.65 435.75 399.35 429.45 396.8 423.15 394.3 421.25 389.3 L411.75 390.25 402.1 389.65 Q393.65 398.2 385.25 400.4 376.85 402.6 369.9 398.0 361.3 392.3 358.85 381.75 356.7 372.25 360.25 363.5 356.85 360.05 350.8 349.6 345.1 339.75 341.2 330.9 L340.85 330.2 341.6 329.95 348.25 328.3"/><path fill="#ddcc54" d="M357.05 345.5 Q364.25 356.45 367.0 357.55 370.7 353.2 376.35 351.55 382.15 349.85 387.3 351.75 394.55 354.5 398.5 362.1 402.45 369.65 402.2 380.4 402.2 381.05 402.95 381.4 404.9 382.45 412.55 382.75 420.3 383.05 421.85 381.95 422.35 381.6 422.35 380.95 L421.7 377.65 Q419.7 367.7 420.3 362.15 421.3 352.55 428.95 347.95 433.15 345.15 438.85 346.55 443.0 347.6 446.75 350.35 L448.9 351.7 449.65 351.5 Q450.75 350.7 452.3 345.25 453.55 340.7 454.3 336.35 457.0 338.4 459.15 340.75 458.95 344.75 457.75 350.0 456.45 355.75 455.05 357.6 L454.85 357.85 454.9 358.15 Q456.55 365.85 456.55 372.1 456.55 384.25 450.7 390.85 447.05 395.0 441.95 396.3 435.7 397.9 429.75 395.45 423.75 393.0 422.3 388.25 L422.05 387.45 421.3 387.85 Q420.15 388.5 412.4 388.8 L402.2 388.25 401.75 388.0 401.4 388.4 Q393.3 396.75 385.25 399.0 377.2 401.2 370.65 396.85 365.7 393.55 362.85 387.4 360.05 381.35 360.05 374.45 360.05 368.3 362.3 363.15 L362.45 362.7 362.1 362.35 Q358.75 359.15 352.7 349.35 346.65 339.5 342.8 331.1 L348.0 329.8 Q350.5 335.55 357.05 345.5"/><path fill="#0d131a" d="M389.25 359.1 Q393.5 363.3 394.45 368.3 395.2 372.15 393.95 376.15 392.25 381.75 387.45 386.3 382.65 390.8 377.35 391.75 371.7 392.85 368.65 388.85 363.75 382.6 365.35 372.7 366.85 363.25 372.65 358.05 376.5 354.6 380.85 354.9 385.2 355.15 389.25 359.1"/><path fill="#008c46" d="M370.2 387.9 Q365.7 382.05 367.15 373.0 368.5 364.4 373.95 359.5 381.15 353.15 388.25 360.1 395.3 366.95 392.65 375.75 391.1 380.95 386.55 385.2 382.0 389.5 377.1 390.4 372.75 391.2 370.2 387.9"/><path fill="#009f50" d="M434.1 351.95 Q437.7 351.4 441.6 353.65 445.45 355.95 448.3 360.3 451.6 365.35 452.2 371.15 452.85 378.05 449.2 383.9 445.05 390.45 439.2 390.0 435.65 389.75 432.3 387.0 429.25 384.55 427.8 381.35 426.05 377.4 426.25 369.55 426.45 361.0 429.1 356.1 431.1 352.5 434.1 351.95"/><path fill="#009f50" d="M441.0 354.95 Q444.55 357.1 447.15 361.05 450.25 365.8 450.8 371.25 451.45 377.7 448.0 383.15 444.35 389.0 439.3 388.6 436.2 388.4 433.2 385.95 430.35 383.65 429.05 380.75 427.4 377.1 427.65 369.5 427.9 361.35 430.35 356.75 432.0 353.7 434.3 353.35 437.45 352.85 441.0 354.95"/><path fill="#0d131a" d="M217.85 162.3 Q219.45 160.45 223.3 160.65 226.75 160.9 231.1 162.75 239.85 166.55 269.0 190.4 L270.15 191.55 245.35 215.55 244.85 214.8 232.75 197.2 Q220.85 179.55 218.75 174.2 217.3 170.5 217.0 167.2 216.65 163.65 217.85 162.3"/><path fill="#e85377" d="M228.7 164.45 Q234.15 166.85 248.25 177.15 258.55 184.7 266.55 191.25 L245.55 213.3 Q224.45 180.1 221.35 172.15 220.05 168.8 220.05 166.55 220.05 164.7 220.95 163.85 222.9 161.9 228.7 164.45"/><path fill="#0d131a" d="M232.0 177.6 Q229.75 173.65 232.1 173.75 233.3 173.85 234.9 174.7 237.6 175.8 244.7 181.05 L259.55 192.65 261.0 195.15 260.65 195.65 256.85 201.1 Q253.5 205.35 251.8 205.55 251.0 205.65 250.6 205.15 249.0 203.55 241.85 192.95 234.65 182.3 232.0 177.6"/><path fill="#009f50" d="M259.15 195.45 Q256.8 199.1 254.5 201.75 252.25 204.4 251.6 204.2 250.15 202.8 243.6 192.65 236.85 182.2 234.45 177.45 239.4 179.8 257.45 194.1 L259.15 195.45"/><path fill="#0d131a" d="M324.1 215.35 Q333.5 225.25 342.4 240.7 346.95 248.45 361.0 284.25 374.3 318.2 375.5 323.4 378.9 338.3 370.7 350.75 363.35 362.0 350.0 366.85 337.05 371.55 324.55 368.0 310.6 364.05 304.1 351.25 287.3 318.4 279.9 306.7 270.85 292.35 261.15 285.1 243.2 271.65 237.85 248.1 232.9 226.15 241.25 209.0 247.35 196.5 258.8 191.9 270.25 187.25 285.0 191.25 307.0 197.25 324.1 215.35"/><path fill="#0d131a" d="M359.7 284.75 Q372.95 318.5 374.15 323.7 377.4 337.9 369.2 349.5 362.0 359.7 348.9 364.5 336.3 369.1 324.7 366.1 311.55 362.75 305.3 350.6 288.75 318.2 281.7 306.95 272.05 291.5 262.0 284.0 244.45 270.8 239.2 247.85 234.35 226.35 242.5 209.6 248.4 197.65 259.4 193.15 270.45 188.7 284.65 192.6 306.3 198.5 323.15 216.35 332.3 226.05 341.2 241.4 345.7 249.1 359.7 284.75"/><path fill="#0d131a" d="M336.8 223.8 Q339.35 227.7 342.05 233.85 345.7 242.05 344.0 243.75 342.85 244.85 340.3 243.1 335.6 240.0 326.7 241.05 321.3 241.65 308.95 244.95 L304.55 246.1 304.75 245.05 Q309.85 218.4 298.7 203.6 290.05 192.2 272.3 190.85 267.35 191.25 267.05 190.4 266.9 190.0 268.6 189.05 270.3 188.15 272.45 187.45 293.0 181.0 312.5 196.0 324.65 205.3 336.8 223.8"/><path fill="#009f50" d="M326.85 239.65 Q321.35 240.25 308.6 243.6 L306.3 244.2 Q307.75 235.9 307.75 229.55 307.75 213.25 299.8 202.75 295.05 196.55 287.95 192.8 283.0 190.25 277.4 189.1 291.85 186.15 310.9 199.65 326.5 210.75 335.6 224.55 338.4 228.75 341.05 235.15 343.9 241.85 343.0 242.75 L342.5 242.7 341.1 241.95 Q336.05 238.6 326.85 239.65"/><path fill="#008c46" d="M335.6 224.55 Q338.4 228.75 341.05 235.15 343.9 241.85 343.0 242.75 L342.5 242.7 341.1 241.95 Q336.05 238.6 326.85 239.65 321.35 240.25 308.6 243.6 L306.3 244.2 Q307.75 235.9 307.75 229.55 307.75 223.6 306.6 218.15 310.2 216.25 308.0 210.2 306.65 206.4 302.35 199.85 299.8 195.9 305.15 197.9 308.9 199.3 315.35 203.05 321.65 208.05 327.2 214.05 332.3 219.55 335.6 224.55"/><path fill="#0d131a" d="M275.35 295.15 Q273.95 293.75 274.5 288.9 275.05 283.75 277.55 278.4 281.4 269.95 288.2 264.9 297.95 257.65 312.25 258.75 L313.1 258.8 312.85 259.65 312.05 262.9 Q311.15 266.85 310.8 270.85 309.65 283.55 313.95 291.7 L314.15 292.1 311.45 295.6 304.1 304.75 Q301.35 307.9 300.35 308.1 298.65 308.45 288.25 303.05 277.85 297.65 275.35 295.15"/><path fill="#009f50" d="M278.8 278.95 Q282.45 271.05 288.85 266.2 298.0 259.25 311.3 260.1 309.1 267.55 309.1 275.85 309.1 285.15 312.5 291.95 L310.3 294.75 Q301.45 306.4 300.05 306.75 298.65 306.85 288.85 301.8 278.75 296.6 276.3 294.15 275.35 293.2 275.85 288.95 276.45 284.1 278.8 278.95"/><path fill="#008c46" d="M275.85 289.15 Q276.4 284.1 278.8 278.95 282.45 271.05 288.85 266.2 298.0 259.25 311.3 260.1 309.1 267.55 309.1 275.85 309.1 285.15 312.5 291.95 L307.4 298.55 Q290.75 290.6 275.85 289.15"/><path fill="#0d131a" d="M289.85 308.6 L298.2 313.9 Q299.0 314.25 301.8 319.9 L311.4 340.5 Q320.15 359.7 320.95 360.55 321.25 360.85 320.8 362.15 320.35 363.45 320.1 363.45 316.7 363.7 310.0 360.5 302.0 356.75 299.2 351.55 L272.25 301.65 273.45 299.2 Q273.95 298.7 276.05 299.85 279.0 301.5 289.85 308.6"/><path fill="#009f50" d="M310.1 341.05 Q318.1 358.5 319.5 360.9 316.1 360.8 311.15 358.5 304.55 355.45 301.95 350.6 L290.0 328.1 275.45 301.1 Q278.3 302.7 289.1 309.75 L297.7 315.2 Q298.65 316.0 310.1 341.05"/><path fill="#0d131a" d="M364.95 320.4 Q370.55 336.15 368.75 341.4 364.75 352.75 354.6 358.5 348.5 362.0 341.5 362.85 L332.8 362.6 Q328.95 361.75 327.75 359.9 325.7 356.75 315.2 336.35 304.0 314.45 304.4 313.2 304.8 312.0 311.15 305.2 317.7 298.15 319.3 297.7 L320.15 297.9 Q333.15 309.5 346.35 308.4 353.05 307.8 357.55 304.6 L358.2 304.1 358.6 304.85 364.95 320.4"/><path fill="#009f50" d="M367.4 340.95 Q363.6 351.8 353.9 357.3 348.0 360.65 341.35 361.45 L333.15 361.2 Q329.8 360.5 328.9 359.15 326.3 355.15 316.7 335.7 307.15 316.4 306.6 314.25 307.7 312.4 312.65 306.4 318.1 299.8 319.5 299.15 331.7 309.95 344.45 309.75 351.95 309.65 357.65 306.15 367.8 328.85 367.8 338.1 367.8 339.9 367.4 340.95"/><path fill="#008c46" d="M367.8 338.1 Q367.8 339.9 367.4 340.95 363.75 351.4 354.6 356.9 348.8 360.4 342.0 361.35 336.85 345.05 328.4 325.0 319.55 304.0 316.55 301.9 318.7 299.5 319.5 299.15 331.7 309.95 344.45 309.75 351.95 309.65 357.65 306.15 367.8 328.85 367.8 338.1"/><path fill="#0d131a" d="M359.9 276.75 L362.15 274.9 368.35 291.25 374.95 309.05 Q376.45 314.45 376.1 321.2 375.8 327.0 374.7 328.85 L372.65 327.5 Q369.45 317.8 365.5 308.65 L362.2 301.35 362.15 301.25 359.9 276.75"/><path fill="#009f50" d="M364.85 290.55 Q372.1 310.2 373.0 313.6 374.1 317.5 374.1 320.75 374.1 323.45 373.4 325.35 370.35 316.35 366.75 308.0 L363.5 300.85 361.8 282.25 364.85 290.55"/><path fill="#0d131a" d="M330.9 206.05 Q337.15 203.3 347.55 198.8 L348.35 199.85 339.0 211.45 Q329.15 222.85 323.9 225.25 320.85 226.65 318.35 225.2 316.55 224.15 315.35 221.9 314.25 219.8 314.35 217.15 314.5 214.1 316.5 212.85 319.3 211.1 330.9 206.05"/><path fill="#e85377" d="M345.35 201.35 Q330.45 219.3 323.55 222.4 320.9 223.6 318.95 223.1 317.3 222.65 316.55 221.25 316.05 220.15 316.05 219.15 316.05 216.7 318.2 215.4 321.25 213.55 330.15 208.9 339.05 204.35 345.35 201.35"/><path fill="#0d131a" d="M364.55 253.25 Q373.5 262.4 373.35 274.45 373.2 288.35 364.4 297.6 355.9 306.6 343.95 306.6 332.4 306.6 323.75 296.9 315.25 287.4 315.25 275.15 315.25 262.95 323.75 253.6 332.35 244.1 343.95 244.1 355.65 244.1 364.55 253.25"/><path fill="#009f50" d="M362.5 294.8 Q354.6 302.95 343.5 302.95 332.4 302.95 324.55 294.8 316.65 286.65 316.65 275.15 316.65 263.65 324.55 255.5 332.4 247.35 343.5 247.35 354.6 247.35 362.5 255.5 370.35 263.65 370.35 275.15 370.35 286.65 362.5 294.8"/><path fill="#008c46" d="M346.55 247.55 Q356.65 248.7 363.5 256.6 370.35 264.5 370.35 275.15 370.35 286.65 362.5 294.8 354.6 302.95 343.5 302.95 337.15 302.95 331.5 300.05 326.05 297.2 322.3 292.15 336.95 287.15 343.5 277.15 351.35 265.2 346.55 247.55"/><path fill="#0d131a" d="M343.25 296.5 Q343.25 292.65 346.15 289.45 349.15 286.15 352.9 286.15 356.85 286.15 360.0 289.0 363.25 291.85 363.25 295.6 363.25 299.35 360.25 302.35 357.25 305.35 353.45 305.35 349.5 305.35 346.4 302.8 343.25 300.15 343.25 296.5"/><path fill="#008c46" d="M361.35 296.25 Q361.35 299.45 359.05 301.7 356.7 303.95 353.45 303.95 350.2 303.95 347.85 301.7 345.55 299.45 345.55 296.25 345.55 293.05 347.85 290.8 350.2 288.55 353.45 288.55 356.7 288.55 359.05 290.8 361.35 293.05 361.35 296.25"/><path fill="#0d131a" d="M350.45 290.2 Q353.9 288.95 357.6 289.7 361.3 290.45 362.8 292.65 364.2 294.65 368.8 305.85 374.15 318.85 377.5 329.7 378.65 333.3 376.7 336.5 374.95 339.4 371.4 341.1 367.5 342.95 363.35 343.05 358.7 343.15 357.2 340.75 353.6 334.9 348.05 316.7 L343.25 299.65 Q343.05 296.75 345.25 294.0 347.35 291.35 350.45 290.2"/><path fill="#009f50" d="M361.1 293.85 Q362.15 295.4 366.4 306.85 370.95 319.1 374.45 330.3 375.7 334.2 374.15 336.9 373.05 338.75 370.8 339.85 367.85 341.3 364.4 340.8 360.95 340.35 359.65 338.3 358.15 336.05 352.15 319.95 345.85 302.95 345.55 299.0 345.3 296.05 347.1 294.1 348.4 292.75 350.45 292.0 353.45 290.9 356.65 291.5 359.85 292.05 361.1 293.85"/><path fill="#008c46" d="M347.1 294.1 Q348.4 292.75 350.45 292.0 353.45 290.9 356.65 291.5 359.85 292.05 361.1 293.85 362.15 295.4 366.4 306.85 370.95 319.1 374.45 330.3 375.7 334.2 374.15 336.9 373.05 338.75 370.8 339.85 L370.5 340.0 Q365.45 326.25 361.05 318.75 354.7 307.75 346.2 302.25 345.6 299.9 345.55 299.0 345.3 296.05 347.1 294.1"/><path fill="#0d131a" d="M370.65 328.25 Q375.5 328.6 378.8 331.25 382.15 334.0 382.15 337.95 382.15 341.95 378.8 344.75 375.4 347.6 370.65 347.6 365.75 347.6 362.1 344.85 358.3 342.0 358.3 338.05 358.3 333.75 361.35 331.0 364.8 327.9 370.65 328.25"/><path fill="#008c46" d="M370.65 346.2 Q366.45 346.2 363.5 343.8 360.5 341.35 360.5 337.95 360.5 334.5 363.5 332.1 366.45 329.65 370.65 329.65 374.85 329.65 377.85 332.1 380.8 334.5 380.8 337.95 380.8 341.35 377.85 343.8 374.85 346.2 370.65 346.2"/><path fill="#0d131a" d="M371.85 329.0 Q377.65 328.0 382.7 330.65 388.65 333.8 425.3 350.2 427.4 351.2 427.5 353.8 427.55 355.85 426.35 359.4 424.0 366.35 416.8 373.7 408.8 381.85 403.35 380.55 396.4 378.95 383.4 369.4 371.75 360.8 365.45 353.85 360.0 347.85 360.25 341.45 360.4 337.1 362.75 334.15 365.95 330.05 371.85 329.0"/><path fill="#009f50" d="M400.95 342.15 L422.9 352.7 Q425.95 354.1 424.4 358.75 422.3 364.85 415.4 370.75 408.3 376.85 403.75 375.8 397.05 374.25 384.6 365.55 373.0 357.45 367.3 351.05 363.45 346.8 362.7 342.7 361.95 338.6 364.4 335.45 367.15 331.9 372.25 331.05 377.3 330.15 381.75 332.5 L400.95 342.15"/><path fill="#008c46" d="M395.45 345.9 Q380.2 337.8 366.2 333.65 369.25 331.2 373.6 330.85 378.0 330.5 381.75 332.5 L400.95 342.15 422.9 352.7 Q425.95 354.1 424.4 358.75 L422.6 362.4 Q406.95 352.0 395.45 345.9"/><path fill="#0d131a" d="M387.25 389.6 Q387.25 380.8 390.75 376.2 L390.75 373.55 Q397.05 365.1 410.35 355.55 427.35 343.35 439.4 343.6 451.45 343.9 465.05 353.9 479.4 364.55 481.95 376.95 489.95 416.6 479.95 419.6 463.1 424.6 430.9 417.75 418.2 415.05 407.45 411.35 397.1 407.7 393.55 404.9 387.25 399.9 387.25 389.6"/><path fill="#009f50" d="M392.4 377.45 Q398.4 369.5 412.8 358.7 429.85 345.95 439.45 345.7 450.5 345.45 463.75 355.35 477.5 365.7 479.9 377.4 483.3 394.15 483.05 404.85 482.8 415.55 478.9 417.8 473.85 420.7 437.4 414.45 400.95 408.15 394.85 403.3 389.3 398.9 389.3 389.55 389.35 381.5 392.4 377.45"/><path fill="#008c46" d="M389.7 393.9 Q388.8 388.85 390.05 383.3 408.55 372.9 428.4 367.1 448.8 361.1 469.5 360.3 478.1 368.75 479.9 377.4 483.3 394.15 483.05 404.85 482.8 415.55 478.9 417.8 473.85 420.7 437.4 414.45 400.95 408.15 394.85 403.3 390.8 400.05 389.7 393.9"/><path fill="#0d131a" d="M487.25 385.1 Q493.25 385.1 499.95 392.3 506.15 398.95 509.6 407.8 512.55 415.45 511.3 420.45 510.35 424.15 505.65 429.75 502.15 434.2 496.65 437.0 485.7 442.6 475.8 434.45 472.15 431.45 467.65 421.7 463.1 411.75 463.8 407.7 465.15 400.15 474.4 392.25 482.8 385.1 487.25 385.1"/><path fill="#009f50" d="M497.95 394.05 Q503.1 400.2 506.5 408.95 509.1 415.65 507.5 420.55 506.35 424.05 501.95 428.65 496.0 434.9 487.7 435.35 480.95 435.7 477.05 432.8 473.9 430.45 469.65 421.0 465.4 411.5 465.9 408.0 466.4 404.4 475.55 395.75 484.5 387.2 487.25 387.2 492.3 387.2 497.95 394.05"/><path fill="#008c46" d="M487.25 387.2 Q492.3 387.2 497.95 394.05 503.1 400.2 506.5 408.95 509.1 415.65 507.5 420.55 506.35 424.05 501.95 428.65 496.0 434.9 487.7 435.35 480.95 435.7 477.05 432.8 L474.9 430.4 Q478.4 421.55 478.55 413.5 478.65 404.25 474.25 396.95 478.25 393.0 482.0 390.2 485.9 387.2 487.25 387.2"/><path fill="#0d131a" d="M369.95 374.65 Q374.3 366.75 384.15 364.45 392.55 362.45 397.45 365.1 L400.7 367.1 Q404.7 369.7 408.2 372.65 419.55 381.95 422.5 390.95 425.75 401.0 419.45 410.45 414.9 417.3 406.75 422.25 400.15 426.3 388.9 421.05 378.1 416.0 371.6 406.7 365.7 398.25 365.4 390.65 365.1 383.4 369.95 374.65"/><path fill="#009f50" d="M395.95 367.65 Q404.95 372.45 409.1 376.15 416.1 382.3 419.0 391.35 419.95 394.35 419.95 397.25 419.95 404.3 414.4 410.8 410.45 415.4 404.1 419.3 398.45 422.75 388.95 417.6 379.95 412.7 373.75 403.9 368.3 396.1 368.55 389.9 368.8 385.0 373.4 376.55 377.25 369.65 385.0 367.35 391.7 365.35 395.95 367.65"/><path fill="#008c46" d="M368.6 391.75 Q368.2 387.05 371.2 380.8 377.5 392.65 389.5 397.55 402.35 402.8 419.4 399.0 L419.85 398.9 Q419.25 405.4 413.9 411.4 410.0 415.7 404.1 419.3 398.45 422.75 388.95 417.6 379.95 412.7 373.75 403.9 369.0 397.1 368.6 391.75"/><path fill="#0d131a" d="M451.95 331.45 Q463.55 326.7 468.0 326.9 477.3 327.35 483.35 335.5 486.6 339.9 491.05 351.05 L493.85 359.5 Q496.95 366.8 495.4 372.5 494.4 376.3 489.6 383.0 485.65 388.55 474.7 387.95 466.45 387.5 459.55 384.5 454.55 382.3 446.0 371.9 437.4 361.5 433.15 352.45 432.15 350.35 432.6 347.7 433.05 345.2 434.55 342.9 438.55 336.95 451.95 331.45"/><path fill="#009f50" d="M481.5 339.4 Q484.95 344.15 489.25 355.1 L490.8 358.9 Q493.6 365.45 492.95 370.6 492.3 375.7 487.9 381.8 484.55 386.55 474.3 385.25 467.05 384.35 460.4 381.45 456.2 379.6 449.05 370.25 441.9 360.9 437.4 351.3 435.8 348.0 438.1 344.55 441.65 339.2 453.2 334.55 463.1 330.55 467.05 330.75 475.5 331.2 481.5 339.4"/><path fill="#008c46" d="M467.2 330.75 Q475.6 331.25 481.55 339.5 485.0 344.25 489.25 355.1 L490.8 358.9 Q493.6 365.45 492.95 370.6 492.3 375.7 487.9 381.8 485.1 385.75 477.4 385.5 471.75 385.35 464.6 383.05 473.8 371.2 475.2 360.35 477.0 346.55 467.2 330.75"/><path fill="#0d131a" d="M472.5 366.45 Q476.85 366.2 481.0 368.2 485.4 370.35 486.65 373.65 489.0 379.95 486.55 389.25 484.35 397.55 479.3 405.1 473.85 413.25 472.15 413.65 469.65 414.15 468.45 403.7 468.2 401.35 465.1 387.7 462.55 376.5 463.2 373.45 463.85 370.4 466.15 368.6 468.6 366.65 472.5 366.45"/><path fill="#eeeeef" d="M485.05 386.85 Q483.3 393.65 478.1 402.85 474.65 408.9 473.2 408.95 471.3 409.05 470.2 400.55 469.8 397.15 467.1 385.05 465.05 375.95 465.65 373.15 466.55 368.9 472.05 368.65 476.15 368.4 480.2 370.4 484.2 372.4 485.1 375.15 486.75 380.05 485.05 386.85"/><path fill="#c8c9ca" d="M485.1 375.15 Q486.75 380.05 485.05 386.85 483.3 393.65 478.1 402.85 475.15 408.0 473.75 408.8 480.35 388.7 476.7 369.15 479.75 369.9 482.1 371.55 484.5 373.2 485.1 375.15"/><path fill="#0d131a" d="M445.7 406.05 Q457.15 404.95 454.85 408.9 453.75 410.8 446.1 416.5 437.9 422.55 425.35 423.2 412.2 423.9 403.4 418.05 401.1 416.5 400.6 413.3 400.1 410.05 401.65 406.7 403.65 402.35 408.7 398.6 413.55 394.9 415.9 395.55 417.85 396.1 421.95 398.7 435.3 407.0 445.7 406.05"/><path fill="#eeeeef" d="M451.2 408.2 Q451.5 409.85 445.35 414.4 437.9 419.9 425.2 420.5 412.55 421.1 405.4 416.25 403.25 414.75 402.85 412.3 402.55 410.15 403.6 407.9 405.55 403.75 409.75 400.2 413.7 396.85 415.3 397.3 416.95 397.75 421.0 400.3 427.3 404.15 431.3 405.65 438.4 408.2 445.85 407.4 450.9 406.85 451.2 408.2"/><path fill="#c8c9ca" d="M405.5 404.75 Q413.3 411.6 424.45 413.7 433.85 415.5 446.0 413.9 L445.35 414.4 Q437.9 419.9 425.2 420.5 412.55 421.1 405.4 416.25 403.25 414.75 402.85 412.3 402.55 410.15 403.6 407.9 404.3 406.35 405.5 404.75"/><path fill="#0d131a" d="M487.85 411.3 Q492.45 410.0 495.5 412.75 501.95 418.3 498.5 425.8 495.15 432.95 487.15 434.3 477.4 436.0 466.85 430.7 458.75 426.65 452.4 419.9 449.1 416.45 449.9 414.85 450.6 413.5 454.1 413.9 459.15 414.4 467.25 414.1 479.25 413.7 487.85 411.3"/><path fill="#eeeeef" d="M494.5 413.7 Q499.0 418.3 495.85 424.85 492.8 431.25 486.4 432.2 480.0 433.15 469.6 428.65 459.65 424.35 454.65 419.1 452.85 417.25 453.7 416.4 454.4 415.75 456.55 415.95 460.9 416.4 468.65 415.85 479.2 415.1 488.2 412.6 492.35 411.45 494.5 413.7"/><path fill="#c8c9ca" d="M496.75 417.75 Q497.9 422.35 494.65 426.9 491.4 431.45 486.4 432.2 481.35 432.95 473.3 430.1 465.8 427.45 459.6 423.2 471.2 425.65 479.3 424.9 489.7 423.9 496.75 417.75"/><path fill="#0d131a" d="M128.35 435.35 L128.85 438.15 Q78.5 492.2 76.45 493.7 L73.3 493.75 Q72.0 492.55 72.5 490.6 73.35 487.25 75.9 480.65 78.65 473.6 79.95 472.0 85.5 465.2 95.5 450.7 109.8 430.0 113.6 420.15 L114.7 419.0 128.35 435.35"/><path fill="#009f50" d="M96.85 453.4 Q110.8 433.35 115.3 423.0 L125.55 435.3 99.9 464.2 Q77.9 488.8 77.0 488.45 76.0 488.05 78.3 481.7 80.5 475.6 81.85 473.9 87.7 466.5 96.85 453.4"/><path fill="#008c46" d="M115.3 423.0 L121.25 430.15 Q100.0 462.35 77.8 483.05 78.7 480.35 79.95 477.55 81.15 474.8 81.85 473.9 87.7 466.5 96.85 453.4 110.8 433.35 115.3 423.0"/><path fill="#0d131a" d="M239.9 352.1 L240.8 349.1 241.85 352.05 Q244.1 358.25 273.45 404.5 304.4 453.2 319.45 472.9 321.75 475.95 320.95 489.8 320.8 492.35 319.3 492.75 318.1 493.05 316.25 491.85 314.75 490.9 277.55 451.55 239.95 411.75 235.35 408.25 228.1 402.75 233.05 377.6 234.65 369.6 237.3 360.45 L239.9 352.1"/><path fill="#009f50" d="M241.1 355.45 Q248.75 371.75 273.2 410.95 300.9 455.5 317.7 475.45 318.35 476.2 318.35 484.75 318.35 487.15 317.85 487.7 317.05 488.5 314.85 486.4 L278.65 447.35 Q243.7 409.8 238.55 405.85 234.7 402.95 234.7 392.55 234.7 384.65 236.9 373.1 238.6 364.25 241.1 355.45"/><path fill="#008c46" d="M234.75 394.25 L234.7 392.55 Q234.7 384.65 236.9 373.1 238.6 364.25 241.1 355.45 247.35 368.75 277.8 416.5 308.4 464.5 317.7 475.45 318.25 476.0 318.35 484.3 L264.65 425.65 Q242.2 401.1 234.75 394.25"/><path fill="#0d131a" d="M229.75 411.9 Q236.85 410.05 237.95 411.05 238.55 411.55 238.3 412.3 L236.0 420.45 Q233.5 428.4 230.2 437.2 L221.95 460.2 Q216.25 476.1 212.6 484.95 207.4 497.7 202.9 503.8 200.55 507.05 189.2 510.35 177.55 513.7 170.05 512.95 163.15 512.25 155.9 507.85 149.8 504.15 148.25 501.35 146.25 497.7 138.75 475.05 131.55 453.1 130.1 446.9 L130.75 445.7 Q156.8 436.15 182.65 427.15 217.2 415.15 229.75 411.9"/><path fill="#009f50" d="M226.8 437.65 Q221.9 450.65 209.85 483.8 207.1 491.4 203.2 497.3 199.8 502.3 197.85 503.1 191.7 505.55 183.65 507.45 174.55 509.55 170.25 509.05 165.6 508.55 158.1 504.9 151.05 501.45 150.45 500.05 148.55 495.5 141.55 475.25 134.0 453.5 132.35 447.3 167.05 434.6 195.7 424.9 230.65 413.0 236.0 412.7 L226.8 437.65"/><path fill="#008c46" d="M211.2 419.7 Q232.0 412.9 236.0 412.7 L226.8 437.65 Q221.9 450.65 209.85 483.8 207.1 491.4 203.2 497.3 199.8 502.3 197.85 503.1 L194.95 504.15 Q193.55 485.65 187.3 468.7 179.85 448.6 166.9 434.9 193.45 425.5 211.2 419.7"/><path fill="#0d131a" d="M212.7 431.7 Q216.0 434.15 215.3 440.2 212.85 462.25 206.8 479.7 201.55 494.7 196.5 499.25 194.5 501.05 184.75 503.3 174.8 505.6 170.05 505.2 164.95 504.75 158.65 502.15 153.1 499.85 149.05 497.0 146.85 495.45 141.75 474.4 L137.0 453.4 136.9 452.85 137.35 452.6 Q143.3 449.7 148.3 447.4 160.3 441.9 170.9 437.95 204.2 425.45 212.7 431.7"/><path fill="#ed8599" d="M213.95 440.0 Q210.45 460.65 204.9 477.2 199.55 493.15 195.1 497.15 192.95 499.05 184.0 501.15 174.95 503.25 170.05 502.9 167.25 502.65 160.65 500.3 154.0 497.9 150.55 495.85 149.0 494.95 144.45 477.7 141.15 465.35 138.5 453.6 155.65 445.1 172.55 438.8 204.1 427.1 211.85 432.85 214.8 434.95 213.95 440.0"/><path fill="#ce7486" d="M211.85 432.85 Q214.8 434.95 213.95 440.0 211.75 452.9 208.6 464.8 205.55 476.1 202.25 484.35 200.25 478.95 193.35 473.65 186.75 468.55 177.45 464.8 156.4 456.4 140.05 460.2 L138.5 453.6 Q155.65 445.1 172.55 438.8 204.1 427.1 211.85 432.85"/><path fill="#0d131a" d="M194.1 494.5 Q196.9 492.65 198.75 487.3 199.8 479.95 199.8 469.5 199.85 464.75 202.4 467.2 L206.8 472.25 205.2 480.7 Q202.75 490.15 198.7 495.45 L197.7 495.35 Q196.4 497.85 193.15 499.15 187.35 501.6 183.15 502.7 177.5 504.15 171.9 504.15 168.05 504.15 160.1 501.2 152.65 498.45 152.05 497.45 L149.75 496.95 Q147.45 495.6 142.0 476.35 L136.9 457.15 136.8 456.6 137.25 456.35 141.5 454.3 152.2 449.35 153.4 448.85 153.2 450.15 Q151.35 463.05 151.25 475.8 151.15 484.95 151.9 492.45 153.25 494.4 158.9 496.95 165.6 499.9 171.4 499.9 177.65 499.9 183.65 498.55 190.15 497.1 194.1 494.5"/><path fill="#e85377" d="M198.5 491.9 Q199.9 489.5 200.35 486.85 L201.35 476.4 201.8 470.1 Q201.95 469.3 203.3 470.9 205.0 473.0 205.8 473.3 203.0 485.65 199.45 491.95 L197.25 495.5 Q195.6 497.95 194.45 498.5 191.8 499.85 186.1 501.3 178.0 503.4 170.95 503.4 165.5 503.4 158.25 500.3 151.6 497.45 150.0 495.2 148.1 492.4 143.9 478.0 140.3 465.8 138.4 457.35 L151.65 451.15 Q149.9 461.45 149.5 464.4 148.5 471.8 148.5 477.6 148.5 478.75 149.45 484.5 L150.65 493.15 Q150.75 494.8 157.0 497.95 164.2 501.55 170.95 501.55 177.45 501.55 183.3 500.4 189.95 499.1 194.0 496.6 196.75 494.95 198.5 491.9"/><path fill="#ffffff" d="M212.7 433.6 Q214.15 435.2 214.15 437.9 L213.95 440.0 211.15 453.6 Q210.35 443.45 203.05 431.1 210.2 430.8 212.7 433.6"/><path fill="#0d131a" d="M138.1 457.05 Q140.45 456.45 141.7 457.4 145.15 460.15 147.95 464.9 151.25 470.5 150.2 474.1 147.9 489.55 146.6 489.8 146.2 489.85 145.2 488.8 L143.9 487.1 Q142.55 484.75 139.05 471.5 L135.85 458.75 Q135.75 457.65 138.1 457.05"/><path fill="#ffffff" d="M138.25 458.2 Q138.25 457.5 138.45 457.4 138.95 457.1 140.8 458.5 143.8 460.85 146.3 464.9 149.05 469.25 149.05 472.4 L148.85 473.75 147.6 479.6 Q146.65 485.15 146.0 486.0 L145.8 485.8 Q144.45 483.4 141.55 472.75 138.75 462.5 138.3 458.85 L138.25 458.2"/><path fill="#dbdcdc" d="M138.45 457.4 Q138.95 457.1 140.8 458.5 143.8 460.85 146.3 464.9 149.05 469.25 149.05 472.4 L148.85 473.75 146.75 483.8 Q145.75 470.5 139.5 464.85 L138.3 458.85 138.25 458.2 Q138.25 457.5 138.45 457.4"/><path fill="#0d131a" d="M185.25 456.2 Q190.35 455.55 191.8 457.45 192.7 458.7 191.85 460.5 191.15 462.05 189.35 473.6 187.55 485.1 186.15 488.0 184.5 491.45 183.25 490.7 182.55 490.3 181.2 487.3 180.15 485.1 178.15 477.35 175.7 467.85 175.7 463.0 175.7 461.6 176.05 460.45 176.65 458.95 179.75 457.7 182.4 456.6 185.25 456.2"/><path fill="#ffffff" d="M190.65 458.3 L190.85 458.9 190.55 459.9 Q188.85 463.75 186.7 476.3 184.95 486.55 184.05 487.4 L183.9 487.25 Q182.75 485.55 180.1 477.1 177.1 467.55 177.1 463.05 177.1 461.65 177.35 460.95 177.7 460.1 180.05 459.05 182.5 458.0 185.45 457.6 189.7 457.05 190.65 458.3"/><path fill="#dbdcdc" d="M190.65 458.3 L190.85 458.9 190.55 459.9 Q188.85 463.75 186.7 476.3 L185.3 483.6 Q184.7 474.25 178.15 470.25 177.1 465.8 177.1 463.05 177.1 461.65 177.35 460.95 177.7 460.1 180.05 459.05 182.5 458.0 185.45 457.6 189.7 457.05 190.65 458.3"/><path fill="#0d131a" d="M201.15 460.3 Q199.45 457.95 199.15 456.0 199.1 455.7 205.7 451.65 L212.3 447.65 209.55 457.5 Q206.5 466.95 204.8 464.85 L201.15 460.3"/><path fill="#e85377" d="M202.7 459.7 Q200.85 457.2 200.55 455.85 201.3 454.6 209.75 450.4 L207.45 457.3 Q205.65 462.4 205.15 462.25 204.5 462.1 202.7 459.7"/><path fill="#c94768" d="M203.9 453.5 Q206.2 452.15 209.75 450.4 L207.45 457.3 Q205.65 462.4 205.15 462.25 L203.9 461.15 204.1 457.35 203.9 453.5"/><path fill="#0d131a" d="M3.35 121.6 Q6.1 120.75 11.95 120.55 18.25 120.4 19.25 121.55 42.85 147.5 65.5 174.5 110.6 228.3 108.4 236.7 105.0 249.6 109.35 265.2 114.4 283.45 129.9 304.65 L133.65 309.85 Q136.2 313.65 138.95 314.7 140.45 315.3 142.95 315.5 145.7 316.15 146.05 319.5 147.05 329.1 144.4 341.45 141.4 355.35 136.25 357.15 133.85 358.05 131.6 357.55 128.8 356.9 126.95 354.05 120.05 343.45 61.05 236.8 4.55 134.7 0.5 126.6 -1.3 123.0 3.35 121.6"/><path fill="#009f50" d="M6.75 124.8 Q9.15 124.05 13.1 124.15 16.6 124.25 17.45 124.7 43.7 155.0 72.5 191.1 105.0 231.85 105.0 235.9 102.7 241.7 102.7 248.7 102.7 263.4 114.45 285.2 121.9 299.0 128.8 307.6 L134.05 314.75 Q137.4 318.6 141.35 318.7 142.95 318.75 143.15 324.15 143.35 329.15 142.3 336.2 139.75 353.7 135.55 355.2 133.05 356.1 129.8 351.25 123.55 341.75 64.15 234.8 L5.3 129.0 Q4.3 127.7 5.05 126.3 5.7 125.1 6.75 124.8"/><path fill="#008c46" d="M9.0 126.6 Q8.3 125.35 8.9 124.85 L10.25 124.2 Q12.5 124.05 14.8 124.25 16.9 124.4 17.45 124.7 43.7 155.0 72.5 191.1 105.0 231.85 105.0 235.9 102.7 241.7 102.7 248.7 102.7 263.4 114.45 285.2 121.9 299.0 128.8 307.6 L134.05 314.75 Q137.4 318.6 141.35 318.7 142.95 318.75 143.15 324.15 143.35 329.15 142.3 336.2 139.75 353.7 135.55 355.2 133.05 356.1 129.8 351.25 L121.75 337.55 Q123.2 334.4 116.0 318.8 109.85 305.4 101.85 292.0 83.9 262.1 45.05 192.05 L9.0 126.6"/><path fill="#0d131a" d="M236.65 195.9 Q254.65 189.6 271.15 193.7 286.45 197.3 294.3 209.05 300.25 218.0 301.55 230.95 303.15 247.35 297.6 264.65 292.5 280.7 286.45 283.5 282.75 285.2 276.85 291.8 270.95 298.45 265.4 307.2 251.75 328.6 251.75 342.35 251.75 344.4 253.65 371.05 255.3 394.4 254.45 398.1 253.6 401.85 248.7 407.5 L239.2 417.95 Q230.35 428.4 225.6 437.75 220.5 448.05 216.45 451.5 212.9 454.55 202.3 458.35 198.5 459.7 190.7 465.35 L177.05 475.45 Q173.05 478.3 165.95 484.1 161.65 487.6 160.3 487.75 158.45 487.95 149.05 478.1 136.85 465.3 123.05 444.85 107.55 421.9 107.9 414.05 108.2 406.95 111.65 396.65 L115.75 385.65 119.25 372.1 Q122.05 360.55 124.65 353.1 129.0 340.7 132.7 328.55 135.0 320.9 135.55 320.3 138.15 313.2 141.15 309.35 145.95 303.2 149.75 299.9 154.65 295.65 161.9 292.15 166.0 279.95 174.15 263.95 186.1 240.4 200.75 222.1 215.95 203.1 236.65 195.9"/><path fill="#009f50" d="M146.35 313.15 Q155.55 301.4 164.8 295.65 L165.1 295.45 165.25 295.1 Q168.9 284.1 177.4 267.85 189.35 245.05 204.1 226.65 218.1 209.1 239.45 200.65 258.05 193.25 270.85 196.25 285.3 199.65 292.75 210.85 298.4 219.35 299.65 231.7 301.25 247.65 295.85 264.5 291.0 279.7 285.75 282.1 281.8 283.9 275.5 291.05 269.2 298.15 263.2 307.55 248.55 330.55 248.55 345.05 248.55 353.1 250.1 370.6 251.05 381.35 251.2 385.65 251.45 392.95 250.55 397.0 249.7 400.7 245.75 406.2 L237.3 416.65 229.5 426.2 Q225.45 431.6 223.3 435.8 218.5 445.35 214.4 449.05 211.05 451.95 201.9 455.8 197.8 457.55 190.25 462.45 185.65 465.5 176.55 471.95 L165.85 479.4 Q160.6 482.9 159.25 483.05 157.25 483.25 151.35 477.1 140.55 465.85 127.8 446.15 116.1 428.15 111.45 417.05 110.95 415.8 111.15 413.1 111.35 410.8 111.9 408.3 L114.85 397.5 117.9 386.85 126.95 355.7 Q135.0 328.35 136.85 326.3 141.6 319.25 146.35 313.15"/><path fill="#008c46" d="M292.8 210.9 Q298.45 219.4 299.65 231.7 301.25 247.65 295.85 264.5 291.0 279.7 285.75 282.1 281.8 283.9 275.5 291.05 269.2 298.15 263.2 307.55 248.55 330.55 248.55 345.05 248.55 353.1 250.1 370.6 251.05 381.35 251.2 385.65 251.45 392.95 250.55 397.0 249.7 400.7 245.75 406.2 L237.3 416.65 229.5 426.2 Q225.45 431.6 223.3 435.8 218.5 445.35 214.4 449.05 211.05 451.95 201.9 455.8 197.8 457.55 190.25 462.45 185.65 465.5 176.55 471.95 L168.05 478.0 Q163.0 481.45 160.45 482.7 161.35 480.55 161.05 476.15 160.8 472.0 159.8 469.25 159.45 468.25 157.5 467.5 154.3 466.2 153.1 465.5 146.3 461.5 142.0 449.7 136.7 435.2 140.35 416.7 141.65 410.05 143.45 406.4 145.2 402.9 145.65 405.55 148.65 424.0 158.6 426.25 162.35 427.05 166.25 425.4 169.65 423.95 171.65 421.5 178.05 408.65 187.6 380.15 198.45 347.7 198.0 337.55 197.2 318.45 200.1 305.15 204.85 283.75 216.3 263.05 227.05 243.6 241.2 229.25 255.3 214.95 268.7 209.85 282.95 204.45 292.8 210.9"/><path fill="#0d131a" d="M135.2 338.0 Q135.2 330.3 136.95 322.6 138.4 316.15 140.15 313.15 147.55 300.3 158.1 293.9 168.85 287.35 185.15 286.05 L190.75 274.6 Q195.9 264.6 199.3 259.85 194.65 252.85 190.15 242.25 L200.05 230.35 Q201.75 235.25 205.9 242.75 L211.0 251.45 Q217.55 248.6 229.55 245.6 241.65 242.6 249.6 241.85 255.2 232.35 266.4 225.4 279.55 217.3 296.25 215.75 L301.4 226.7 Q289.25 227.25 277.55 234.35 265.6 241.65 256.5 254.4 L256.25 254.7 255.9 254.8 Q246.85 256.9 231.9 260.75 216.2 264.75 215.4 265.2 214.25 265.9 209.75 273.45 204.6 281.95 202.7 287.75 217.4 293.05 222.5 306.2 227.65 319.45 221.7 337.1 218.6 346.1 211.2 355.55 199.35 370.65 184.05 373.7 170.8 377.25 160.3 374.95 147.35 372.1 140.95 360.6 138.4 355.95 136.8 349.7 135.2 343.35 135.2 338.0"/><path fill="#ffec60" d="M143.0 314.35 Q152.15 298.3 170.45 291.8 179.65 288.55 187.2 288.5 199.05 263.85 201.9 259.9 202.3 259.35 198.55 253.2 193.8 245.35 192.3 241.95 L198.8 232.85 Q201.25 239.2 205.35 247.1 209.25 254.6 209.8 254.45 L227.0 249.2 Q244.85 244.0 251.05 243.4 255.0 237.6 263.35 231.15 278.35 219.5 295.8 217.95 L297.0 220.7 298.45 224.85 Q273.1 226.85 254.85 252.2 215.55 261.7 214.05 262.75 212.5 263.85 207.4 272.65 201.65 282.55 199.75 289.05 L203.35 290.8 Q207.6 293.25 211.1 296.55 222.3 307.05 221.45 322.3 220.7 336.15 209.9 351.3 198.3 367.5 184.25 370.95 172.0 374.25 160.9 371.6 147.95 368.5 142.85 358.15 138.8 349.85 138.3 337.7 137.75 323.65 143.0 314.35"/><path fill="#ddcc54" d="M295.8 217.95 L297.0 220.7 298.45 224.85 Q273.1 226.85 254.85 252.2 222.4 260.0 215.85 262.05 218.05 258.05 223.05 250.35 244.2 244.05 251.05 243.4 255.0 237.6 263.35 231.15 278.35 219.5 295.8 217.95"/><path fill="#ddcc54" d="M216.1 302.25 Q222.05 311.15 221.45 322.3 220.8 334.55 211.75 348.5 202.2 363.25 189.85 368.95 194.05 360.35 196.35 343.05 L198.7 323.3 Q200.05 311.75 201.3 305.4 L204.35 291.55 Q211.4 295.2 216.1 302.25"/><path fill="#0d131a" d="M147.35 336.85 Q145.2 327.2 149.35 316.95 152.6 308.8 160.55 302.75 168.55 296.6 178.2 295.0 185.75 293.7 192.35 295.7 198.7 297.65 202.45 301.95 205.8 305.75 207.6 310.65 209.35 315.55 209.35 320.85 L209.05 325.15 Q208.0 332.9 203.5 339.6 199.05 346.3 191.7 351.15 182.4 357.25 172.95 357.45 163.55 357.7 156.6 352.05 149.4 346.15 147.35 336.85"/><path fill="#009f50" d="M152.3 317.2 Q155.35 309.6 162.2 304.45 169.1 299.3 178.25 297.75 185.35 296.55 191.5 298.05 197.65 299.6 200.9 303.3 204.6 307.6 206.2 313.2 207.8 318.9 207.0 324.9 206.0 332.1 201.75 338.25 197.55 344.3 190.55 348.9 181.8 354.65 173.05 354.9 164.3 355.2 157.9 349.95 151.3 344.55 149.8 335.85 148.3 327.1 152.3 317.2"/><path fill="#008c46" d="M206.4 313.95 Q207.75 319.3 207.0 324.9 205.45 336.2 195.95 344.75 L201.85 304.45 Q205.1 308.65 206.4 313.95"/><path fill="#009f50" d="M402.05 143.8 L408.0 143.95 Q408.6 144.55 375.1 203.65 L334.8 274.25 320.1 281.35 Q306.1 288.35 294.6 296.6 258.1 322.9 243.6 363.5 238.35 378.15 231.45 360.1 229.25 354.5 227.2 346.25 L225.55 339.15 Q268.25 287.65 305.3 243.55 378.05 157.05 386.55 151.3 395.4 145.25 402.05 143.8"/><path fill="#008c46" d="M387.4 156.95 Q389.6 154.0 397.8 150.15 405.75 146.4 406.35 147.55 400.2 159.5 369.75 212.95 L334.8 274.25 320.1 281.35 Q306.1 288.35 294.6 296.6 258.1 322.9 243.6 363.5 238.35 378.15 231.45 360.1 229.25 354.5 227.2 346.25 L225.55 339.15 236.7 325.35 Q237.05 327.5 239.0 327.7 241.25 327.95 244.25 325.35 258.8 312.3 275.6 291.5 293.95 267.9 303.65 256.3 L345.3 208.0 Q370.95 178.2 387.4 156.95"/><path fill="#0d131a" d="M404.15 144.6 Q396.75 145.7 386.2 152.85 380.2 156.95 304.95 247.0 229.4 337.5 226.3 339.8 224.7 341.05 224.35 339.2 L224.3 337.1 Q261.75 291.85 300.6 245.7 378.35 153.3 385.3 148.6 392.7 143.55 399.8 141.5 405.45 139.9 409.05 140.55 411.05 140.85 411.05 143.1 411.05 144.2 375.65 208.45 340.5 272.25 339.25 273.95 338.45 275.05 334.1 276.95 L325.6 280.65 Q300.25 292.8 278.3 313.25 250.35 339.3 245.05 365.5 243.85 371.15 241.75 373.25 239.7 375.3 242.6 363.15 250.2 331.7 274.1 308.9 293.6 290.35 326.3 275.75 L332.2 273.5 Q335.45 272.3 336.15 271.25 406.0 147.4 406.45 146.0 406.75 145.0 405.9 144.7 L404.15 144.6"/><path fill="#009f50" d="M210.4 344.0 Q212.0 341.6 217.6 339.95 227.0 337.2 233.35 334.25 247.0 327.95 225.25 371.1 207.9 405.45 185.6 439.9 179.8 448.9 178.25 448.5 176.85 448.1 179.85 441.05 182.45 434.95 196.0 389.6 208.95 346.2 210.4 344.0"/><path fill="#008c46" d="M227.7 341.8 Q235.95 337.8 237.5 335.4 238.55 333.75 239.25 335.1 239.9 336.45 239.9 339.75 239.8 348.2 236.15 356.4 229.15 372.3 211.1 401.75 201.25 417.9 184.4 444.3 184.75 443.2 184.5 443.35 184.2 443.45 184.6 442.25 189.55 430.2 203.5 387.05 215.55 349.75 217.55 347.75 219.1 345.95 227.7 341.8"/><path fill="#0d131a" d="M209.05 341.2 Q211.15 338.15 220.4 335.9 L232.85 333.3 236.1 333.2 Q236.0 333.95 233.8 335.2 L222.6 339.6 Q213.15 343.2 212.9 344.15 L209.8 353.2 Q206.55 362.85 204.35 370.65 199.1 389.6 189.9 416.35 181.05 442.2 177.15 450.4 175.45 454.0 174.55 453.6 173.7 453.15 175.35 449.35 176.95 445.6 185.6 418.35 194.85 389.0 199.85 371.1 L204.85 352.1 Q207.0 344.25 209.05 341.2"/><path fill="#009f50" d="M126.7 333.2 Q130.05 327.55 131.2 326.8 134.0 325.05 131.5 338.65 130.7 342.85 138.1 401.75 144.85 455.7 141.1 452.1 135.25 446.5 121.65 402.45 116.15 384.6 113.0 371.55 109.65 357.5 110.9 356.45 113.15 354.55 117.95 347.25 L126.7 333.2"/><path fill="#008c46" d="M128.5 342.4 Q132.05 337.0 133.7 330.6 135.05 334.95 137.4 351.45 L142.0 382.65 Q148.95 423.75 158.65 426.25 171.6 429.6 159.15 439.45 L148.75 446.6 Q143.05 450.3 142.65 451.3 L129.0 403.6 119.2 370.0 Q117.4 363.45 117.9 360.4 118.35 357.7 121.9 351.95 L128.5 342.4"/><path fill="#0d131a" d="M125.75 328.5 Q128.2 323.55 128.85 325.0 129.4 326.3 128.35 329.4 126.65 334.55 120.95 344.4 115.85 353.3 114.0 355.35 112.6 356.9 112.6 360.4 112.6 363.15 113.55 368.85 114.5 374.75 123.25 402.45 132.6 432.15 138.05 444.9 141.0 451.7 140.2 451.9 139.4 452.05 136.4 446.1 126.65 426.9 116.15 394.55 104.9 359.95 108.35 355.35 111.45 351.25 118.05 341.05 124.4 331.15 125.75 328.5"/><path fill="#0d131a" d="M132.95 328.35 Q134.1 321.45 136.25 318.45 138.4 315.5 136.85 323.7 134.0 338.95 135.05 356.9 135.25 360.45 138.2 387.65 139.15 396.4 138.65 397.1 138.15 397.85 136.25 387.65 129.25 350.9 132.95 328.35"/><path fill="#0d131a" d="M126.45 416.8 Q131.9 430.3 129.4 430.35 121.2 430.55 118.15 415.45 116.95 409.45 117.15 403.2 117.3 397.1 118.7 393.75 119.5 399.5 126.45 416.8"/><path fill="#ffec60" d="M127.5 426.55 Q126.1 426.8 124.5 424.75 122.8 422.55 122.25 419.15 121.75 416.0 121.95 413.65 122.05 412.45 122.6 410.35 122.95 412.4 125.0 418.55 L127.5 426.55"/><path fill="#0d131a" d="M126.45 421.35 Q126.2 422.1 125.75 422.3 125.1 422.6 124.55 421.6 123.9 420.55 123.9 417.6 123.9 414.85 124.2 414.55 L125.3 417.95 126.45 421.35"/><path fill="#0d131a" d="M235.3 365.0 Q235.5 366.45 230.5 377.8 L224.05 392.8 Q225.25 399.45 223.2 411.15 221.05 423.55 217.25 428.4 212.35 434.65 206.5 434.6 L202.95 433.95 201.6 433.3 196.75 439.1 Q191.5 445.05 189.45 445.95 188.9 446.2 193.25 439.5 199.55 429.75 203.65 422.35 L224.5 383.9 Q235.2 364.05 235.3 365.0"/><path fill="#ffec60" d="M213.25 411.75 Q215.5 422.0 211.9 426.95 210.4 429.0 208.5 428.95 206.5 428.9 204.9 426.6 L213.25 411.75"/><path fill="#0d131a" d="M210.0 415.7 Q211.6 419.8 209.7 423.3 208.95 424.7 208.2 424.3 207.35 423.9 207.0 421.3 L210.0 415.7"/></g></svg>