<?xml version='1.0' encoding='utf-8'?>
<svg xmlns="http://www.w3.org/2000/svg" version="1.1" width="382px" height="338px" viewBox="-4.4 -0.65 382.3 337.8"><g><path fill="#00a0b6" d="M223.0 295.45 Q225.95 301.6 223.4 302.55 212.75 306.55 197.8 308.35 175.3 311.15 173.5 301.4 L218.3 283.25 Q218.75 286.55 223.0 295.45"/><path fill="#008c9f" d="M212.4 290.15 Q213.95 293.3 216.5 294.95 218.85 296.45 224.1 297.95 224.8 299.85 224.7 300.85 224.6 302.1 223.4 302.55 212.75 306.55 197.8 308.35 175.3 311.15 173.5 301.4 L212.4 290.15"/><path fill="#e3eff5" d="M216.4 302.85 Q216.85 300.3 218.7 297.6 220.9 294.45 222.6 295.75 224.65 297.35 226.7 300.0 228.8 302.75 228.8 304.1 L218.05 304.4 216.4 302.85"/><path fill="#c1cbd1" d="M227.7 304.45 Q224.85 305.1 218.05 304.4 L216.4 302.85 Q216.6 301.65 217.4 299.9 218.3 298.05 219.35 296.8 221.4 301.25 227.7 304.45"/><path fill="#c1cbd1" d="M204.75 305.9 Q204.75 304.45 207.0 301.65 209.15 299.0 209.9 299.1 210.9 299.25 215.35 302.45 220.05 305.85 219.75 306.95 L212.75 307.65 205.65 307.4 204.75 305.9"/><path fill="#00a0b6" d="M359.0 234.5 Q351.35 241.4 332.1 249.05 306.4 259.2 283.7 258.3 L253.9 220.7 Q299.5 232.6 326.65 233.35 L352.0 232.0 Q357.5 231.55 359.1 232.0 361.15 232.5 359.0 234.5"/><path fill="#99003f" d="M326.2 251.85 Q303.8 259.95 284.7 258.9 L277.75 247.75 Q291.3 249.7 309.25 248.9 329.75 247.9 344.8 243.55 337.4 247.8 326.2 251.85"/><path fill="#00a0b6" d="M81.5 194.4 Q95.9 193.05 107.9 194.25 L110.0 197.6 29.95 283.25 Q23.65 279.7 18.1 272.1 7.0 257.0 10.8 237.05 15.7 211.8 51.2 200.4 65.05 195.95 81.5 194.4"/><path fill="#008c9f" d="M29.9 216.55 Q29.05 222.35 38.0 225.15 47.05 227.95 61.05 226.1 76.65 224.0 92.2 216.65 L29.95 283.25 Q23.65 279.7 18.1 272.1 7.0 257.0 10.8 237.05 13.1 225.35 22.3 216.4 30.45 208.5 43.7 203.1 30.85 210.25 29.9 216.55"/><path fill="#008c9f" d="M107.9 194.25 L110.0 197.6 101.95 206.25 Q101.7 200.6 93.2 198.0 L78.25 194.75 Q94.5 192.9 107.9 194.25"/><path fill="#99003f" d="M15.1 247.25 Q19.4 261.7 32.25 269.65 L31.5 273.3 28.95 282.75 Q20.65 277.45 15.1 268.15 9.6 258.9 9.35 250.0 9.15 242.6 11.6 233.85 L14.1 226.55 Q11.8 236.25 15.1 247.25"/><path fill="#ba004f" d="M205.85 2.65 Q228.1 4.55 237.9 12.05 199.55 26.15 175.4 53.2 155.3 75.7 146.0 105.95 138.65 129.9 138.85 155.4 139.05 175.6 143.15 186.65 128.0 189.8 116.75 193.45 L108.5 196.5 Q99.3 182.5 83.5 179.45 69.1 176.65 52.45 183.35 36.4 189.75 23.6 202.7 10.3 216.15 5.15 232.1 -2.6 186.05 7.45 145.95 18.65 101.2 52.4 61.9 71.7 39.4 100.9 24.5 126.4 11.45 156.1 5.8 182.75 0.7 205.85 2.65"/><path fill="#99003f" d="M202.7 2.45 L218.65 7.15 Q229.4 10.55 225.9 11.35 221.95 12.2 214.45 15.65 203.35 20.75 192.75 28.45 160.8 51.6 144.5 89.65 136.45 108.4 134.7 133.3 132.7 161.6 139.9 187.75 L131.1 189.7 123.5 191.6 Q118.2 193.3 112.95 195.25 L108.7 196.85 Q98.95 181.95 82.85 178.8 68.4 176.0 51.7 183.05 35.9 189.75 23.15 203.0 10.15 216.55 5.15 232.1 -2.6 186.05 7.45 145.95 18.65 101.2 52.4 61.9 80.1 29.65 126.4 13.65 165.7 0.15 202.7 2.45"/><path fill="#c1cbd1" d="M207.15 309.55 Q208.25 311.0 201.85 310.7 195.55 310.4 191.6 308.9 189.55 308.1 193.4 304.45 197.2 300.85 199.6 302.4 202.6 304.35 204.55 306.35 L207.15 309.55"/><path fill="#00a0b6" d="M264.9 232.2 Q272.4 240.0 277.95 248.35 283.8 257.2 286.5 265.2 288.9 272.45 292.2 280.35 294.6 286.0 296.55 289.95 L299.9 295.65 Q301.5 298.95 299.75 300.95 295.45 306.0 290.75 308.5 281.7 313.45 269.05 311.95 256.2 310.5 253.05 306.2 251.85 304.55 250.8 300.8 L248.4 293.15 Q245.45 285.4 241.75 281.4 L227.8 267.95 Q218.85 259.1 223.8 225.25 225.35 214.7 228.1 202.9 L230.55 193.2 Q231.4 197.5 244.65 211.5 251.85 219.15 264.9 232.2"/><path fill="#008c9f" d="M258.5 266.4 Q264.45 275.95 271.3 291.75 277.6 304.2 287.55 310.0 279.55 313.2 269.05 311.95 256.2 310.5 253.05 306.2 251.85 304.55 250.8 300.8 L248.4 293.15 Q245.45 285.4 241.75 281.4 L227.8 267.95 Q224.35 264.55 229.25 255.6 235.65 245.65 237.0 242.1 240.15 242.65 247.15 250.8 253.4 258.15 258.5 266.4"/><path fill="#99003f" d="M250.5 282.4 Q249.35 284.0 242.9 284.0 L227.35 266.95 Q228.45 265.4 229.65 262.65 232.0 257.2 232.55 251.5 L235.35 247.05 241.4 254.3 Q247.8 263.1 249.8 271.15 252.05 280.2 250.5 282.4"/><path fill="#00a0b6" d="M209.35 144.35 Q229.7 132.3 236.75 130.35 L250.05 134.55 243.9 157.55 Q236.5 182.75 230.2 193.45 232.45 196.15 234.7 204.15 237.15 212.7 238.0 221.95 240.2 246.4 230.2 254.45 220.6 262.2 202.65 261.95 L187.05 260.8 171.9 259.2 Q161.15 258.35 146.65 251.45 L138.6 247.65 Q135.5 246.4 135.15 247.65 133.2 255.1 128.65 262.4 126.35 266.05 118.65 276.2 112.25 284.65 105.9 302.8 104.0 308.2 98.95 325.25 85.8 334.2 69.0 333.7 57.3 333.3 49.4 329.4 45.4 327.4 46.55 322.7 L48.5 318.4 26.5 314.7 26.75 306.85 Q27.2 297.35 28.3 289.05 29.65 279.55 31.65 273.75 33.4 268.75 37.05 262.9 40.9 256.7 55.0 240.25 70.05 222.65 77.4 216.6 87.8 208.0 99.75 201.55 116.15 192.65 132.4 189.55 147.85 186.65 159.75 178.75 166.7 174.2 179.2 163.85 190.65 155.45 209.35 144.35"/><path fill="#008c9f" d="M222.4 136.95 Q232.45 131.55 236.75 130.35 L250.05 134.55 230.65 183.6 Q225.7 166.0 216.8 156.15 208.9 147.35 202.3 148.65 213.35 141.85 222.4 136.95"/><path fill="#008c9f" d="M83.45 230.45 Q86.9 230.0 93.3 227.75 96.85 224.85 88.2 240.0 75.25 262.55 72.3 268.75 68.25 277.25 65.35 291.95 64.0 298.85 60.35 322.9 60.05 324.95 60.5 328.9 60.75 331.1 59.35 331.55 L52.9 330.65 Q51.2 330.3 49.4 329.4 45.4 327.4 46.55 322.7 L48.5 318.4 26.5 314.7 26.75 306.85 Q27.2 297.35 28.3 289.05 29.65 279.55 31.65 273.75 33.4 268.75 37.05 262.9 40.9 256.7 55.0 240.25 70.05 222.65 77.4 216.6 82.8 212.2 89.05 207.95 L80.45 217.7 Q76.85 222.8 78.4 228.9 78.95 231.05 83.45 230.45"/><path fill="#e3eff5" d="M305.05 296.95 Q308.7 299.75 308.7 300.95 306.4 302.5 300.75 301.9 L296.05 299.35 Q297.35 291.8 299.35 293.0 L305.05 296.95"/><path fill="#c1cbd1" d="M30.05 314.5 L28.85 316.0 23.5 316.25 Q19.65 316.2 18.85 315.5 18.85 314.45 21.5 312.4 L25.6 309.15 Q26.6 309.15 28.15 310.85 29.8 312.7 30.05 314.5"/><path fill="#c1cbd1" d="M36.65 316.45 L33.8 319.5 28.5 320.05 23.3 319.7 Q23.05 318.65 27.5 315.15 31.55 311.95 32.4 311.75 33.05 311.6 34.8 313.25 36.65 315.05 36.65 316.45"/><path fill="#c1cbd1" d="M44.85 314.5 Q48.05 317.95 46.7 318.55 42.3 320.5 37.55 321.15 33.2 321.75 32.9 320.85 32.6 320.1 35.1 317.3 37.25 314.9 40.1 312.4 41.65 311.05 44.85 314.5"/><path fill="#e3eff5" d="M51.65 329.55 L50.45 330.0 44.4 331.05 Q40.25 331.65 39.2 330.95 39.2 329.6 42.1 326.2 44.65 323.2 46.95 321.35 48.65 320.0 50.1 323.65 51.1 326.05 51.65 329.55"/><path fill="#e3eff5" d="M64.75 331.2 L64.05 332.85 56.5 333.55 49.05 333.3 Q48.75 332.1 53.95 327.65 58.9 323.4 59.85 323.25 60.6 323.1 62.65 326.3 64.75 329.55 64.75 331.2"/><path fill="#c1cbd1" d="M61.1 324.2 L56.0 328.4 Q53.25 331.0 51.85 333.65 L49.05 333.3 Q48.75 332.1 53.95 327.65 58.9 323.4 59.85 323.25 L61.1 324.2"/><path fill="#e3eff5" d="M77.75 334.4 Q74.05 335.9 67.95 336.3 62.05 336.65 61.6 335.65 61.25 334.75 64.4 331.6 67.5 328.5 71.1 326.05 73.2 324.55 76.3 329.1 79.45 333.7 77.75 334.4"/><path fill="#e3eff5" d="M289.3 306.45 Q289.3 305.0 292.1 302.05 294.8 299.2 295.6 299.35 296.65 299.55 301.25 302.65 306.2 305.95 305.9 307.05 L298.1 307.95 Q292.15 308.3 290.2 307.95 L289.3 306.45"/><path fill="#e3eff5" d="M288.3 313.25 Q281.85 313.55 278.3 312.2 276.55 311.55 279.5 307.5 282.45 303.45 285.05 304.25 288.5 305.35 291.65 308.35 294.35 310.9 294.4 312.0 294.5 312.95 288.3 313.25"/><path fill="#c1cbd1" d="M304.25 302.0 L300.75 301.9 296.05 299.35 296.85 295.65 Q299.5 299.6 304.25 302.0"/><path fill="#c1cbd1" d="M301.35 307.75 Q293.15 308.45 290.2 307.95 L289.3 306.45 Q289.3 305.5 290.65 303.75 291.8 302.2 293.35 300.8 294.35 303.35 296.6 305.15 298.3 306.45 301.35 307.75"/><path fill="#c1cbd1" d="M293.3 312.6 L286.3 313.3 Q281.15 313.3 278.3 312.2 277.2 311.8 278.5 309.2 279.75 306.6 281.8 305.1 287.1 309.95 293.3 312.6"/><path fill="#ba004f" d="M238.35 152.85 L255.1 157.05 265.4 170.3 Q254.3 173.55 244.4 180.25 232.2 188.55 226.85 199.15 L221.65 210.15 Q218.85 216.15 217.0 219.15 211.95 227.45 205.45 227.75 197.9 228.15 194.3 225.75 190.75 223.45 188.35 216.55 187.15 213.1 190.55 204.85 194.05 196.5 200.8 186.95 217.55 163.25 238.35 152.85"/><path fill="#99003f" d="M231.45 192.0 Q223.75 188.65 222.95 177.9 L222.75 169.7 Q222.6 165.35 221.6 163.6 228.25 157.95 238.35 152.85 L255.1 157.05 265.4 170.3 Q256.45 172.95 247.95 178.0 237.7 184.15 231.45 192.0"/><path fill="#00a0b6" d="M336.15 209.95 Q330.45 205.8 320.4 193.5 L311.55 182.0 316.65 163.25 320.8 163.85 Q324.25 172.45 328.95 185.75 336.0 205.6 336.15 209.95"/><path fill="#008c9f" d="M317.05 189.25 L311.55 182.0 313.0 176.6 Q315.4 183.1 319.95 190.4 322.8 194.9 328.75 203.1 323.55 197.6 317.05 189.25"/><path fill="#ba004f" d="M317.45 93.3 Q299.4 91.15 282.95 94.0 235.9 102.05 198.65 150.3 L198.85 150.55 153.6 182.6 Q155.8 168.4 150.9 161.55 146.2 155.0 138.35 159.3 137.85 148.45 138.75 144.0 139.2 137.65 140.45 129.65 142.95 114.0 149.85 91.85 163.6 78.65 183.8 69.65 206.2 59.75 230.75 57.9 258.55 55.8 285.2 64.6 315.35 74.55 341.75 97.9 324.95 94.2 317.45 93.3"/><path fill="#99003f" d="M335.0 92.15 Q338.75 95.25 341.75 97.9 324.95 94.2 317.45 93.3 299.4 91.15 282.95 94.0 235.9 102.05 198.65 150.3 L198.85 150.55 185.55 159.95 Q209.95 111.35 256.0 94.35 275.65 87.05 296.95 86.75 316.8 86.45 335.0 92.15"/><path fill="#00a0b6" d="M365.25 110.6 L345.5 132.35 339.65 117.7 Q352.15 109.95 361.75 104.8 372.25 99.1 374.0 99.4 374.25 100.45 365.25 110.6"/><path fill="#008c9f" d="M365.0 108.4 Q352.65 119.5 345.0 128.0 L339.65 117.7 Q352.15 109.95 361.75 104.8 372.25 99.1 374.0 99.4 374.2 100.15 365.0 108.4"/><path fill="#00a0b6" d="M342.35 152.05 Q347.55 154.35 361.35 163.2 375.35 172.15 377.0 174.35 365.35 173.5 343.65 169.1 L317.05 163.1 342.35 152.05"/><path fill="#008c9f" d="M376.35 173.7 L377.0 174.35 Q365.35 173.5 343.65 169.1 L317.05 163.1 322.1 160.9 Q351.15 169.95 376.35 173.7"/><path fill="#ba004f" d="M346.55 133.15 L314.3 111.15 308.5 105.15 Q312.5 104.6 318.5 106.1 324.95 107.75 330.75 111.05 345.6 119.6 346.55 133.15"/><path fill="#00a0b6" d="M348.85 146.3 Q348.5 148.1 346.1 150.1 344.55 151.4 332.75 156.0 320.15 160.95 319.05 161.55 317.05 162.7 315.35 169.3 L313.05 179.45 Q311.95 183.65 308.7 186.25 304.95 189.25 298.85 189.55 292.2 189.9 283.85 186.4 275.25 182.8 271.2 177.7 L255.85 158.6 220.1 188.25 Q222.3 182.45 226.95 172.85 236.35 153.6 248.9 134.5 213.05 121.8 190.25 112.2 L174.6 105.15 201.8 108.2 Q233.1 112.0 253.45 115.7 249.35 110.05 236.75 85.0 222.85 57.35 223.15 52.25 227.7 54.25 255.15 82.1 L286.5 114.35 313.85 110.45 Q321.75 111.35 333.3 119.9 345.5 128.8 347.45 136.35 349.35 143.6 348.85 146.3"/><path fill="#008c9f" d="M242.35 95.45 Q229.45 71.7 224.4 57.65 225.75 57.3 242.5 75.65 265.3 100.65 272.4 107.75 274.25 109.6 275.6 108.75 277.15 107.8 275.75 103.5 L286.5 114.35 295.3 116.1 Q306.4 118.9 317.75 124.0 321.0 125.95 319.75 130.55 318.45 135.15 314.4 134.55 310.4 133.95 295.85 137.3 281.9 140.5 269.45 144.7 263.3 146.9 256.4 152.95 L249.6 159.65 Q248.65 160.6 243.1 157.95 239.1 156.05 236.7 154.45 242.3 144.5 248.9 134.5 217.95 123.55 196.4 114.75 183.35 109.45 176.05 105.9 179.6 107.1 212.45 113.65 247.65 120.7 269.2 124.2 271.35 124.9 273.95 123.05 276.55 121.15 273.65 120.4 L262.45 118.05 254.25 116.4 Q248.8 107.35 242.35 95.45"/><path fill="#008c9f" d="M328.35 116.55 Q337.3 122.05 342.8 128.4 335.75 123.4 327.35 119.85 L320.35 117.3 Q317.15 113.2 313.65 110.5 L313.85 110.45 Q319.55 111.15 328.35 116.55"/><path fill="#e3eff5" d="M271.2 177.7 L255.6 158.25 Q259.3 154.75 265.05 150.15 270.65 145.65 272.35 144.7 278.45 153.85 296.7 167.3 L308.3 175.6 Q313.15 179.05 313.05 179.45 311.95 183.65 308.7 186.25 304.95 189.25 298.85 189.55 292.2 189.9 283.85 186.4 275.25 182.8 271.2 177.7"/><path fill="#ffffff" d="M295.65 116.2 Q304.05 117.25 313.5 121.85 318.25 124.15 321.3 126.25 L307.05 125.25 299.3 123.95 Q296.25 119.65 295.65 116.2"/><path fill="#ba004f" d="M287.85 114.8 L272.25 99.2 Q275.5 97.1 285.9 97.8 297.55 98.6 305.3 102.9 312.5 106.85 317.75 114.4 322.05 120.55 323.6 126.7 312.9 121.75 302.8 118.2 290.7 113.9 287.85 114.8"/><path fill="#99003f" d="M319.95 122.75 Q321.55 124.45 322.1 124.75 L323.0 124.75 323.6 126.7 Q312.9 121.75 302.8 118.2 290.7 113.9 287.85 114.8 L272.25 99.2 Q273.95 98.1 278.75 97.8 279.1 98.35 279.05 99.2 279.3 99.9 281.45 100.5 289.4 102.8 296.9 106.3 311.3 113.15 319.95 122.75"/><path fill="#922f00" d="M333.0 139.1 Q338.0 141.2 343.85 144.65 346.7 146.1 347.1 147.1 347.3 147.65 346.65 149.6 L319.05 161.8 316.05 166.5 312.2 181.0 Q308.95 186.1 299.95 185.25 291.25 184.45 285.95 179.35 281.4 174.9 275.95 160.3 270.85 146.45 271.9 144.9 273.1 143.25 287.35 139.55 303.35 135.45 314.55 135.3 323.6 135.2 333.0 139.1"/><path fill="#ed8599" d="M296.2 146.6 Q302.3 151.45 305.5 157.5 313.65 172.9 298.85 184.75 293.8 184.15 290.95 182.9 287.45 181.3 284.35 177.5 281.1 173.5 275.9 159.75 270.75 146.05 271.95 144.6 272.95 143.45 279.0 141.85 L284.8 140.45 Q290.5 142.0 296.2 146.6"/><path fill="#ce7486" d="M271.95 144.6 Q272.95 143.45 279.0 141.85 L284.8 140.45 Q292.4 142.55 299.3 149.3 306.85 156.7 308.05 165.0 300.05 156.1 289.2 154.8 280.15 153.7 274.95 157.65 273.2 152.55 272.35 149.0 271.45 145.2 271.95 144.6"/><path fill="#ffffff" d="M287.6 180.3 Q293.25 176.55 294.2 174.4 294.5 176.0 293.95 179.4 L293.25 183.35 Q293.05 184.5 287.6 180.3"/><path fill="#ffffff" d="M306.15 184.25 Q305.9 183.85 305.8 183.3 305.65 182.15 306.35 181.45 307.55 180.3 310.35 175.15 L310.85 177.65 Q311.35 180.4 311.3 181.7 311.25 183.0 308.7 183.75 L306.15 184.25"/><path fill="#ffffff" d="M320.6 135.25 Q320.75 134.15 323.85 135.4 L326.9 136.9 Q321.95 146.75 321.45 145.3 321.05 144.25 320.75 140.4 320.4 136.55 320.6 135.25"/><path fill="#ffffff" d="M342.2 144.2 Q342.2 143.15 344.45 145.0 L346.65 147.0 Q346.85 148.55 345.2 151.3 343.55 154.05 342.85 153.5 342.3 152.45 342.2 148.85 L342.2 144.2"/><path fill="#dbdcdc" d="M292.25 176.55 L291.45 179.5 Q291.0 181.25 291.1 182.7 L287.6 180.3 292.25 176.55"/><path fill="#dbdcdc" d="M308.55 178.25 Q307.9 181.8 308.15 183.9 L306.15 184.25 Q305.9 183.85 305.8 183.3 305.65 182.15 306.35 181.45 L308.55 178.25"/><path fill="#dbdcdc" d="M322.15 138.85 Q321.45 139.95 320.5 143.0 319.9 137.95 320.2 135.75 320.35 134.35 325.5 136.85 323.45 136.7 322.15 138.85"/><path fill="#dbdcdc" d="M345.6 146.0 Q344.3 146.1 343.5 147.35 L342.3 149.6 342.2 144.2 Q342.2 142.85 345.6 146.0"/><path fill="#e3eff5" d="M213.1 289.5 Q209.45 292.85 199.3 295.95 188.4 299.3 178.25 299.6 L211.75 250.5 Q230.35 247.05 231.9 249.15 233.6 251.4 230.55 260.6 229.3 264.3 223.05 275.05 216.25 286.65 213.1 289.5"/><path fill="#c1cbd1" d="M206.4 285.85 Q217.45 282.7 221.05 278.4 215.6 287.3 213.1 289.5 209.45 292.85 199.3 295.95 188.4 299.3 178.25 299.6 L186.0 288.2 Q195.05 289.1 206.4 285.85"/><path fill="#e3eff5" d="M126.55 307.75 Q122.5 306.9 120.2 305.3 L118.7 303.9 171.35 254.7 Q173.85 251.2 175.6 249.35 178.85 246.0 182.6 245.7 L200.35 245.0 Q213.65 244.95 213.65 246.75 213.65 248.9 211.95 254.75 210.15 260.8 208.15 265.1 200.65 281.4 195.75 285.25 L185.3 294.55 Q177.0 301.45 171.0 303.15 163.55 305.3 147.55 307.0 L126.55 307.75"/><path fill="#c1cbd1" d="M136.8 287.3 Q139.05 292.05 161.35 291.85 179.75 291.7 190.35 289.6 L181.15 297.45 Q175.2 302.0 171.0 303.15 163.55 305.3 147.55 307.0 L126.55 307.75 Q122.5 306.9 120.2 305.3 L118.7 303.9 136.8 287.3"/><path fill="#e3eff5" d="M151.3 245.7 Q163.55 248.05 169.55 251.45 171.8 252.75 170.9 255.05 170.15 257.0 166.45 261.05 L156.2 272.3 Q148.3 280.55 142.5 284.9 L126.95 296.95 Q117.9 303.85 115.9 304.15 L109.9 303.9 106.25 303.25 Q106.75 300.95 107.8 297.7 109.9 291.1 112.7 286.15 115.3 281.45 121.45 273.0 L130.05 261.15 Q132.65 257.2 134.5 251.25 L135.8 246.1 Q138.15 243.25 151.3 245.7"/><path fill="#c1cbd1" d="M112.7 286.15 L115.15 282.0 Q119.0 285.3 124.6 287.4 128.8 288.95 135.45 290.35 L123.55 299.5 Q117.5 303.9 115.9 304.15 L109.9 303.9 106.25 303.25 Q106.75 300.95 107.8 297.7 109.9 291.1 112.7 286.15"/><path fill="#0d131a" d="M309.65 121.6 Q309.65 120.8 311.15 120.8 311.8 120.8 312.25 121.25 312.65 121.7 312.65 122.35 312.65 123.5 312.2 124.55 311.75 125.65 311.15 125.65 310.5 125.65 310.1 124.55 309.65 123.45 309.65 121.6"/><path fill="#ffffff" d="M310.7 123.0 Q310.7 122.3 311.15 122.3 311.5 122.3 311.5 123.1 311.5 124.1 311.15 124.1 L310.85 123.75 310.7 123.0"/><path fill="#0d131a" d="M222.25 295.45 L221.6 294.1 219.2 288.9 Q218.0 285.8 217.65 283.35 L218.7 281.75 Q219.0 284.0 220.7 288.05 L223.55 294.15 225.3 297.35 Q223.8 296.05 222.25 295.45"/><path fill="#0d131a" d="M191.9 308.4 L193.65 310.05 Q182.7 310.65 177.1 307.3 L174.3 305.15 Q173.25 303.95 172.95 302.2 L175.3 301.5 Q175.75 304.25 179.45 306.3 183.7 308.75 191.9 308.4"/><path fill="#0d131a" d="M220.7 294.9 Q221.75 294.5 223.0 295.25 225.45 296.7 227.95 300.25 230.45 303.8 229.8 304.85 229.5 305.35 226.0 305.45 L218.45 305.0 217.5 303.75 224.35 304.05 228.05 303.7 Q228.35 303.3 226.2 300.5 223.95 297.65 222.2 296.3 L221.2 296.15 Q219.95 296.65 218.55 299.1 217.35 301.3 217.05 303.0 L215.75 302.75 Q216.1 300.85 217.4 298.5 219.0 295.55 220.7 294.9"/><path fill="#0d131a" d="M213.35 300.1 Q216.45 302.0 218.8 304.15 221.2 306.25 220.85 307.05 220.55 307.7 217.6 308.1 211.3 308.85 206.8 308.25 L205.95 307.65 205.45 307.05 Q207.25 307.35 212.85 307.15 L218.85 306.5 Q219.3 306.1 215.15 303.0 211.0 299.9 209.85 299.8 208.75 299.65 206.85 302.65 205.05 305.55 205.05 306.95 L203.85 305.55 Q203.85 304.2 206.05 301.35 208.35 298.35 209.8 298.35 210.55 298.35 213.35 300.1"/><path fill="#0d131a" d="M337.55 208.9 Q338.15 211.35 337.9 212.0 337.5 212.95 335.3 211.05 327.8 204.5 318.95 193.45 L311.45 183.6 312.55 182.25 323.4 195.3 Q334.6 208.65 335.25 208.35 335.95 208.05 328.75 187.7 L320.1 164.1 321.45 163.6 327.75 179.35 Q334.55 197.2 337.55 208.9"/><path fill="#0d131a" d="M324.95 232.05 L337.0 232.05 348.3 231.5 358.55 230.7 Q362.15 230.6 362.6 231.65 363.0 232.6 359.95 235.45 352.4 242.3 333.2 249.95 307.4 260.25 284.35 259.35 L283.75 257.65 Q298.05 258.25 313.9 254.25 326.7 251.1 339.25 245.3 324.8 249.0 306.9 249.65 290.9 250.2 277.7 248.3 L277.85 247.25 301.65 248.6 Q316.25 248.4 329.3 246.35 339.35 244.8 346.25 241.85 353.05 239.0 358.55 234.0 L359.45 232.85 Q358.75 232.0 347.25 233.05 L337.35 233.8 Q331.3 234.15 326.65 234.0 297.8 233.2 253.95 221.75 L251.9 219.2 Q298.4 231.3 324.95 232.05"/><path fill="#0d131a" d="M105.1 192.95 L107.8 195.15 Q92.95 193.65 75.05 196.05 53.55 198.95 38.3 206.5 20.5 215.25 16.05 227.3 12.5 237.0 17.25 249.7 22.2 263.0 32.9 269.6 L32.65 271.05 Q22.05 264.5 16.85 252.8 12.5 243.05 12.85 232.7 12.1 235.1 11.7 237.2 8.0 256.55 18.5 271.2 23.8 278.55 29.95 282.1 L29.55 284.05 Q22.65 280.3 16.7 272.65 4.85 257.35 8.75 237.25 13.75 211.25 49.4 199.45 63.2 194.85 79.5 193.2 93.65 191.8 105.1 192.95"/><path fill="#0d131a" d="M238.4 113.2 L234.4 112.25 Q240.45 107.9 246.65 104.45 L248.45 107.05 Q243.35 109.85 238.4 113.2"/><path fill="#0d131a" d="M220.1 124.05 L222.8 125.35 Q210.45 136.45 199.3 150.9 L194.9 153.0 Q207.05 136.3 220.1 124.05"/><path fill="#0d131a" d="M223.95 57.45 L224.75 60.3 Q201.5 62.95 180.75 72.45 162.0 81.0 150.45 92.5 L152.65 88.05 Q163.5 77.2 181.85 69.05 201.55 60.3 223.95 57.45"/><path fill="#0d131a" d="M341.5 95.75 Q344.35 98.45 343.45 98.85 L338.55 98.05 Q328.55 95.65 316.65 94.4 295.75 92.25 280.05 95.4 274.75 96.5 270.15 97.9 L268.25 95.4 Q286.05 90.2 306.85 91.05 323.8 91.75 336.45 95.85 L338.15 96.15 336.6 94.7 Q312.25 74.55 284.05 65.8 259.25 58.05 233.0 59.55 L230.35 56.8 Q259.65 54.25 286.55 62.8 317.3 72.5 341.5 95.75"/><path fill="#0d131a" d="M137.95 158.5 Q141.1 156.8 144.55 156.65 148.15 156.45 150.4 158.05 157.5 162.95 154.5 182.75 L151.7 183.35 Q153.05 174.75 152.25 168.75 151.35 162.25 148.05 159.9 144.05 157.15 138.8 160.05 L137.95 158.5"/><path fill="#0d131a" d="M234.2 7.15 Q240.7 9.85 240.75 11.35 240.75 12.8 234.4 15.1 208.35 24.45 184.9 46.7 161.5 68.85 151.0 94.1 139.65 121.4 139.35 151.35 139.1 174.75 144.3 186.05 L142.7 186.8 Q136.85 174.2 137.4 147.9 138.0 117.65 148.0 93.75 159.6 65.75 181.9 44.85 204.05 24.05 234.25 12.5 235.6 12.0 235.6 11.65 235.6 11.35 234.25 10.8 218.4 4.85 199.8 3.6 179.35 2.25 156.25 6.65 130.5 11.55 107.5 22.2 74.45 37.55 53.05 62.45 27.7 91.95 15.2 124.4 2.65 156.9 2.65 193.1 2.65 203.45 3.75 215.75 4.8 227.6 5.55 227.7 L6.5 226.2 Q14.35 207.75 31.55 193.9 48.85 179.95 67.4 177.45 78.95 175.9 88.7 179.4 101.55 184.0 110.1 197.1 L108.25 197.6 Q100.1 185.25 87.25 181.65 78.45 179.2 66.4 180.85 48.55 183.25 32.95 196.25 18.0 208.65 9.2 227.1 6.35 233.0 5.05 232.85 3.85 232.7 2.95 226.85 -4.4 176.95 6.75 137.6 17.85 98.35 49.6 61.4 71.35 36.1 104.3 20.2 128.05 8.75 153.2 3.95 177.2 -0.65 197.7 0.1 218.9 0.8 234.2 7.15"/><path fill="#0d131a" d="M370.85 98.8 Q375.25 97.0 376.0 98.05 376.7 99.05 374.2 102.6 371.0 107.25 346.4 133.65 L345.6 130.8 Q373.1 101.5 372.9 100.25 372.75 99.35 362.95 104.8 353.55 109.95 340.0 118.3 L338.55 116.75 351.6 108.65 Q362.35 102.25 370.85 98.8"/><path fill="#0d131a" d="M362.2 164.4 Q349.4 156.35 343.15 153.2 L344.65 152.05 Q350.0 154.8 359.5 160.9 369.4 167.3 374.75 171.55 377.9 173.75 377.5 174.8 377.05 175.85 373.0 175.25 354.1 172.35 337.9 168.8 L316.85 163.8 318.65 162.4 Q328.5 164.85 350.5 169.35 374.65 174.25 375.0 173.45 375.4 172.7 362.2 164.4"/><path fill="#0d131a" d="M206.15 309.35 Q206.65 308.9 204.25 306.7 201.85 304.45 199.25 302.95 197.7 302.1 194.0 304.9 190.25 307.75 192.15 308.45 194.85 309.45 200.4 309.65 L206.15 309.35 M206.5 306.95 Q208.8 309.45 208.1 310.55 207.45 311.55 204.25 311.5 196.05 311.4 191.65 309.7 190.15 309.1 190.95 306.85 191.9 304.25 195.5 302.1 197.7 300.75 200.05 301.55 202.1 302.15 206.5 306.95"/><path fill="#0d131a" d="M229.8 193.95 L231.15 192.85 Q232.2 198.0 258.3 224.1 L266.1 231.9 Q275.5 241.15 280.7 249.85 284.6 256.4 287.65 265.55 290.25 273.4 293.6 281.15 296.7 288.45 299.3 293.0 L297.3 292.95 295.75 290.35 291.35 280.6 Q288.1 272.8 285.65 265.5 283.1 257.85 277.6 249.4 272.1 240.95 264.3 232.8 L256.55 224.95 Q244.2 212.5 239.25 207.05 230.45 197.3 229.8 193.95"/><path fill="#0d131a" d="M238.2 279.4 L230.4 271.5 227.2 268.6 228.0 266.55 232.3 270.3 Q235.9 273.5 239.95 278.3 246.7 286.25 249.25 292.85 L251.35 299.4 Q253.0 305.4 255.35 307.25 258.7 309.9 269.15 311.1 273.65 311.6 277.55 311.3 L278.35 313.0 Q273.75 313.4 268.95 312.85 257.45 311.55 254.25 309.6 251.3 307.9 249.6 301.85 248.5 295.9 247.6 293.5 245.15 287.2 238.2 279.4"/><path fill="#0d131a" d="M250.65 270.9 Q251.95 276.15 252.1 278.85 252.2 281.6 251.15 282.9 250.2 284.15 248.3 284.4 L243.35 284.25 242.9 283.35 247.4 283.2 Q249.2 282.95 249.9 282.1 251.4 280.15 249.15 271.3 247.4 264.35 242.15 256.6 239.0 251.95 235.45 248.15 L234.4 250.2 232.95 252.7 Q231.75 254.25 232.4 249.95 234.5 246.2 235.55 243.45 L236.7 240.75 Q237.05 240.2 237.2 241.6 237.35 243.65 236.4 246.2 238.55 248.15 242.5 253.9 248.65 262.8 250.65 270.9"/><path fill="#0d131a" d="M238.05 151.6 L237.9 153.75 Q217.5 164.4 201.85 187.25 195.7 196.15 192.2 204.3 188.95 212.0 189.45 215.45 190.4 222.05 194.5 224.9 198.65 227.7 205.75 226.5 212.2 225.35 217.0 217.5 L226.25 198.85 Q230.75 189.85 240.95 182.2 250.7 174.9 264.85 169.5 L265.9 171.2 Q246.75 179.6 238.35 187.0 230.1 194.25 224.15 207.7 220.35 216.3 218.4 219.25 213.3 226.9 206.2 228.75 199.2 230.55 193.7 227.15 188.1 223.65 186.7 216.25 185.8 211.6 189.4 203.15 193.0 194.6 199.95 185.15 216.55 162.45 238.05 151.6"/><path fill="#0d131a" d="M232.9 248.45 Q234.8 251.05 231.6 260.7 230.35 264.45 223.95 275.6 216.9 287.85 213.65 290.75 209.95 294.1 199.4 297.0 188.6 299.9 178.3 300.25 L178.25 298.9 Q188.1 298.6 198.8 295.4 208.95 292.35 212.65 289.0 215.8 286.2 222.55 274.6 228.75 263.9 229.9 260.4 231.3 256.25 231.7 253.35 232.1 250.5 231.4 249.55 230.95 249.0 228.0 249.05 222.9 249.15 211.85 251.2 L212.7 249.4 Q223.0 247.45 226.95 247.2 231.75 246.9 232.9 248.45"/><path fill="#0d131a" d="M147.1 307.85 Q129.65 309.4 124.6 308.3 120.5 307.45 118.5 305.45 L117.25 303.65 118.65 303.1 120.4 304.2 Q122.85 305.45 126.6 306.25 131.15 307.25 147.05 305.75 162.9 304.25 170.3 302.15 174.85 300.85 185.25 292.5 L194.8 284.4 Q199.55 280.6 207.0 264.45 209.1 259.95 211.1 253.55 213.1 246.95 212.45 246.5 L197.9 246.0 181.5 247.05 Q178.85 247.6 176.15 250.3 174.6 251.85 171.9 255.1 169.85 257.35 169.25 257.05 168.7 256.75 170.9 254.25 173.55 250.55 175.1 248.85 177.85 245.9 181.55 245.2 L198.5 243.9 Q211.3 243.7 213.9 245.65 216.15 247.35 209.55 263.55 202.75 280.15 197.05 284.75 L187.1 293.7 Q176.2 302.9 171.5 304.25 164.3 306.3 147.1 307.85"/><path fill="#0d131a" d="M135.3 244.45 Q139.7 242.25 153.2 245.15 164.6 247.6 170.5 250.35 172.35 251.2 172.25 253.5 172.2 255.65 170.6 258.0 L167.45 261.95 163.35 266.35 150.85 278.9 Q139.8 289.45 134.15 293.5 118.0 305.2 115.4 305.55 113.35 305.85 109.65 304.95 L106.15 303.9 106.85 301.85 110.4 302.5 116.15 302.85 Q117.4 302.65 124.15 297.8 L133.65 290.95 Q136.4 289.15 147.75 278.4 157.95 268.7 160.75 265.65 167.05 259.05 168.6 256.95 169.85 255.3 170.0 253.9 170.1 252.4 168.8 251.9 159.9 248.3 149.2 246.5 138.4 244.65 135.15 246.3 L135.3 244.45"/><path fill="#0d131a" d="M136.1 234.9 Q136.4 232.55 137.1 232.25 137.85 231.9 137.9 235.0 138.15 247.9 133.0 257.65 131.0 261.45 120.8 274.85 L119.35 276.75 Q113.5 284.4 107.3 302.5 102.4 316.7 101.6 322.15 101.2 324.8 100.8 325.5 L99.45 326.75 Q94.85 329.75 89.15 331.75 83.65 333.7 78.25 334.35 L78.05 333.15 77.85 331.75 Q87.6 330.7 96.1 325.95 L98.45 324.35 Q99.15 323.5 99.55 320.6 100.25 315.45 105.5 301.15 111.95 283.6 117.95 275.65 L119.4 273.75 Q127.0 263.75 130.4 256.35 134.6 247.15 136.1 234.9"/><path fill="#0d131a" d="M235.3 129.5 L237.9 130.75 Q230.4 132.95 210.25 144.85 191.5 155.9 179.7 164.6 176.95 166.55 171.6 170.9 161.7 178.95 155.6 182.35 145.6 187.95 132.55 190.4 116.05 193.5 99.55 202.6 88.1 208.9 77.95 217.25 70.7 223.25 55.7 240.8 41.75 257.1 37.8 263.35 34.25 269.05 32.5 274.0 30.55 279.7 29.2 289.15 28.0 297.85 27.5 309.35 L26.7 309.5 25.75 309.35 Q26.2 294.45 27.2 287.3 28.5 278.05 30.75 272.55 32.15 269.1 36.3 262.45 40.7 255.3 53.25 239.55 67.6 221.6 74.7 215.75 84.8 207.45 96.55 201.1 113.15 192.15 129.95 188.95 142.7 186.55 154.2 180.2 161.9 175.95 171.55 168.15 L179.7 161.75 Q191.0 153.45 208.15 143.25 227.45 131.8 235.3 129.5"/><path fill="#0d131a" d="M67.7 254.95 Q68.15 250.65 68.75 248.35 69.2 246.5 69.65 246.15 70.15 245.75 70.05 247.85 L69.2 253.7 67.7 254.95"/><path fill="#0d131a" d="M91.75 228.1 Q94.1 226.55 94.7 226.5 95.4 226.45 93.0 228.35 90.7 230.2 78.5 244.65 67.0 258.35 63.85 262.65 61.4 266.0 55.8 287.95 50.4 309.0 48.65 320.8 L46.6 321.95 Q48.85 303.2 54.05 283.75 58.8 265.9 62.0 261.45 66.85 254.8 75.25 244.9 86.6 231.55 91.75 228.1"/><path fill="#0d131a" d="M297.95 292.05 Q299.55 291.35 305.15 295.75 310.7 300.15 310.0 301.55 309.65 302.35 306.8 302.85 L301.4 303.1 299.85 301.6 Q302.15 301.85 304.85 301.55 307.7 301.2 307.9 300.6 308.15 299.8 299.0 293.55 298.5 293.4 297.95 294.75 297.25 296.3 296.7 299.45 L295.1 299.05 Q296.25 292.85 297.95 292.05"/><path fill="#0d131a" d="M22.75 315.75 L26.9 315.35 25.4 316.9 23.7 317.1 20.05 317.0 Q18.55 316.9 18.2 316.0 17.8 314.95 19.35 313.4 23.7 309.2 25.3 308.45 26.65 307.9 28.45 309.9 30.15 311.75 30.35 313.2 L29.45 313.75 Q29.3 312.8 27.95 311.1 26.55 309.35 26.0 309.55 25.4 309.75 23.0 311.8 L19.5 315.2 Q19.05 315.75 22.75 315.75"/><path fill="#0d131a" d="M337.75 114.25 Q342.8 118.2 345.5 123.8 348.25 129.65 347.2 134.65 L345.65 133.2 Q344.95 123.1 335.7 115.5 329.5 110.45 321.95 107.7 314.75 105.05 310.3 105.75 L309.05 104.3 Q314.3 103.5 321.65 105.7 330.35 108.35 337.75 114.25"/><path fill="#0d131a" d="M348.3 136.15 Q350.25 143.45 349.75 146.5 349.4 148.8 346.85 150.9 L345.45 151.7 344.3 152.15 345.7 149.25 Q347.75 147.6 348.0 145.85 348.35 143.35 346.6 136.55 344.65 129.15 333.9 121.05 323.7 113.35 316.2 112.45 L313.95 109.55 Q322.05 110.55 333.75 119.05 346.25 128.15 348.3 136.15"/><path fill="#0d131a" d="M294.85 116.4 L296.65 116.5 297.25 118.65 Q298.15 121.25 299.75 123.4 L308.5 124.9 321.3 125.65 322.95 126.9 308.75 126.3 296.65 124.15 Q294.75 123.65 295.15 123.4 L298.0 123.2 Q296.7 121.55 295.65 118.8 L294.85 116.4"/><path fill="#0d131a" d="M324.45 126.5 Q324.8 128.0 324.6 128.1 L323.25 127.5 Q319.4 125.35 305.55 120.4 290.35 114.9 288.15 115.65 L286.45 113.65 Q289.55 112.6 302.5 117.2 312.35 120.65 322.2 125.1 320.3 119.35 316.45 114.1 311.55 107.35 304.85 103.65 297.3 99.5 286.0 98.85 276.1 98.3 273.15 100.25 L271.8 98.45 Q275.35 96.15 286.5 96.8 298.85 97.5 306.75 101.85 314.4 106.1 319.35 114.1 323.1 120.1 324.45 126.5"/><path fill="#0d131a" d="M262.85 153.35 L256.85 158.35 271.9 177.15 Q275.75 181.9 284.0 185.45 292.3 189.0 298.8 188.65 305.45 188.3 309.0 184.75 307.05 185.8 304.45 186.1 299.65 186.7 294.2 184.85 288.9 183.05 285.5 179.8 281.25 175.7 276.05 163.45 270.95 151.45 271.0 146.25 L262.85 153.35 M336.8 139.7 Q348.75 145.55 348.0 148.05 L346.15 149.0 346.2 148.85 Q347.2 146.1 336.5 140.95 325.1 135.4 315.1 135.55 304.25 135.7 288.2 139.95 274.2 143.6 272.5 145.25 L272.45 145.55 Q272.45 149.15 277.05 161.3 282.2 174.8 286.45 178.85 289.55 181.9 294.6 183.5 299.65 185.1 304.3 184.55 309.6 183.9 311.65 180.65 L311.7 180.65 312.2 179.2 313.25 174.6 Q314.45 168.8 315.35 166.15 316.75 161.85 318.6 160.8 319.85 160.05 329.15 156.45 L342.5 151.05 342.5 153.0 329.8 158.1 Q320.75 161.6 319.45 162.35 318.1 163.1 316.85 167.3 316.1 169.75 315.0 174.95 L313.9 179.7 Q312.85 183.7 310.0 186.45 305.95 190.45 298.9 190.8 291.85 191.2 283.4 187.6 274.9 184.0 270.85 178.9 L255.55 159.6 243.55 170.3 228.05 183.8 Q220.5 190.1 219.55 188.7 218.8 187.65 222.0 180.5 231.45 159.6 247.55 135.0 L203.75 119.35 Q189.35 113.95 176.85 107.4 173.15 105.5 173.5 104.9 L177.65 104.65 202.3 107.0 Q227.65 109.9 251.65 114.5 243.0 100.05 238.05 90.85 227.85 72.0 221.95 56.35 219.85 50.7 221.35 49.9 222.55 49.25 225.75 51.65 235.85 59.0 287.1 113.7 288.7 115.7 288.15 116.0 287.65 116.25 285.85 114.95 L255.55 83.5 Q226.4 53.35 224.2 53.95 221.85 54.6 236.5 83.05 250.2 109.7 254.2 115.2 L257.55 115.65 263.9 116.95 Q267.3 117.95 268.25 118.85 L264.9 118.75 Q259.65 117.55 220.0 111.8 179.7 105.95 179.55 106.55 179.25 107.1 215.7 120.8 L256.85 136.25 Q261.05 137.85 260.05 138.15 L256.2 137.6 249.6 135.85 Q239.3 151.5 230.05 168.85 221.95 184.0 222.3 185.2 222.55 185.95 243.7 167.75 L267.7 147.1 Q270.65 144.75 272.0 144.05 276.1 141.55 289.75 137.95 305.4 133.85 315.65 133.7 324.2 133.55 336.8 139.7"/><path fill="#0d131a" d="M284.3 140.7 L285.0 139.8 Q292.3 141.8 298.2 147.05 304.05 152.25 306.8 158.95 309.65 165.95 308.25 172.65 306.7 180.05 300.15 185.55 L297.9 184.9 Q303.25 180.3 305.4 175.1 307.65 169.75 306.45 164.1 304.8 156.3 297.8 149.25 291.15 142.55 284.3 140.7"/><path fill="#0d131a" d="M295.1 174.15 Q295.7 174.45 295.2 177.55 L294.0 184.0 292.7 183.2 Q294.35 176.35 293.9 175.9 L291.0 178.1 287.9 180.7 287.0 180.0 Q288.6 178.4 292.25 175.6 294.6 173.85 295.1 174.15"/><path fill="#0d131a" d="M308.9 176.35 Q309.85 174.7 310.25 174.7 310.65 174.7 311.4 176.45 312.2 178.3 312.15 181.2 L310.95 182.1 310.8 178.45 Q310.5 176.5 310.2 176.45 309.95 176.4 308.65 178.7 L306.75 181.85 Q306.15 182.6 306.45 183.55 306.7 184.4 307.3 184.3 L306.4 185.0 Q305.4 184.85 305.05 183.6 304.7 182.35 305.55 181.5 306.45 180.6 308.9 176.35"/><path fill="#0d131a" d="M326.15 136.45 L327.55 136.75 Q326.3 140.95 324.2 143.8 322.4 146.2 321.45 146.1 320.6 146.0 319.8 142.75 319.0 139.25 319.15 135.45 L320.8 135.55 Q320.65 138.05 321.0 141.05 321.35 144.2 321.9 144.3 322.3 144.35 323.4 142.55 324.8 140.2 326.15 136.45"/><path fill="#0d131a" d="M341.45 143.4 L342.8 144.2 342.75 148.45 Q342.75 152.7 343.1 152.9 343.75 153.2 344.9 150.9 346.1 148.5 346.1 146.7 L347.2 146.95 Q347.35 148.4 345.65 151.4 343.85 154.45 342.65 154.05 341.35 153.5 341.45 143.4"/><path fill="#0d131a" d="M335.0 134.95 Q334.5 134.15 335.55 134.7 336.55 135.2 336.9 135.9 337.25 136.6 337.05 137.1 L336.45 137.15 335.0 134.95"/><path fill="#0d131a" d="M344.15 141.2 L344.75 140.5 345.75 140.45 Q346.35 140.7 346.0 140.9 343.9 142.05 344.15 141.2"/><path fill="#0d131a" d="M27.65 315.85 Q23.75 319.05 23.95 319.35 L28.25 319.5 33.7 318.95 32.9 320.3 25.4 320.8 Q23.0 320.7 22.55 319.9 22.1 319.1 23.7 317.45 25.95 315.2 29.1 313.1 L32.3 311.25 Q33.3 311.0 35.35 312.4 37.45 313.8 37.45 315.15 L36.1 316.45 Q36.1 315.3 34.55 313.8 33.2 312.45 32.5 312.3 31.55 312.7 27.65 315.85"/><path fill="#0d131a" d="M46.3 318.0 Q46.2 316.75 43.8 314.6 41.35 312.4 40.25 313.0 39.4 313.45 36.55 316.85 33.7 320.25 34.05 320.4 L38.65 320.05 Q43.3 319.3 46.3 318.0 M42.4 311.75 Q44.15 312.6 45.95 314.45 47.85 316.45 47.85 317.65 L47.55 319.6 Q42.15 321.4 35.1 322.05 29.6 322.65 33.25 318.45 36.85 314.3 39.65 311.9 L42.4 311.75"/><path fill="#0d131a" d="M44.4 330.45 L50.55 329.6 51.1 329.55 Q50.95 327.35 49.85 324.45 48.7 321.55 48.05 321.55 47.4 321.55 43.4 325.95 39.4 330.35 39.85 330.65 L44.4 330.45 M46.6 320.95 Q47.5 320.2 48.4 320.55 49.85 321.1 51.15 324.35 52.05 326.65 52.4 328.85 L51.3 329.55 Q52.0 329.55 51.5 330.15 L50.45 331.05 Q42.7 332.5 40.15 332.25 38.15 332.1 37.85 331.55 37.55 330.95 38.8 329.1 L42.2 325.2 46.6 320.95"/><path fill="#0d131a" d="M51.85 328.5 L58.55 323.0 Q59.45 322.4 60.2 322.6 60.9 322.75 61.75 323.7 63.05 325.1 64.15 326.85 65.7 329.25 65.7 330.7 L64.1 331.2 Q64.1 329.85 62.3 326.85 60.55 323.95 59.85 323.95 59.05 323.95 54.35 328.2 49.65 332.45 49.85 332.8 50.05 333.1 56.05 332.85 L63.95 332.2 62.9 333.7 56.8 334.4 Q52.35 334.65 49.4 334.25 L47.75 333.8 Q47.25 333.45 47.65 332.7 48.1 331.85 51.85 328.5"/><path fill="#0d131a" d="M77.3 333.4 Q77.8 333.25 76.8 331.35 75.8 329.45 74.45 327.85 72.6 325.7 71.15 326.7 68.35 328.65 65.25 331.7 61.95 334.9 62.6 335.25 63.45 335.75 68.1 335.25 73.25 334.75 77.3 333.4 M71.8 325.05 L73.9 325.45 Q75.65 326.45 77.2 328.85 78.45 330.8 78.95 332.5 79.35 333.8 79.2 334.25 79.0 334.7 78.0 335.0 71.65 336.95 64.9 337.05 58.35 337.15 61.95 332.95 65.45 329.0 70.3 325.55 70.9 325.15 71.8 325.05"/><path fill="#0d131a" d="M295.0 298.55 L295.7 298.65 Q298.0 299.05 302.6 302.65 307.3 306.3 306.6 307.5 306.1 308.4 301.2 308.85 296.7 309.25 292.3 309.0 L291.1 308.15 290.35 307.3 Q292.15 307.6 298.55 307.35 305.05 307.1 305.0 306.6 304.9 306.0 300.75 303.0 296.5 300.0 295.55 300.0 294.65 300.0 292.35 302.95 290.05 305.9 290.05 307.1 L288.65 306.45 Q288.65 305.1 290.5 302.6 292.0 300.55 293.25 299.5 294.25 298.65 295.0 298.55"/><path fill="#0d131a" d="M287.35 312.35 Q293.15 312.1 293.25 311.5 293.3 310.85 290.5 308.4 287.4 305.7 284.85 304.9 283.7 304.55 282.15 305.65 280.85 306.65 279.75 308.3 278.5 310.2 278.5 311.35 L278.55 311.6 Q281.25 312.6 287.35 312.35 M285.0 303.35 Q288.15 304.35 290.1 305.75 291.65 306.9 293.6 309.25 295.8 312.0 295.1 312.9 294.4 313.75 291.35 313.9 281.45 314.65 276.9 312.9 276.25 312.7 276.75 310.8 277.45 308.3 279.95 305.65 282.8 302.65 285.0 303.35"/></g></svg>